<?xml version="1.0" encoding="utf-8" standalone="no"?>
<!DOCTYPE svg PUBLIC "-//W3C//DTD SVG 1.1//EN"
  "http://www.w3.org/Graphics/SVG/1.1/DTD/svg11.dtd">
<svg xmlns:xlink="http://www.w3.org/1999/xlink" width="498.074375pt" height="492.1475pt" viewBox="0 0 498.074375 492.1475" xmlns="http://www.w3.org/2000/svg" version="1.1">
 <metadata>
  <rdf:RDF xmlns:dc="http://purl.org/dc/elements/1.1/" xmlns:cc="http://creativecommons.org/ns#" xmlns:rdf="http://www.w3.org/1999/02/22-rdf-syntax-ns#">
   <cc:Work>
    <dc:type rdf:resource="http://purl.org/dc/dcmitype/StillImage"/>
    <dc:date>2024-10-22T15:46:00.614830</dc:date>
    <dc:format>image/svg+xml</dc:format>
    <dc:creator>
     <cc:Agent>
      <dc:title>Matplotlib v3.6.3, https://matplotlib.org/</dc:title>
     </cc:Agent>
    </dc:creator>
   </cc:Work>
  </rdf:RDF>
 </metadata>
 <defs>
  <style type="text/css">*{stroke-linejoin: round; stroke-linecap: butt}</style>
 </defs>
 <g id="figure_1">
  <g id="patch_1">
   <path d="M 0 492.1475 
L 498.074375 492.1475 
L 498.074375 0 
L 0 0 
z
" style="fill: #ffffff"/>
  </g>
  <g id="axes_1">
   <g id="patch_2">
    <path d="M 44.474375 450.72 
L 490.874375 450.72 
L 490.874375 7.2 
L 44.474375 7.2 
z
" style="fill: #ffffff"/>
   </g>
   <g id="matplotlib.axis_1">
    <g id="xtick_1">
     <g id="line2d_1">
      <path d="M 105.347102 450.72 
L 105.347102 7.2 
" clip-path="url(#pf051423552)" style="fill: none; stroke: #b0b0b0; stroke-width: 0.8; stroke-linecap: square"/>
     </g>
     <g id="line2d_2">
      <defs>
       <path id="m1550f941c7" d="M 0 0 
L 0 3.5 
" style="stroke: #000000; stroke-width: 0.8"/>
      </defs>
      <g>
       <use xlink:href="#m1550f941c7" x="105.347102" y="450.72" style="stroke: #000000; stroke-width: 0.8"/>
      </g>
     </g>
     <g id="text_1">
      <!-- 160 -->
      <g transform="translate(95.803352 465.318437) scale(0.1 -0.1)">
       <defs>
        <path id="DejaVuSans-31" d="M 794 531 
L 1825 531 
L 1825 4091 
L 703 3866 
L 703 4441 
L 1819 4666 
L 2450 4666 
L 2450 531 
L 3481 531 
L 3481 0 
L 794 0 
L 794 531 
z
" transform="scale(0.015625)"/>
        <path id="DejaVuSans-36" d="M 2113 2584 
Q 1688 2584 1439 2293 
Q 1191 2003 1191 1497 
Q 1191 994 1439 701 
Q 1688 409 2113 409 
Q 2538 409 2786 701 
Q 3034 994 3034 1497 
Q 3034 2003 2786 2293 
Q 2538 2584 2113 2584 
z
M 3366 4563 
L 3366 3988 
Q 3128 4100 2886 4159 
Q 2644 4219 2406 4219 
Q 1781 4219 1451 3797 
Q 1122 3375 1075 2522 
Q 1259 2794 1537 2939 
Q 1816 3084 2150 3084 
Q 2853 3084 3261 2657 
Q 3669 2231 3669 1497 
Q 3669 778 3244 343 
Q 2819 -91 2113 -91 
Q 1303 -91 875 529 
Q 447 1150 447 2328 
Q 447 3434 972 4092 
Q 1497 4750 2381 4750 
Q 2619 4750 2861 4703 
Q 3103 4656 3366 4563 
z
" transform="scale(0.015625)"/>
        <path id="DejaVuSans-30" d="M 2034 4250 
Q 1547 4250 1301 3770 
Q 1056 3291 1056 2328 
Q 1056 1369 1301 889 
Q 1547 409 2034 409 
Q 2525 409 2770 889 
Q 3016 1369 3016 2328 
Q 3016 3291 2770 3770 
Q 2525 4250 2034 4250 
z
M 2034 4750 
Q 2819 4750 3233 4129 
Q 3647 3509 3647 2328 
Q 3647 1150 3233 529 
Q 2819 -91 2034 -91 
Q 1250 -91 836 529 
Q 422 1150 422 2328 
Q 422 3509 836 4129 
Q 1250 4750 2034 4750 
z
" transform="scale(0.015625)"/>
       </defs>
       <use xlink:href="#DejaVuSans-31"/>
       <use xlink:href="#DejaVuSans-36" x="63.623047"/>
       <use xlink:href="#DejaVuSans-30" x="127.246094"/>
      </g>
     </g>
    </g>
    <g id="xtick_2">
     <g id="line2d_3">
      <path d="M 186.510739 450.72 
L 186.510739 7.2 
" clip-path="url(#pf051423552)" style="fill: none; stroke: #b0b0b0; stroke-width: 0.8; stroke-linecap: square"/>
     </g>
     <g id="line2d_4">
      <g>
       <use xlink:href="#m1550f941c7" x="186.510739" y="450.72" style="stroke: #000000; stroke-width: 0.8"/>
      </g>
     </g>
     <g id="text_2">
      <!-- 180 -->
      <g transform="translate(176.966989 465.318437) scale(0.1 -0.1)">
       <defs>
        <path id="DejaVuSans-38" d="M 2034 2216 
Q 1584 2216 1326 1975 
Q 1069 1734 1069 1313 
Q 1069 891 1326 650 
Q 1584 409 2034 409 
Q 2484 409 2743 651 
Q 3003 894 3003 1313 
Q 3003 1734 2745 1975 
Q 2488 2216 2034 2216 
z
M 1403 2484 
Q 997 2584 770 2862 
Q 544 3141 544 3541 
Q 544 4100 942 4425 
Q 1341 4750 2034 4750 
Q 2731 4750 3128 4425 
Q 3525 4100 3525 3541 
Q 3525 3141 3298 2862 
Q 3072 2584 2669 2484 
Q 3125 2378 3379 2068 
Q 3634 1759 3634 1313 
Q 3634 634 3220 271 
Q 2806 -91 2034 -91 
Q 1263 -91 848 271 
Q 434 634 434 1313 
Q 434 1759 690 2068 
Q 947 2378 1403 2484 
z
M 1172 3481 
Q 1172 3119 1398 2916 
Q 1625 2713 2034 2713 
Q 2441 2713 2670 2916 
Q 2900 3119 2900 3481 
Q 2900 3844 2670 4047 
Q 2441 4250 2034 4250 
Q 1625 4250 1398 4047 
Q 1172 3844 1172 3481 
z
" transform="scale(0.015625)"/>
       </defs>
       <use xlink:href="#DejaVuSans-31"/>
       <use xlink:href="#DejaVuSans-38" x="63.623047"/>
       <use xlink:href="#DejaVuSans-30" x="127.246094"/>
      </g>
     </g>
    </g>
    <g id="xtick_3">
     <g id="line2d_5">
      <path d="M 267.674375 450.72 
L 267.674375 7.2 
" clip-path="url(#pf051423552)" style="fill: none; stroke: #b0b0b0; stroke-width: 0.8; stroke-linecap: square"/>
     </g>
     <g id="line2d_6">
      <g>
       <use xlink:href="#m1550f941c7" x="267.674375" y="450.72" style="stroke: #000000; stroke-width: 0.8"/>
      </g>
     </g>
     <g id="text_3">
      <!-- 200 -->
      <g transform="translate(258.130625 465.318437) scale(0.1 -0.1)">
       <defs>
        <path id="DejaVuSans-32" d="M 1228 531 
L 3431 531 
L 3431 0 
L 469 0 
L 469 531 
Q 828 903 1448 1529 
Q 2069 2156 2228 2338 
Q 2531 2678 2651 2914 
Q 2772 3150 2772 3378 
Q 2772 3750 2511 3984 
Q 2250 4219 1831 4219 
Q 1534 4219 1204 4116 
Q 875 4013 500 3803 
L 500 4441 
Q 881 4594 1212 4672 
Q 1544 4750 1819 4750 
Q 2544 4750 2975 4387 
Q 3406 4025 3406 3419 
Q 3406 3131 3298 2873 
Q 3191 2616 2906 2266 
Q 2828 2175 2409 1742 
Q 1991 1309 1228 531 
z
" transform="scale(0.015625)"/>
       </defs>
       <use xlink:href="#DejaVuSans-32"/>
       <use xlink:href="#DejaVuSans-30" x="63.623047"/>
       <use xlink:href="#DejaVuSans-30" x="127.246094"/>
      </g>
     </g>
    </g>
    <g id="xtick_4">
     <g id="line2d_7">
      <path d="M 348.838011 450.72 
L 348.838011 7.2 
" clip-path="url(#pf051423552)" style="fill: none; stroke: #b0b0b0; stroke-width: 0.8; stroke-linecap: square"/>
     </g>
     <g id="line2d_8">
      <g>
       <use xlink:href="#m1550f941c7" x="348.838011" y="450.72" style="stroke: #000000; stroke-width: 0.8"/>
      </g>
     </g>
     <g id="text_4">
      <!-- 220 -->
      <g transform="translate(339.294261 465.318437) scale(0.1 -0.1)">
       <use xlink:href="#DejaVuSans-32"/>
       <use xlink:href="#DejaVuSans-32" x="63.623047"/>
       <use xlink:href="#DejaVuSans-30" x="127.246094"/>
      </g>
     </g>
    </g>
    <g id="xtick_5">
     <g id="line2d_9">
      <path d="M 430.001648 450.72 
L 430.001648 7.2 
" clip-path="url(#pf051423552)" style="fill: none; stroke: #b0b0b0; stroke-width: 0.8; stroke-linecap: square"/>
     </g>
     <g id="line2d_10">
      <g>
       <use xlink:href="#m1550f941c7" x="430.001648" y="450.72" style="stroke: #000000; stroke-width: 0.8"/>
      </g>
     </g>
     <g id="text_5">
      <!-- 240 -->
      <g transform="translate(420.457898 465.318437) scale(0.1 -0.1)">
       <defs>
        <path id="DejaVuSans-34" d="M 2419 4116 
L 825 1625 
L 2419 1625 
L 2419 4116 
z
M 2253 4666 
L 3047 4666 
L 3047 1625 
L 3713 1625 
L 3713 1100 
L 3047 1100 
L 3047 0 
L 2419 0 
L 2419 1100 
L 313 1100 
L 313 1709 
L 2253 4666 
z
" transform="scale(0.015625)"/>
       </defs>
       <use xlink:href="#DejaVuSans-32"/>
       <use xlink:href="#DejaVuSans-34" x="63.623047"/>
       <use xlink:href="#DejaVuSans-30" x="127.246094"/>
      </g>
     </g>
    </g>
    <g id="text_6">
     <!-- Average Flow Number -->
     <g transform="translate(190.380156 482.035937) scale(0.14 -0.14)">
      <defs>
       <path id="DejaVuSans-41" d="M 2188 4044 
L 1331 1722 
L 3047 1722 
L 2188 4044 
z
M 1831 4666 
L 2547 4666 
L 4325 0 
L 3669 0 
L 3244 1197 
L 1141 1197 
L 716 0 
L 50 0 
L 1831 4666 
z
" transform="scale(0.015625)"/>
       <path id="DejaVuSans-76" d="M 191 3500 
L 800 3500 
L 1894 563 
L 2988 3500 
L 3597 3500 
L 2284 0 
L 1503 0 
L 191 3500 
z
" transform="scale(0.015625)"/>
       <path id="DejaVuSans-65" d="M 3597 1894 
L 3597 1613 
L 953 1613 
Q 991 1019 1311 708 
Q 1631 397 2203 397 
Q 2534 397 2845 478 
Q 3156 559 3463 722 
L 3463 178 
Q 3153 47 2828 -22 
Q 2503 -91 2169 -91 
Q 1331 -91 842 396 
Q 353 884 353 1716 
Q 353 2575 817 3079 
Q 1281 3584 2069 3584 
Q 2775 3584 3186 3129 
Q 3597 2675 3597 1894 
z
M 3022 2063 
Q 3016 2534 2758 2815 
Q 2500 3097 2075 3097 
Q 1594 3097 1305 2825 
Q 1016 2553 972 2059 
L 3022 2063 
z
" transform="scale(0.015625)"/>
       <path id="DejaVuSans-72" d="M 2631 2963 
Q 2534 3019 2420 3045 
Q 2306 3072 2169 3072 
Q 1681 3072 1420 2755 
Q 1159 2438 1159 1844 
L 1159 0 
L 581 0 
L 581 3500 
L 1159 3500 
L 1159 2956 
Q 1341 3275 1631 3429 
Q 1922 3584 2338 3584 
Q 2397 3584 2469 3576 
Q 2541 3569 2628 3553 
L 2631 2963 
z
" transform="scale(0.015625)"/>
       <path id="DejaVuSans-61" d="M 2194 1759 
Q 1497 1759 1228 1600 
Q 959 1441 959 1056 
Q 959 750 1161 570 
Q 1363 391 1709 391 
Q 2188 391 2477 730 
Q 2766 1069 2766 1631 
L 2766 1759 
L 2194 1759 
z
M 3341 1997 
L 3341 0 
L 2766 0 
L 2766 531 
Q 2569 213 2275 61 
Q 1981 -91 1556 -91 
Q 1019 -91 701 211 
Q 384 513 384 1019 
Q 384 1609 779 1909 
Q 1175 2209 1959 2209 
L 2766 2209 
L 2766 2266 
Q 2766 2663 2505 2880 
Q 2244 3097 1772 3097 
Q 1472 3097 1187 3025 
Q 903 2953 641 2809 
L 641 3341 
Q 956 3463 1253 3523 
Q 1550 3584 1831 3584 
Q 2591 3584 2966 3190 
Q 3341 2797 3341 1997 
z
" transform="scale(0.015625)"/>
       <path id="DejaVuSans-67" d="M 2906 1791 
Q 2906 2416 2648 2759 
Q 2391 3103 1925 3103 
Q 1463 3103 1205 2759 
Q 947 2416 947 1791 
Q 947 1169 1205 825 
Q 1463 481 1925 481 
Q 2391 481 2648 825 
Q 2906 1169 2906 1791 
z
M 3481 434 
Q 3481 -459 3084 -895 
Q 2688 -1331 1869 -1331 
Q 1566 -1331 1297 -1286 
Q 1028 -1241 775 -1147 
L 775 -588 
Q 1028 -725 1275 -790 
Q 1522 -856 1778 -856 
Q 2344 -856 2625 -561 
Q 2906 -266 2906 331 
L 2906 616 
Q 2728 306 2450 153 
Q 2172 0 1784 0 
Q 1141 0 747 490 
Q 353 981 353 1791 
Q 353 2603 747 3093 
Q 1141 3584 1784 3584 
Q 2172 3584 2450 3431 
Q 2728 3278 2906 2969 
L 2906 3500 
L 3481 3500 
L 3481 434 
z
" transform="scale(0.015625)"/>
       <path id="DejaVuSans-20" transform="scale(0.015625)"/>
       <path id="DejaVuSans-46" d="M 628 4666 
L 3309 4666 
L 3309 4134 
L 1259 4134 
L 1259 2759 
L 3109 2759 
L 3109 2228 
L 1259 2228 
L 1259 0 
L 628 0 
L 628 4666 
z
" transform="scale(0.015625)"/>
       <path id="DejaVuSans-6c" d="M 603 4863 
L 1178 4863 
L 1178 0 
L 603 0 
L 603 4863 
z
" transform="scale(0.015625)"/>
       <path id="DejaVuSans-6f" d="M 1959 3097 
Q 1497 3097 1228 2736 
Q 959 2375 959 1747 
Q 959 1119 1226 758 
Q 1494 397 1959 397 
Q 2419 397 2687 759 
Q 2956 1122 2956 1747 
Q 2956 2369 2687 2733 
Q 2419 3097 1959 3097 
z
M 1959 3584 
Q 2709 3584 3137 3096 
Q 3566 2609 3566 1747 
Q 3566 888 3137 398 
Q 2709 -91 1959 -91 
Q 1206 -91 779 398 
Q 353 888 353 1747 
Q 353 2609 779 3096 
Q 1206 3584 1959 3584 
z
" transform="scale(0.015625)"/>
       <path id="DejaVuSans-77" d="M 269 3500 
L 844 3500 
L 1563 769 
L 2278 3500 
L 2956 3500 
L 3675 769 
L 4391 3500 
L 4966 3500 
L 4050 0 
L 3372 0 
L 2619 2869 
L 1863 0 
L 1184 0 
L 269 3500 
z
" transform="scale(0.015625)"/>
       <path id="DejaVuSans-4e" d="M 628 4666 
L 1478 4666 
L 3547 763 
L 3547 4666 
L 4159 4666 
L 4159 0 
L 3309 0 
L 1241 3903 
L 1241 0 
L 628 0 
L 628 4666 
z
" transform="scale(0.015625)"/>
       <path id="DejaVuSans-75" d="M 544 1381 
L 544 3500 
L 1119 3500 
L 1119 1403 
Q 1119 906 1312 657 
Q 1506 409 1894 409 
Q 2359 409 2629 706 
Q 2900 1003 2900 1516 
L 2900 3500 
L 3475 3500 
L 3475 0 
L 2900 0 
L 2900 538 
Q 2691 219 2414 64 
Q 2138 -91 1772 -91 
Q 1169 -91 856 284 
Q 544 659 544 1381 
z
M 1991 3584 
L 1991 3584 
z
" transform="scale(0.015625)"/>
       <path id="DejaVuSans-6d" d="M 3328 2828 
Q 3544 3216 3844 3400 
Q 4144 3584 4550 3584 
Q 5097 3584 5394 3201 
Q 5691 2819 5691 2113 
L 5691 0 
L 5113 0 
L 5113 2094 
Q 5113 2597 4934 2840 
Q 4756 3084 4391 3084 
Q 3944 3084 3684 2787 
Q 3425 2491 3425 1978 
L 3425 0 
L 2847 0 
L 2847 2094 
Q 2847 2600 2669 2842 
Q 2491 3084 2119 3084 
Q 1678 3084 1418 2786 
Q 1159 2488 1159 1978 
L 1159 0 
L 581 0 
L 581 3500 
L 1159 3500 
L 1159 2956 
Q 1356 3278 1631 3431 
Q 1906 3584 2284 3584 
Q 2666 3584 2933 3390 
Q 3200 3197 3328 2828 
z
" transform="scale(0.015625)"/>
       <path id="DejaVuSans-62" d="M 3116 1747 
Q 3116 2381 2855 2742 
Q 2594 3103 2138 3103 
Q 1681 3103 1420 2742 
Q 1159 2381 1159 1747 
Q 1159 1113 1420 752 
Q 1681 391 2138 391 
Q 2594 391 2855 752 
Q 3116 1113 3116 1747 
z
M 1159 2969 
Q 1341 3281 1617 3432 
Q 1894 3584 2278 3584 
Q 2916 3584 3314 3078 
Q 3713 2572 3713 1747 
Q 3713 922 3314 415 
Q 2916 -91 2278 -91 
Q 1894 -91 1617 61 
Q 1341 213 1159 525 
L 1159 0 
L 581 0 
L 581 4863 
L 1159 4863 
L 1159 2969 
z
" transform="scale(0.015625)"/>
      </defs>
      <use xlink:href="#DejaVuSans-41"/>
      <use xlink:href="#DejaVuSans-76" x="62.533203"/>
      <use xlink:href="#DejaVuSans-65" x="121.712891"/>
      <use xlink:href="#DejaVuSans-72" x="183.236328"/>
      <use xlink:href="#DejaVuSans-61" x="224.349609"/>
      <use xlink:href="#DejaVuSans-67" x="285.628906"/>
      <use xlink:href="#DejaVuSans-65" x="349.105469"/>
      <use xlink:href="#DejaVuSans-20" x="410.628906"/>
      <use xlink:href="#DejaVuSans-46" x="442.416016"/>
      <use xlink:href="#DejaVuSans-6c" x="499.935547"/>
      <use xlink:href="#DejaVuSans-6f" x="527.71875"/>
      <use xlink:href="#DejaVuSans-77" x="588.900391"/>
      <use xlink:href="#DejaVuSans-20" x="670.6875"/>
      <use xlink:href="#DejaVuSans-4e" x="702.474609"/>
      <use xlink:href="#DejaVuSans-75" x="777.279297"/>
      <use xlink:href="#DejaVuSans-6d" x="840.658203"/>
      <use xlink:href="#DejaVuSans-62" x="938.070312"/>
      <use xlink:href="#DejaVuSans-65" x="1001.546875"/>
      <use xlink:href="#DejaVuSans-72" x="1063.070312"/>
     </g>
    </g>
   </g>
   <g id="matplotlib.axis_2">
    <g id="ytick_1">
     <g id="line2d_11">
      <path d="M 44.474375 429.901681 
L 490.874375 429.901681 
" clip-path="url(#pf051423552)" style="fill: none; stroke: #b0b0b0; stroke-width: 0.8; stroke-linecap: square"/>
     </g>
     <g id="line2d_12">
      <defs>
       <path id="mcbf06cc31b" d="M 0 0 
L -3.5 0 
" style="stroke: #000000; stroke-width: 0.8"/>
      </defs>
      <g>
       <use xlink:href="#mcbf06cc31b" x="44.474375" y="429.901681" style="stroke: #000000; stroke-width: 0.8"/>
      </g>
     </g>
     <g id="text_7">
      <!-- 0 -->
      <g transform="translate(31.111875 433.7009) scale(0.1 -0.1)">
       <use xlink:href="#DejaVuSans-30"/>
      </g>
     </g>
    </g>
    <g id="ytick_2">
     <g id="line2d_13">
      <path d="M 44.474375 364.069796 
L 490.874375 364.069796 
" clip-path="url(#pf051423552)" style="fill: none; stroke: #b0b0b0; stroke-width: 0.8; stroke-linecap: square"/>
     </g>
     <g id="line2d_14">
      <g>
       <use xlink:href="#mcbf06cc31b" x="44.474375" y="364.069796" style="stroke: #000000; stroke-width: 0.8"/>
      </g>
     </g>
     <g id="text_8">
      <!-- 2 -->
      <g transform="translate(31.111875 367.869014) scale(0.1 -0.1)">
       <use xlink:href="#DejaVuSans-32"/>
      </g>
     </g>
    </g>
    <g id="ytick_3">
     <g id="line2d_15">
      <path d="M 44.474375 298.23791 
L 490.874375 298.23791 
" clip-path="url(#pf051423552)" style="fill: none; stroke: #b0b0b0; stroke-width: 0.8; stroke-linecap: square"/>
     </g>
     <g id="line2d_16">
      <g>
       <use xlink:href="#mcbf06cc31b" x="44.474375" y="298.23791" style="stroke: #000000; stroke-width: 0.8"/>
      </g>
     </g>
     <g id="text_9">
      <!-- 4 -->
      <g transform="translate(31.111875 302.037129) scale(0.1 -0.1)">
       <use xlink:href="#DejaVuSans-34"/>
      </g>
     </g>
    </g>
    <g id="ytick_4">
     <g id="line2d_17">
      <path d="M 44.474375 232.406024 
L 490.874375 232.406024 
" clip-path="url(#pf051423552)" style="fill: none; stroke: #b0b0b0; stroke-width: 0.8; stroke-linecap: square"/>
     </g>
     <g id="line2d_18">
      <g>
       <use xlink:href="#mcbf06cc31b" x="44.474375" y="232.406024" style="stroke: #000000; stroke-width: 0.8"/>
      </g>
     </g>
     <g id="text_10">
      <!-- 6 -->
      <g transform="translate(31.111875 236.205243) scale(0.1 -0.1)">
       <use xlink:href="#DejaVuSans-36"/>
      </g>
     </g>
    </g>
    <g id="ytick_5">
     <g id="line2d_19">
      <path d="M 44.474375 166.574139 
L 490.874375 166.574139 
" clip-path="url(#pf051423552)" style="fill: none; stroke: #b0b0b0; stroke-width: 0.8; stroke-linecap: square"/>
     </g>
     <g id="line2d_20">
      <g>
       <use xlink:href="#mcbf06cc31b" x="44.474375" y="166.574139" style="stroke: #000000; stroke-width: 0.8"/>
      </g>
     </g>
     <g id="text_11">
      <!-- 8 -->
      <g transform="translate(31.111875 170.373358) scale(0.1 -0.1)">
       <use xlink:href="#DejaVuSans-38"/>
      </g>
     </g>
    </g>
    <g id="ytick_6">
     <g id="line2d_21">
      <path d="M 44.474375 100.742253 
L 490.874375 100.742253 
" clip-path="url(#pf051423552)" style="fill: none; stroke: #b0b0b0; stroke-width: 0.8; stroke-linecap: square"/>
     </g>
     <g id="line2d_22">
      <g>
       <use xlink:href="#mcbf06cc31b" x="44.474375" y="100.742253" style="stroke: #000000; stroke-width: 0.8"/>
      </g>
     </g>
     <g id="text_12">
      <!-- 10 -->
      <g transform="translate(24.749375 104.541472) scale(0.1 -0.1)">
       <use xlink:href="#DejaVuSans-31"/>
       <use xlink:href="#DejaVuSans-30" x="63.623047"/>
      </g>
     </g>
    </g>
    <g id="ytick_7">
     <g id="line2d_23">
      <path d="M 44.474375 34.910368 
L 490.874375 34.910368 
" clip-path="url(#pf051423552)" style="fill: none; stroke: #b0b0b0; stroke-width: 0.8; stroke-linecap: square"/>
     </g>
     <g id="line2d_24">
      <g>
       <use xlink:href="#mcbf06cc31b" x="44.474375" y="34.910368" style="stroke: #000000; stroke-width: 0.8"/>
      </g>
     </g>
     <g id="text_13">
      <!-- 12 -->
      <g transform="translate(24.749375 38.709586) scale(0.1 -0.1)">
       <use xlink:href="#DejaVuSans-31"/>
       <use xlink:href="#DejaVuSans-32" x="63.623047"/>
      </g>
     </g>
    </g>
    <g id="text_14">
     <!-- Blocked Rate (%) -->
     <g transform="translate(17.837813 289.000312) rotate(-90) scale(0.14 -0.14)">
      <defs>
       <path id="DejaVuSans-42" d="M 1259 2228 
L 1259 519 
L 2272 519 
Q 2781 519 3026 730 
Q 3272 941 3272 1375 
Q 3272 1813 3026 2020 
Q 2781 2228 2272 2228 
L 1259 2228 
z
M 1259 4147 
L 1259 2741 
L 2194 2741 
Q 2656 2741 2882 2914 
Q 3109 3088 3109 3444 
Q 3109 3797 2882 3972 
Q 2656 4147 2194 4147 
L 1259 4147 
z
M 628 4666 
L 2241 4666 
Q 2963 4666 3353 4366 
Q 3744 4066 3744 3513 
Q 3744 3084 3544 2831 
Q 3344 2578 2956 2516 
Q 3422 2416 3680 2098 
Q 3938 1781 3938 1306 
Q 3938 681 3513 340 
Q 3088 0 2303 0 
L 628 0 
L 628 4666 
z
" transform="scale(0.015625)"/>
       <path id="DejaVuSans-63" d="M 3122 3366 
L 3122 2828 
Q 2878 2963 2633 3030 
Q 2388 3097 2138 3097 
Q 1578 3097 1268 2742 
Q 959 2388 959 1747 
Q 959 1106 1268 751 
Q 1578 397 2138 397 
Q 2388 397 2633 464 
Q 2878 531 3122 666 
L 3122 134 
Q 2881 22 2623 -34 
Q 2366 -91 2075 -91 
Q 1284 -91 818 406 
Q 353 903 353 1747 
Q 353 2603 823 3093 
Q 1294 3584 2113 3584 
Q 2378 3584 2631 3529 
Q 2884 3475 3122 3366 
z
" transform="scale(0.015625)"/>
       <path id="DejaVuSans-6b" d="M 581 4863 
L 1159 4863 
L 1159 1991 
L 2875 3500 
L 3609 3500 
L 1753 1863 
L 3688 0 
L 2938 0 
L 1159 1709 
L 1159 0 
L 581 0 
L 581 4863 
z
" transform="scale(0.015625)"/>
       <path id="DejaVuSans-64" d="M 2906 2969 
L 2906 4863 
L 3481 4863 
L 3481 0 
L 2906 0 
L 2906 525 
Q 2725 213 2448 61 
Q 2172 -91 1784 -91 
Q 1150 -91 751 415 
Q 353 922 353 1747 
Q 353 2572 751 3078 
Q 1150 3584 1784 3584 
Q 2172 3584 2448 3432 
Q 2725 3281 2906 2969 
z
M 947 1747 
Q 947 1113 1208 752 
Q 1469 391 1925 391 
Q 2381 391 2643 752 
Q 2906 1113 2906 1747 
Q 2906 2381 2643 2742 
Q 2381 3103 1925 3103 
Q 1469 3103 1208 2742 
Q 947 2381 947 1747 
z
" transform="scale(0.015625)"/>
       <path id="DejaVuSans-52" d="M 2841 2188 
Q 3044 2119 3236 1894 
Q 3428 1669 3622 1275 
L 4263 0 
L 3584 0 
L 2988 1197 
Q 2756 1666 2539 1819 
Q 2322 1972 1947 1972 
L 1259 1972 
L 1259 0 
L 628 0 
L 628 4666 
L 2053 4666 
Q 2853 4666 3247 4331 
Q 3641 3997 3641 3322 
Q 3641 2881 3436 2590 
Q 3231 2300 2841 2188 
z
M 1259 4147 
L 1259 2491 
L 2053 2491 
Q 2509 2491 2742 2702 
Q 2975 2913 2975 3322 
Q 2975 3731 2742 3939 
Q 2509 4147 2053 4147 
L 1259 4147 
z
" transform="scale(0.015625)"/>
       <path id="DejaVuSans-74" d="M 1172 4494 
L 1172 3500 
L 2356 3500 
L 2356 3053 
L 1172 3053 
L 1172 1153 
Q 1172 725 1289 603 
Q 1406 481 1766 481 
L 2356 481 
L 2356 0 
L 1766 0 
Q 1100 0 847 248 
Q 594 497 594 1153 
L 594 3053 
L 172 3053 
L 172 3500 
L 594 3500 
L 594 4494 
L 1172 4494 
z
" transform="scale(0.015625)"/>
       <path id="DejaVuSans-28" d="M 1984 4856 
Q 1566 4138 1362 3434 
Q 1159 2731 1159 2009 
Q 1159 1288 1364 580 
Q 1569 -128 1984 -844 
L 1484 -844 
Q 1016 -109 783 600 
Q 550 1309 550 2009 
Q 550 2706 781 3412 
Q 1013 4119 1484 4856 
L 1984 4856 
z
" transform="scale(0.015625)"/>
       <path id="DejaVuSans-25" d="M 4653 2053 
Q 4381 2053 4226 1822 
Q 4072 1591 4072 1178 
Q 4072 772 4226 539 
Q 4381 306 4653 306 
Q 4919 306 5073 539 
Q 5228 772 5228 1178 
Q 5228 1588 5073 1820 
Q 4919 2053 4653 2053 
z
M 4653 2450 
Q 5147 2450 5437 2106 
Q 5728 1763 5728 1178 
Q 5728 594 5436 251 
Q 5144 -91 4653 -91 
Q 4153 -91 3862 251 
Q 3572 594 3572 1178 
Q 3572 1766 3864 2108 
Q 4156 2450 4653 2450 
z
M 1428 4353 
Q 1159 4353 1004 4120 
Q 850 3888 850 3481 
Q 850 3069 1003 2837 
Q 1156 2606 1428 2606 
Q 1700 2606 1854 2837 
Q 2009 3069 2009 3481 
Q 2009 3884 1853 4118 
Q 1697 4353 1428 4353 
z
M 4250 4750 
L 4750 4750 
L 1831 -91 
L 1331 -91 
L 4250 4750 
z
M 1428 4750 
Q 1922 4750 2215 4408 
Q 2509 4066 2509 3481 
Q 2509 2891 2217 2550 
Q 1925 2209 1428 2209 
Q 931 2209 642 2551 
Q 353 2894 353 3481 
Q 353 4063 643 4406 
Q 934 4750 1428 4750 
z
" transform="scale(0.015625)"/>
       <path id="DejaVuSans-29" d="M 513 4856 
L 1013 4856 
Q 1481 4119 1714 3412 
Q 1947 2706 1947 2009 
Q 1947 1309 1714 600 
Q 1481 -109 1013 -844 
L 513 -844 
Q 928 -128 1133 580 
Q 1338 1288 1338 2009 
Q 1338 2731 1133 3434 
Q 928 4138 513 4856 
z
" transform="scale(0.015625)"/>
      </defs>
      <use xlink:href="#DejaVuSans-42"/>
      <use xlink:href="#DejaVuSans-6c" x="68.603516"/>
      <use xlink:href="#DejaVuSans-6f" x="96.386719"/>
      <use xlink:href="#DejaVuSans-63" x="157.568359"/>
      <use xlink:href="#DejaVuSans-6b" x="212.548828"/>
      <use xlink:href="#DejaVuSans-65" x="266.833984"/>
      <use xlink:href="#DejaVuSans-64" x="328.357422"/>
      <use xlink:href="#DejaVuSans-20" x="391.833984"/>
      <use xlink:href="#DejaVuSans-52" x="423.621094"/>
      <use xlink:href="#DejaVuSans-61" x="490.853516"/>
      <use xlink:href="#DejaVuSans-74" x="552.132812"/>
      <use xlink:href="#DejaVuSans-65" x="591.341797"/>
      <use xlink:href="#DejaVuSans-20" x="652.865234"/>
      <use xlink:href="#DejaVuSans-28" x="684.652344"/>
      <use xlink:href="#DejaVuSans-25" x="723.666016"/>
      <use xlink:href="#DejaVuSans-29" x="818.685547"/>
     </g>
    </g>
   </g>
   <g id="LineCollection_1">
    <path d="M 64.765284 381.362417 
L 64.765284 346.777174 
" clip-path="url(#pf051423552)" style="fill: none; stroke: #1f77b4; stroke-width: 1.5"/>
    <path d="M 105.347102 339.233807 
L 105.347102 327.023811 
" clip-path="url(#pf051423552)" style="fill: none; stroke: #1f77b4; stroke-width: 1.5"/>
    <path d="M 145.92892 329.850376 
L 145.92892 296.908111 
" clip-path="url(#pf051423552)" style="fill: none; stroke: #1f77b4; stroke-width: 1.5"/>
    <path d="M 186.510739 267.955243 
L 186.510739 244.255764 
" clip-path="url(#pf051423552)" style="fill: none; stroke: #1f77b4; stroke-width: 1.5"/>
    <path d="M 227.092557 267.038084 
L 227.092557 243.856285 
" clip-path="url(#pf051423552)" style="fill: none; stroke: #1f77b4; stroke-width: 1.5"/>
    <path d="M 267.674375 221.651938 
L 267.674375 190.494603 
" clip-path="url(#pf051423552)" style="fill: none; stroke: #1f77b4; stroke-width: 1.5"/>
    <path d="M 308.256193 206.307197 
L 308.256193 159.757024 
" clip-path="url(#pf051423552)" style="fill: none; stroke: #1f77b4; stroke-width: 1.5"/>
    <path d="M 348.838011 181.194725 
L 348.838011 140.103814 
" clip-path="url(#pf051423552)" style="fill: none; stroke: #1f77b4; stroke-width: 1.5"/>
    <path d="M 389.41983 160.872342 
L 389.41983 94.594311 
" clip-path="url(#pf051423552)" style="fill: none; stroke: #1f77b4; stroke-width: 1.5"/>
    <path d="M 430.001648 118.314848 
L 430.001648 71.319919 
" clip-path="url(#pf051423552)" style="fill: none; stroke: #1f77b4; stroke-width: 1.5"/>
    <path d="M 470.583466 75.376678 
L 470.583466 27.36 
" clip-path="url(#pf051423552)" style="fill: none; stroke: #1f77b4; stroke-width: 1.5"/>
   </g>
   <g id="line2d_25">
    <defs>
     <path id="m44ed7ff821" d="M 5 0 
L -5 -0 
" style="stroke: #1f77b4"/>
    </defs>
    <g clip-path="url(#pf051423552)">
     <use xlink:href="#m44ed7ff821" x="64.765284" y="381.362417" style="fill: #1f77b4; stroke: #1f77b4"/>
     <use xlink:href="#m44ed7ff821" x="105.347102" y="339.233807" style="fill: #1f77b4; stroke: #1f77b4"/>
     <use xlink:href="#m44ed7ff821" x="145.92892" y="329.850376" style="fill: #1f77b4; stroke: #1f77b4"/>
     <use xlink:href="#m44ed7ff821" x="186.510739" y="267.955243" style="fill: #1f77b4; stroke: #1f77b4"/>
     <use xlink:href="#m44ed7ff821" x="227.092557" y="267.038084" style="fill: #1f77b4; stroke: #1f77b4"/>
     <use xlink:href="#m44ed7ff821" x="267.674375" y="221.651938" style="fill: #1f77b4; stroke: #1f77b4"/>
     <use xlink:href="#m44ed7ff821" x="308.256193" y="206.307197" style="fill: #1f77b4; stroke: #1f77b4"/>
     <use xlink:href="#m44ed7ff821" x="348.838011" y="181.194725" style="fill: #1f77b4; stroke: #1f77b4"/>
     <use xlink:href="#m44ed7ff821" x="389.41983" y="160.872342" style="fill: #1f77b4; stroke: #1f77b4"/>
     <use xlink:href="#m44ed7ff821" x="430.001648" y="118.314848" style="fill: #1f77b4; stroke: #1f77b4"/>
     <use xlink:href="#m44ed7ff821" x="470.583466" y="75.376678" style="fill: #1f77b4; stroke: #1f77b4"/>
    </g>
   </g>
   <g id="line2d_26">
    <g clip-path="url(#pf051423552)">
     <use xlink:href="#m44ed7ff821" x="64.765284" y="346.777174" style="fill: #1f77b4; stroke: #1f77b4"/>
     <use xlink:href="#m44ed7ff821" x="105.347102" y="327.023811" style="fill: #1f77b4; stroke: #1f77b4"/>
     <use xlink:href="#m44ed7ff821" x="145.92892" y="296.908111" style="fill: #1f77b4; stroke: #1f77b4"/>
     <use xlink:href="#m44ed7ff821" x="186.510739" y="244.255764" style="fill: #1f77b4; stroke: #1f77b4"/>
     <use xlink:href="#m44ed7ff821" x="227.092557" y="243.856285" style="fill: #1f77b4; stroke: #1f77b4"/>
     <use xlink:href="#m44ed7ff821" x="267.674375" y="190.494603" style="fill: #1f77b4; stroke: #1f77b4"/>
     <use xlink:href="#m44ed7ff821" x="308.256193" y="159.757024" style="fill: #1f77b4; stroke: #1f77b4"/>
     <use xlink:href="#m44ed7ff821" x="348.838011" y="140.103814" style="fill: #1f77b4; stroke: #1f77b4"/>
     <use xlink:href="#m44ed7ff821" x="389.41983" y="94.594311" style="fill: #1f77b4; stroke: #1f77b4"/>
     <use xlink:href="#m44ed7ff821" x="430.001648" y="71.319919" style="fill: #1f77b4; stroke: #1f77b4"/>
     <use xlink:href="#m44ed7ff821" x="470.583466" y="27.36" style="fill: #1f77b4; stroke: #1f77b4"/>
    </g>
   </g>
   <g id="LineCollection_2">
    <path d="M 64.765284 388.982797 
L 64.765284 347.05662 
" clip-path="url(#pf051423552)" style="fill: none; stroke: #ff7f0e; stroke-width: 1.5"/>
    <path d="M 105.347102 369.358266 
L 105.347102 349.564861 
" clip-path="url(#pf051423552)" style="fill: none; stroke: #ff7f0e; stroke-width: 1.5"/>
    <path d="M 145.92892 332.867013 
L 145.92892 321.540867 
" clip-path="url(#pf051423552)" style="fill: none; stroke: #ff7f0e; stroke-width: 1.5"/>
    <path d="M 186.510739 324.998345 
L 186.510739 282.010577 
" clip-path="url(#pf051423552)" style="fill: none; stroke: #ff7f0e; stroke-width: 1.5"/>
    <path d="M 227.092557 293.173645 
L 227.092557 265.119682 
" clip-path="url(#pf051423552)" style="fill: none; stroke: #ff7f0e; stroke-width: 1.5"/>
    <path d="M 267.674375 263.436505 
L 267.674375 234.291487 
" clip-path="url(#pf051423552)" style="fill: none; stroke: #ff7f0e; stroke-width: 1.5"/>
    <path d="M 308.256193 231.359083 
L 308.256193 215.020038 
" clip-path="url(#pf051423552)" style="fill: none; stroke: #ff7f0e; stroke-width: 1.5"/>
    <path d="M 348.838011 201.563418 
L 348.838011 175.033904 
" clip-path="url(#pf051423552)" style="fill: none; stroke: #ff7f0e; stroke-width: 1.5"/>
    <path d="M 389.41983 153.489418 
L 389.41983 142.793003 
" clip-path="url(#pf051423552)" style="fill: none; stroke: #ff7f0e; stroke-width: 1.5"/>
    <path d="M 430.001648 163.648519 
L 430.001648 119.467525 
" clip-path="url(#pf051423552)" style="fill: none; stroke: #ff7f0e; stroke-width: 1.5"/>
    <path d="M 470.583466 143.409302 
L 470.583466 80.458045 
" clip-path="url(#pf051423552)" style="fill: none; stroke: #ff7f0e; stroke-width: 1.5"/>
   </g>
   <g id="line2d_27">
    <defs>
     <path id="mb6802594a4" d="M 5 0 
L -5 -0 
" style="stroke: #ff7f0e"/>
    </defs>
    <g clip-path="url(#pf051423552)">
     <use xlink:href="#mb6802594a4" x="64.765284" y="388.982797" style="fill: #ff7f0e; stroke: #ff7f0e"/>
     <use xlink:href="#mb6802594a4" x="105.347102" y="369.358266" style="fill: #ff7f0e; stroke: #ff7f0e"/>
     <use xlink:href="#mb6802594a4" x="145.92892" y="332.867013" style="fill: #ff7f0e; stroke: #ff7f0e"/>
     <use xlink:href="#mb6802594a4" x="186.510739" y="324.998345" style="fill: #ff7f0e; stroke: #ff7f0e"/>
     <use xlink:href="#mb6802594a4" x="227.092557" y="293.173645" style="fill: #ff7f0e; stroke: #ff7f0e"/>
     <use xlink:href="#mb6802594a4" x="267.674375" y="263.436505" style="fill: #ff7f0e; stroke: #ff7f0e"/>
     <use xlink:href="#mb6802594a4" x="308.256193" y="231.359083" style="fill: #ff7f0e; stroke: #ff7f0e"/>
     <use xlink:href="#mb6802594a4" x="348.838011" y="201.563418" style="fill: #ff7f0e; stroke: #ff7f0e"/>
     <use xlink:href="#mb6802594a4" x="389.41983" y="153.489418" style="fill: #ff7f0e; stroke: #ff7f0e"/>
     <use xlink:href="#mb6802594a4" x="430.001648" y="163.648519" style="fill: #ff7f0e; stroke: #ff7f0e"/>
     <use xlink:href="#mb6802594a4" x="470.583466" y="143.409302" style="fill: #ff7f0e; stroke: #ff7f0e"/>
    </g>
   </g>
   <g id="line2d_28">
    <g clip-path="url(#pf051423552)">
     <use xlink:href="#mb6802594a4" x="64.765284" y="347.05662" style="fill: #ff7f0e; stroke: #ff7f0e"/>
     <use xlink:href="#mb6802594a4" x="105.347102" y="349.564861" style="fill: #ff7f0e; stroke: #ff7f0e"/>
     <use xlink:href="#mb6802594a4" x="145.92892" y="321.540867" style="fill: #ff7f0e; stroke: #ff7f0e"/>
     <use xlink:href="#mb6802594a4" x="186.510739" y="282.010577" style="fill: #ff7f0e; stroke: #ff7f0e"/>
     <use xlink:href="#mb6802594a4" x="227.092557" y="265.119682" style="fill: #ff7f0e; stroke: #ff7f0e"/>
     <use xlink:href="#mb6802594a4" x="267.674375" y="234.291487" style="fill: #ff7f0e; stroke: #ff7f0e"/>
     <use xlink:href="#mb6802594a4" x="308.256193" y="215.020038" style="fill: #ff7f0e; stroke: #ff7f0e"/>
     <use xlink:href="#mb6802594a4" x="348.838011" y="175.033904" style="fill: #ff7f0e; stroke: #ff7f0e"/>
     <use xlink:href="#mb6802594a4" x="389.41983" y="142.793003" style="fill: #ff7f0e; stroke: #ff7f0e"/>
     <use xlink:href="#mb6802594a4" x="430.001648" y="119.467525" style="fill: #ff7f0e; stroke: #ff7f0e"/>
     <use xlink:href="#mb6802594a4" x="470.583466" y="80.458045" style="fill: #ff7f0e; stroke: #ff7f0e"/>
    </g>
   </g>
   <g id="LineCollection_3">
    <path d="M 64.765284 412.785391 
L 64.765284 402.252289 
" clip-path="url(#pf051423552)" style="fill: none; stroke: #2ca02c; stroke-width: 1.5"/>
    <path d="M 105.347102 400.656417 
L 105.347102 385.415234 
" clip-path="url(#pf051423552)" style="fill: none; stroke: #2ca02c; stroke-width: 1.5"/>
    <path d="M 145.92892 394.581867 
L 145.92892 384.906595 
" clip-path="url(#pf051423552)" style="fill: none; stroke: #2ca02c; stroke-width: 1.5"/>
    <path d="M 186.510739 383.367097 
L 186.510739 347.40577 
" clip-path="url(#pf051423552)" style="fill: none; stroke: #2ca02c; stroke-width: 1.5"/>
    <path d="M 227.092557 355.085521 
L 227.092557 336.188214 
" clip-path="url(#pf051423552)" style="fill: none; stroke: #2ca02c; stroke-width: 1.5"/>
    <path d="M 267.674375 322.945068 
L 267.674375 285.380492 
" clip-path="url(#pf051423552)" style="fill: none; stroke: #2ca02c; stroke-width: 1.5"/>
    <path d="M 308.256193 311.65001 
L 308.256193 258.493056 
" clip-path="url(#pf051423552)" style="fill: none; stroke: #2ca02c; stroke-width: 1.5"/>
    <path d="M 348.838011 287.759573 
L 348.838011 256.050738 
" clip-path="url(#pf051423552)" style="fill: none; stroke: #2ca02c; stroke-width: 1.5"/>
    <path d="M 389.41983 263.098677 
L 389.41983 221.462937 
" clip-path="url(#pf051423552)" style="fill: none; stroke: #2ca02c; stroke-width: 1.5"/>
    <path d="M 430.001648 231.150238 
L 430.001648 195.479317 
" clip-path="url(#pf051423552)" style="fill: none; stroke: #2ca02c; stroke-width: 1.5"/>
    <path d="M 470.583466 196.683301 
L 470.583466 169.38092 
" clip-path="url(#pf051423552)" style="fill: none; stroke: #2ca02c; stroke-width: 1.5"/>
   </g>
   <g id="line2d_29">
    <defs>
     <path id="m8708f40559" d="M 5 0 
L -5 -0 
" style="stroke: #2ca02c"/>
    </defs>
    <g clip-path="url(#pf051423552)">
     <use xlink:href="#m8708f40559" x="64.765284" y="412.785391" style="fill: #2ca02c; stroke: #2ca02c"/>
     <use xlink:href="#m8708f40559" x="105.347102" y="400.656417" style="fill: #2ca02c; stroke: #2ca02c"/>
     <use xlink:href="#m8708f40559" x="145.92892" y="394.581867" style="fill: #2ca02c; stroke: #2ca02c"/>
     <use xlink:href="#m8708f40559" x="186.510739" y="383.367097" style="fill: #2ca02c; stroke: #2ca02c"/>
     <use xlink:href="#m8708f40559" x="227.092557" y="355.085521" style="fill: #2ca02c; stroke: #2ca02c"/>
     <use xlink:href="#m8708f40559" x="267.674375" y="322.945068" style="fill: #2ca02c; stroke: #2ca02c"/>
     <use xlink:href="#m8708f40559" x="308.256193" y="311.65001" style="fill: #2ca02c; stroke: #2ca02c"/>
     <use xlink:href="#m8708f40559" x="348.838011" y="287.759573" style="fill: #2ca02c; stroke: #2ca02c"/>
     <use xlink:href="#m8708f40559" x="389.41983" y="263.098677" style="fill: #2ca02c; stroke: #2ca02c"/>
     <use xlink:href="#m8708f40559" x="430.001648" y="231.150238" style="fill: #2ca02c; stroke: #2ca02c"/>
     <use xlink:href="#m8708f40559" x="470.583466" y="196.683301" style="fill: #2ca02c; stroke: #2ca02c"/>
    </g>
   </g>
   <g id="line2d_30">
    <g clip-path="url(#pf051423552)">
     <use xlink:href="#m8708f40559" x="64.765284" y="402.252289" style="fill: #2ca02c; stroke: #2ca02c"/>
     <use xlink:href="#m8708f40559" x="105.347102" y="385.415234" style="fill: #2ca02c; stroke: #2ca02c"/>
     <use xlink:href="#m8708f40559" x="145.92892" y="384.906595" style="fill: #2ca02c; stroke: #2ca02c"/>
     <use xlink:href="#m8708f40559" x="186.510739" y="347.40577" style="fill: #2ca02c; stroke: #2ca02c"/>
     <use xlink:href="#m8708f40559" x="227.092557" y="336.188214" style="fill: #2ca02c; stroke: #2ca02c"/>
     <use xlink:href="#m8708f40559" x="267.674375" y="285.380492" style="fill: #2ca02c; stroke: #2ca02c"/>
     <use xlink:href="#m8708f40559" x="308.256193" y="258.493056" style="fill: #2ca02c; stroke: #2ca02c"/>
     <use xlink:href="#m8708f40559" x="348.838011" y="256.050738" style="fill: #2ca02c; stroke: #2ca02c"/>
     <use xlink:href="#m8708f40559" x="389.41983" y="221.462937" style="fill: #2ca02c; stroke: #2ca02c"/>
     <use xlink:href="#m8708f40559" x="430.001648" y="195.479317" style="fill: #2ca02c; stroke: #2ca02c"/>
     <use xlink:href="#m8708f40559" x="470.583466" y="169.38092" style="fill: #2ca02c; stroke: #2ca02c"/>
    </g>
   </g>
   <g id="LineCollection_4">
    <path d="M 64.765284 429.901681 
L 64.765284 429.901681 
" clip-path="url(#pf051423552)" style="fill: none; stroke: #d62728; stroke-width: 1.5"/>
    <path d="M 105.347102 429.901681 
L 105.347102 429.901681 
" clip-path="url(#pf051423552)" style="fill: none; stroke: #d62728; stroke-width: 1.5"/>
    <path d="M 145.92892 429.901681 
L 145.92892 429.901681 
" clip-path="url(#pf051423552)" style="fill: none; stroke: #d62728; stroke-width: 1.5"/>
    <path d="M 186.510739 429.901681 
L 186.510739 429.901681 
" clip-path="url(#pf051423552)" style="fill: none; stroke: #d62728; stroke-width: 1.5"/>
    <path d="M 227.092557 429.731609 
L 227.092557 424.805202 
" clip-path="url(#pf051423552)" style="fill: none; stroke: #d62728; stroke-width: 1.5"/>
    <path d="M 267.674375 430.56 
L 267.674375 425.293449 
" clip-path="url(#pf051423552)" style="fill: none; stroke: #d62728; stroke-width: 1.5"/>
    <path d="M 308.256193 428.65023 
L 308.256193 421.936668 
" clip-path="url(#pf051423552)" style="fill: none; stroke: #d62728; stroke-width: 1.5"/>
    <path d="M 348.838011 425.40028 
L 348.838011 421.236706 
" clip-path="url(#pf051423552)" style="fill: none; stroke: #d62728; stroke-width: 1.5"/>
    <path d="M 389.41983 420.898878 
L 389.41983 412.57173 
" clip-path="url(#pf051423552)" style="fill: none; stroke: #d62728; stroke-width: 1.5"/>
    <path d="M 430.001648 419.686755 
L 430.001648 409.83394 
" clip-path="url(#pf051423552)" style="fill: none; stroke: #d62728; stroke-width: 1.5"/>
    <path d="M 470.583466 424.681916 
L 470.583466 415.371881 
" clip-path="url(#pf051423552)" style="fill: none; stroke: #d62728; stroke-width: 1.5"/>
   </g>
   <g id="line2d_31">
    <defs>
     <path id="mf27956c302" d="M 5 0 
L -5 -0 
" style="stroke: #d62728"/>
    </defs>
    <g clip-path="url(#pf051423552)">
     <use xlink:href="#mf27956c302" x="64.765284" y="429.901681" style="fill: #d62728; stroke: #d62728"/>
     <use xlink:href="#mf27956c302" x="105.347102" y="429.901681" style="fill: #d62728; stroke: #d62728"/>
     <use xlink:href="#mf27956c302" x="145.92892" y="429.901681" style="fill: #d62728; stroke: #d62728"/>
     <use xlink:href="#mf27956c302" x="186.510739" y="429.901681" style="fill: #d62728; stroke: #d62728"/>
     <use xlink:href="#mf27956c302" x="227.092557" y="429.731609" style="fill: #d62728; stroke: #d62728"/>
     <use xlink:href="#mf27956c302" x="267.674375" y="430.56" style="fill: #d62728; stroke: #d62728"/>
     <use xlink:href="#mf27956c302" x="308.256193" y="428.65023" style="fill: #d62728; stroke: #d62728"/>
     <use xlink:href="#mf27956c302" x="348.838011" y="425.40028" style="fill: #d62728; stroke: #d62728"/>
     <use xlink:href="#mf27956c302" x="389.41983" y="420.898878" style="fill: #d62728; stroke: #d62728"/>
     <use xlink:href="#mf27956c302" x="430.001648" y="419.686755" style="fill: #d62728; stroke: #d62728"/>
     <use xlink:href="#mf27956c302" x="470.583466" y="424.681916" style="fill: #d62728; stroke: #d62728"/>
    </g>
   </g>
   <g id="line2d_32">
    <g clip-path="url(#pf051423552)">
     <use xlink:href="#mf27956c302" x="64.765284" y="429.901681" style="fill: #d62728; stroke: #d62728"/>
     <use xlink:href="#mf27956c302" x="105.347102" y="429.901681" style="fill: #d62728; stroke: #d62728"/>
     <use xlink:href="#mf27956c302" x="145.92892" y="429.901681" style="fill: #d62728; stroke: #d62728"/>
     <use xlink:href="#mf27956c302" x="186.510739" y="429.901681" style="fill: #d62728; stroke: #d62728"/>
     <use xlink:href="#mf27956c302" x="227.092557" y="424.805202" style="fill: #d62728; stroke: #d62728"/>
     <use xlink:href="#mf27956c302" x="267.674375" y="425.293449" style="fill: #d62728; stroke: #d62728"/>
     <use xlink:href="#mf27956c302" x="308.256193" y="421.936668" style="fill: #d62728; stroke: #d62728"/>
     <use xlink:href="#mf27956c302" x="348.838011" y="421.236706" style="fill: #d62728; stroke: #d62728"/>
     <use xlink:href="#mf27956c302" x="389.41983" y="412.57173" style="fill: #d62728; stroke: #d62728"/>
     <use xlink:href="#mf27956c302" x="430.001648" y="409.83394" style="fill: #d62728; stroke: #d62728"/>
     <use xlink:href="#mf27956c302" x="470.583466" y="415.371881" style="fill: #d62728; stroke: #d62728"/>
    </g>
   </g>
   <g id="line2d_33">
    <path d="M 64.765284 364.069796 
L 105.347102 333.128809 
L 145.92892 313.379244 
L 186.510739 256.105503 
L 227.092557 255.447184 
L 267.674375 206.07327 
L 308.256193 183.03211 
L 348.838011 160.649269 
L 389.41983 127.733326 
L 430.001648 94.817384 
L 470.583466 51.368339 
" clip-path="url(#pf051423552)" style="fill: none; stroke: #1f77b4; stroke-width: 1.5; stroke-linecap: square"/>
    <defs>
     <path id="m3fb96f5614" d="M 0 3 
C 0.795609 3 1.55874 2.683901 2.12132 2.12132 
C 2.683901 1.55874 3 0.795609 3 0 
C 3 -0.795609 2.683901 -1.55874 2.12132 -2.12132 
C 1.55874 -2.683901 0.795609 -3 0 -3 
C -0.795609 -3 -1.55874 -2.683901 -2.12132 -2.12132 
C -2.683901 -1.55874 -3 -0.795609 -3 0 
C -3 0.795609 -2.683901 1.55874 -2.12132 2.12132 
C -1.55874 2.683901 -0.795609 3 0 3 
z
" style="stroke: #1f77b4"/>
    </defs>
    <g clip-path="url(#pf051423552)">
     <use xlink:href="#m3fb96f5614" x="64.765284" y="364.069796" style="fill: #1f77b4; stroke: #1f77b4"/>
     <use xlink:href="#m3fb96f5614" x="105.347102" y="333.128809" style="fill: #1f77b4; stroke: #1f77b4"/>
     <use xlink:href="#m3fb96f5614" x="145.92892" y="313.379244" style="fill: #1f77b4; stroke: #1f77b4"/>
     <use xlink:href="#m3fb96f5614" x="186.510739" y="256.105503" style="fill: #1f77b4; stroke: #1f77b4"/>
     <use xlink:href="#m3fb96f5614" x="227.092557" y="255.447184" style="fill: #1f77b4; stroke: #1f77b4"/>
     <use xlink:href="#m3fb96f5614" x="267.674375" y="206.07327" style="fill: #1f77b4; stroke: #1f77b4"/>
     <use xlink:href="#m3fb96f5614" x="308.256193" y="183.03211" style="fill: #1f77b4; stroke: #1f77b4"/>
     <use xlink:href="#m3fb96f5614" x="348.838011" y="160.649269" style="fill: #1f77b4; stroke: #1f77b4"/>
     <use xlink:href="#m3fb96f5614" x="389.41983" y="127.733326" style="fill: #1f77b4; stroke: #1f77b4"/>
     <use xlink:href="#m3fb96f5614" x="430.001648" y="94.817384" style="fill: #1f77b4; stroke: #1f77b4"/>
     <use xlink:href="#m3fb96f5614" x="470.583466" y="51.368339" style="fill: #1f77b4; stroke: #1f77b4"/>
    </g>
   </g>
   <g id="line2d_34">
    <path d="M 64.765284 368.019709 
L 105.347102 359.461564 
L 145.92892 327.20394 
L 186.510739 303.504461 
L 227.092557 279.146663 
L 267.674375 248.863996 
L 308.256193 223.18956 
L 348.838011 188.298661 
L 389.41983 148.141211 
L 430.001648 141.558022 
L 470.583466 111.933674 
" clip-path="url(#pf051423552)" style="fill: none; stroke: #ff7f0e; stroke-width: 1.5; stroke-linecap: square"/>
    <defs>
     <path id="m9e4e20d50f" d="M -3 3 
L 3 3 
L 3 -3 
L -3 -3 
z
" style="stroke: #ff7f0e; stroke-linejoin: miter"/>
    </defs>
    <g clip-path="url(#pf051423552)">
     <use xlink:href="#m9e4e20d50f" x="64.765284" y="368.019709" style="fill: #ff7f0e; stroke: #ff7f0e; stroke-linejoin: miter"/>
     <use xlink:href="#m9e4e20d50f" x="105.347102" y="359.461564" style="fill: #ff7f0e; stroke: #ff7f0e; stroke-linejoin: miter"/>
     <use xlink:href="#m9e4e20d50f" x="145.92892" y="327.20394" style="fill: #ff7f0e; stroke: #ff7f0e; stroke-linejoin: miter"/>
     <use xlink:href="#m9e4e20d50f" x="186.510739" y="303.504461" style="fill: #ff7f0e; stroke: #ff7f0e; stroke-linejoin: miter"/>
     <use xlink:href="#m9e4e20d50f" x="227.092557" y="279.146663" style="fill: #ff7f0e; stroke: #ff7f0e; stroke-linejoin: miter"/>
     <use xlink:href="#m9e4e20d50f" x="267.674375" y="248.863996" style="fill: #ff7f0e; stroke: #ff7f0e; stroke-linejoin: miter"/>
     <use xlink:href="#m9e4e20d50f" x="308.256193" y="223.18956" style="fill: #ff7f0e; stroke: #ff7f0e; stroke-linejoin: miter"/>
     <use xlink:href="#m9e4e20d50f" x="348.838011" y="188.298661" style="fill: #ff7f0e; stroke: #ff7f0e; stroke-linejoin: miter"/>
     <use xlink:href="#m9e4e20d50f" x="389.41983" y="148.141211" style="fill: #ff7f0e; stroke: #ff7f0e; stroke-linejoin: miter"/>
     <use xlink:href="#m9e4e20d50f" x="430.001648" y="141.558022" style="fill: #ff7f0e; stroke: #ff7f0e; stroke-linejoin: miter"/>
     <use xlink:href="#m9e4e20d50f" x="470.583466" y="111.933674" style="fill: #ff7f0e; stroke: #ff7f0e; stroke-linejoin: miter"/>
    </g>
   </g>
   <g id="line2d_35">
    <path d="M 64.765284 407.51884 
L 105.347102 393.035825 
L 145.92892 389.744231 
L 186.510739 365.386433 
L 227.092557 345.636868 
L 267.674375 304.16278 
L 308.256193 285.071533 
L 348.838011 271.905156 
L 389.41983 242.280807 
L 430.001648 213.314778 
L 470.583466 183.03211 
" clip-path="url(#pf051423552)" style="fill: none; stroke: #2ca02c; stroke-width: 1.5; stroke-linecap: square"/>
    <defs>
     <path id="m076ad1b6a4" d="M 0 -3 
L -3 3 
L 3 3 
z
" style="stroke: #2ca02c; stroke-linejoin: miter"/>
    </defs>
    <g clip-path="url(#pf051423552)">
     <use xlink:href="#m076ad1b6a4" x="64.765284" y="407.51884" style="fill: #2ca02c; stroke: #2ca02c; stroke-linejoin: miter"/>
     <use xlink:href="#m076ad1b6a4" x="105.347102" y="393.035825" style="fill: #2ca02c; stroke: #2ca02c; stroke-linejoin: miter"/>
     <use xlink:href="#m076ad1b6a4" x="145.92892" y="389.744231" style="fill: #2ca02c; stroke: #2ca02c; stroke-linejoin: miter"/>
     <use xlink:href="#m076ad1b6a4" x="186.510739" y="365.386433" style="fill: #2ca02c; stroke: #2ca02c; stroke-linejoin: miter"/>
     <use xlink:href="#m076ad1b6a4" x="227.092557" y="345.636868" style="fill: #2ca02c; stroke: #2ca02c; stroke-linejoin: miter"/>
     <use xlink:href="#m076ad1b6a4" x="267.674375" y="304.16278" style="fill: #2ca02c; stroke: #2ca02c; stroke-linejoin: miter"/>
     <use xlink:href="#m076ad1b6a4" x="308.256193" y="285.071533" style="fill: #2ca02c; stroke: #2ca02c; stroke-linejoin: miter"/>
     <use xlink:href="#m076ad1b6a4" x="348.838011" y="271.905156" style="fill: #2ca02c; stroke: #2ca02c; stroke-linejoin: miter"/>
     <use xlink:href="#m076ad1b6a4" x="389.41983" y="242.280807" style="fill: #2ca02c; stroke: #2ca02c; stroke-linejoin: miter"/>
     <use xlink:href="#m076ad1b6a4" x="430.001648" y="213.314778" style="fill: #2ca02c; stroke: #2ca02c; stroke-linejoin: miter"/>
     <use xlink:href="#m076ad1b6a4" x="470.583466" y="183.03211" style="fill: #2ca02c; stroke: #2ca02c; stroke-linejoin: miter"/>
    </g>
   </g>
   <g id="line2d_36">
    <path d="M 64.765284 429.901681 
L 105.347102 429.901681 
L 145.92892 429.901681 
L 186.510739 429.901681 
L 227.092557 427.268406 
L 267.674375 427.926725 
L 308.256193 425.293449 
L 348.838011 423.318493 
L 389.41983 416.735304 
L 430.001648 414.760347 
L 470.583466 420.026898 
" clip-path="url(#pf051423552)" style="fill: none; stroke: #d62728; stroke-width: 1.5; stroke-linecap: square"/>
    <defs>
     <path id="md75215a9ed" d="M 0 4.242641 
L 4.242641 0 
L 0 -4.242641 
L -4.242641 0 
z
" style="stroke: #d62728; stroke-linejoin: miter"/>
    </defs>
    <g clip-path="url(#pf051423552)">
     <use xlink:href="#md75215a9ed" x="64.765284" y="429.901681" style="fill: #d62728; stroke: #d62728; stroke-linejoin: miter"/>
     <use xlink:href="#md75215a9ed" x="105.347102" y="429.901681" style="fill: #d62728; stroke: #d62728; stroke-linejoin: miter"/>
     <use xlink:href="#md75215a9ed" x="145.92892" y="429.901681" style="fill: #d62728; stroke: #d62728; stroke-linejoin: miter"/>
     <use xlink:href="#md75215a9ed" x="186.510739" y="429.901681" style="fill: #d62728; stroke: #d62728; stroke-linejoin: miter"/>
     <use xlink:href="#md75215a9ed" x="227.092557" y="427.268406" style="fill: #d62728; stroke: #d62728; stroke-linejoin: miter"/>
     <use xlink:href="#md75215a9ed" x="267.674375" y="427.926725" style="fill: #d62728; stroke: #d62728; stroke-linejoin: miter"/>
     <use xlink:href="#md75215a9ed" x="308.256193" y="425.293449" style="fill: #d62728; stroke: #d62728; stroke-linejoin: miter"/>
     <use xlink:href="#md75215a9ed" x="348.838011" y="423.318493" style="fill: #d62728; stroke: #d62728; stroke-linejoin: miter"/>
     <use xlink:href="#md75215a9ed" x="389.41983" y="416.735304" style="fill: #d62728; stroke: #d62728; stroke-linejoin: miter"/>
     <use xlink:href="#md75215a9ed" x="430.001648" y="414.760347" style="fill: #d62728; stroke: #d62728; stroke-linejoin: miter"/>
     <use xlink:href="#md75215a9ed" x="470.583466" y="420.026898" style="fill: #d62728; stroke: #d62728; stroke-linejoin: miter"/>
    </g>
   </g>
   <g id="patch_3">
    <path d="M 44.474375 450.72 
L 44.474375 7.2 
" style="fill: none; stroke: #000000; stroke-width: 0.8; stroke-linejoin: miter; stroke-linecap: square"/>
   </g>
   <g id="patch_4">
    <path d="M 490.874375 450.72 
L 490.874375 7.2 
" style="fill: none; stroke: #000000; stroke-width: 0.8; stroke-linejoin: miter; stroke-linecap: square"/>
   </g>
   <g id="patch_5">
    <path d="M 44.474375 450.72 
L 490.874375 450.72 
" style="fill: none; stroke: #000000; stroke-width: 0.8; stroke-linejoin: miter; stroke-linecap: square"/>
   </g>
   <g id="patch_6">
    <path d="M 44.474375 7.2 
L 490.874375 7.2 
" style="fill: none; stroke: #000000; stroke-width: 0.8; stroke-linejoin: miter; stroke-linecap: square"/>
   </g>
   <g id="legend_1">
    <g id="patch_7">
     <path d="M 51.474375 74.15625 
L 171.099375 74.15625 
Q 173.099375 74.15625 173.099375 72.15625 
L 173.099375 14.2 
Q 173.099375 12.2 171.099375 12.2 
L 51.474375 12.2 
Q 49.474375 12.2 49.474375 14.2 
L 49.474375 72.15625 
Q 49.474375 74.15625 51.474375 74.15625 
z
" style="fill: #ffffff; opacity: 0.8; stroke: #cccccc; stroke-linejoin: miter"/>
    </g>
    <g id="LineCollection_5">
     <path d="M 63.474375 25.298437 
L 63.474375 15.298437 
" style="fill: none; stroke: #1f77b4; stroke-width: 1.5"/>
    </g>
    <g id="line2d_37">
     <g>
      <use xlink:href="#m44ed7ff821" x="63.474375" y="25.298437" style="fill: #1f77b4; stroke: #1f77b4"/>
     </g>
    </g>
    <g id="line2d_38">
     <g>
      <use xlink:href="#m44ed7ff821" x="63.474375" y="15.298437" style="fill: #1f77b4; stroke: #1f77b4"/>
     </g>
    </g>
    <g id="line2d_39">
     <path d="M 53.474375 20.298437 
L 73.474375 20.298437 
" style="fill: none; stroke: #1f77b4; stroke-width: 1.5; stroke-linecap: square"/>
    </g>
    <g id="line2d_40">
     <g>
      <use xlink:href="#m3fb96f5614" x="63.474375" y="20.298437" style="fill: #1f77b4; stroke: #1f77b4"/>
     </g>
    </g>
    <g id="text_15">
     <!-- 1+1 protection -->
     <g transform="translate(81.474375 23.798437) scale(0.1 -0.1)">
      <defs>
       <path id="DejaVuSans-2b" d="M 2944 4013 
L 2944 2272 
L 4684 2272 
L 4684 1741 
L 2944 1741 
L 2944 0 
L 2419 0 
L 2419 1741 
L 678 1741 
L 678 2272 
L 2419 2272 
L 2419 4013 
L 2944 4013 
z
" transform="scale(0.015625)"/>
       <path id="DejaVuSans-70" d="M 1159 525 
L 1159 -1331 
L 581 -1331 
L 581 3500 
L 1159 3500 
L 1159 2969 
Q 1341 3281 1617 3432 
Q 1894 3584 2278 3584 
Q 2916 3584 3314 3078 
Q 3713 2572 3713 1747 
Q 3713 922 3314 415 
Q 2916 -91 2278 -91 
Q 1894 -91 1617 61 
Q 1341 213 1159 525 
z
M 3116 1747 
Q 3116 2381 2855 2742 
Q 2594 3103 2138 3103 
Q 1681 3103 1420 2742 
Q 1159 2381 1159 1747 
Q 1159 1113 1420 752 
Q 1681 391 2138 391 
Q 2594 391 2855 752 
Q 3116 1113 3116 1747 
z
" transform="scale(0.015625)"/>
       <path id="DejaVuSans-69" d="M 603 3500 
L 1178 3500 
L 1178 0 
L 603 0 
L 603 3500 
z
M 603 4863 
L 1178 4863 
L 1178 4134 
L 603 4134 
L 603 4863 
z
" transform="scale(0.015625)"/>
       <path id="DejaVuSans-6e" d="M 3513 2113 
L 3513 0 
L 2938 0 
L 2938 2094 
Q 2938 2591 2744 2837 
Q 2550 3084 2163 3084 
Q 1697 3084 1428 2787 
Q 1159 2491 1159 1978 
L 1159 0 
L 581 0 
L 581 3500 
L 1159 3500 
L 1159 2956 
Q 1366 3272 1645 3428 
Q 1925 3584 2291 3584 
Q 2894 3584 3203 3211 
Q 3513 2838 3513 2113 
z
" transform="scale(0.015625)"/>
      </defs>
      <use xlink:href="#DejaVuSans-31"/>
      <use xlink:href="#DejaVuSans-2b" x="63.623047"/>
      <use xlink:href="#DejaVuSans-31" x="147.412109"/>
      <use xlink:href="#DejaVuSans-20" x="211.035156"/>
      <use xlink:href="#DejaVuSans-70" x="242.822266"/>
      <use xlink:href="#DejaVuSans-72" x="306.298828"/>
      <use xlink:href="#DejaVuSans-6f" x="345.162109"/>
      <use xlink:href="#DejaVuSans-74" x="406.34375"/>
      <use xlink:href="#DejaVuSans-65" x="445.552734"/>
      <use xlink:href="#DejaVuSans-63" x="507.076172"/>
      <use xlink:href="#DejaVuSans-74" x="562.056641"/>
      <use xlink:href="#DejaVuSans-69" x="601.265625"/>
      <use xlink:href="#DejaVuSans-6f" x="629.048828"/>
      <use xlink:href="#DejaVuSans-6e" x="690.230469"/>
     </g>
    </g>
    <g id="LineCollection_6">
     <path d="M 63.474375 40.078125 
L 63.474375 30.078125 
" style="fill: none; stroke: #ff7f0e; stroke-width: 1.5"/>
    </g>
    <g id="line2d_41">
     <g>
      <use xlink:href="#mb6802594a4" x="63.474375" y="40.078125" style="fill: #ff7f0e; stroke: #ff7f0e"/>
     </g>
    </g>
    <g id="line2d_42">
     <g>
      <use xlink:href="#mb6802594a4" x="63.474375" y="30.078125" style="fill: #ff7f0e; stroke: #ff7f0e"/>
     </g>
    </g>
    <g id="line2d_43">
     <path d="M 53.474375 35.078125 
L 73.474375 35.078125 
" style="fill: none; stroke: #ff7f0e; stroke-width: 1.5; stroke-linecap: square"/>
    </g>
    <g id="line2d_44">
     <g>
      <use xlink:href="#m9e4e20d50f" x="63.474375" y="35.078125" style="fill: #ff7f0e; stroke: #ff7f0e; stroke-linejoin: miter"/>
     </g>
    </g>
    <g id="text_16">
     <!-- TC-SSPR $\beta$=1 -->
     <g transform="translate(81.474375 38.578125) scale(0.1 -0.1)">
      <defs>
       <path id="DejaVuSans-54" d="M -19 4666 
L 3928 4666 
L 3928 4134 
L 2272 4134 
L 2272 0 
L 1638 0 
L 1638 4134 
L -19 4134 
L -19 4666 
z
" transform="scale(0.015625)"/>
       <path id="DejaVuSans-43" d="M 4122 4306 
L 4122 3641 
Q 3803 3938 3442 4084 
Q 3081 4231 2675 4231 
Q 1875 4231 1450 3742 
Q 1025 3253 1025 2328 
Q 1025 1406 1450 917 
Q 1875 428 2675 428 
Q 3081 428 3442 575 
Q 3803 722 4122 1019 
L 4122 359 
Q 3791 134 3420 21 
Q 3050 -91 2638 -91 
Q 1578 -91 968 557 
Q 359 1206 359 2328 
Q 359 3453 968 4101 
Q 1578 4750 2638 4750 
Q 3056 4750 3426 4639 
Q 3797 4528 4122 4306 
z
" transform="scale(0.015625)"/>
       <path id="DejaVuSans-2d" d="M 313 2009 
L 1997 2009 
L 1997 1497 
L 313 1497 
L 313 2009 
z
" transform="scale(0.015625)"/>
       <path id="DejaVuSans-53" d="M 3425 4513 
L 3425 3897 
Q 3066 4069 2747 4153 
Q 2428 4238 2131 4238 
Q 1616 4238 1336 4038 
Q 1056 3838 1056 3469 
Q 1056 3159 1242 3001 
Q 1428 2844 1947 2747 
L 2328 2669 
Q 3034 2534 3370 2195 
Q 3706 1856 3706 1288 
Q 3706 609 3251 259 
Q 2797 -91 1919 -91 
Q 1588 -91 1214 -16 
Q 841 59 441 206 
L 441 856 
Q 825 641 1194 531 
Q 1563 422 1919 422 
Q 2459 422 2753 634 
Q 3047 847 3047 1241 
Q 3047 1584 2836 1778 
Q 2625 1972 2144 2069 
L 1759 2144 
Q 1053 2284 737 2584 
Q 422 2884 422 3419 
Q 422 4038 858 4394 
Q 1294 4750 2059 4750 
Q 2388 4750 2728 4690 
Q 3069 4631 3425 4513 
z
" transform="scale(0.015625)"/>
       <path id="DejaVuSans-50" d="M 1259 4147 
L 1259 2394 
L 2053 2394 
Q 2494 2394 2734 2622 
Q 2975 2850 2975 3272 
Q 2975 3691 2734 3919 
Q 2494 4147 2053 4147 
L 1259 4147 
z
M 628 4666 
L 2053 4666 
Q 2838 4666 3239 4311 
Q 3641 3956 3641 3272 
Q 3641 2581 3239 2228 
Q 2838 1875 2053 1875 
L 1259 1875 
L 1259 0 
L 628 0 
L 628 4666 
z
" transform="scale(0.015625)"/>
       <path id="DejaVuSans-Oblique-3b2" d="M 872 216 
L 572 -1331 
L -6 -1331 
L 928 3478 
Q 1206 4903 2538 4903 
Q 3888 4903 3659 3700 
Q 3503 2844 2894 2531 
Q 3713 2250 3553 1416 
Q 3272 -69 1759 -66 
Q 1097 -63 872 216 
z
M 1019 966 
Q 1259 422 1875 425 
Q 2775 425 2966 1406 
Q 3138 2288 1675 2219 
L 1778 2750 
Q 2909 2731 3106 3750 
Q 3241 4438 2509 4434 
Q 1691 4434 1503 3459 
L 1019 966 
z
" transform="scale(0.015625)"/>
       <path id="DejaVuSans-3d" d="M 678 2906 
L 4684 2906 
L 4684 2381 
L 678 2381 
L 678 2906 
z
M 678 1631 
L 4684 1631 
L 4684 1100 
L 678 1100 
L 678 1631 
z
" transform="scale(0.015625)"/>
      </defs>
      <use xlink:href="#DejaVuSans-54" transform="translate(0 0.390625)"/>
      <use xlink:href="#DejaVuSans-43" transform="translate(61.083984 0.390625)"/>
      <use xlink:href="#DejaVuSans-2d" transform="translate(130.908203 0.390625)"/>
      <use xlink:href="#DejaVuSans-53" transform="translate(166.992188 0.390625)"/>
      <use xlink:href="#DejaVuSans-53" transform="translate(230.46875 0.390625)"/>
      <use xlink:href="#DejaVuSans-50" transform="translate(293.945312 0.390625)"/>
      <use xlink:href="#DejaVuSans-52" transform="translate(354.248047 0.390625)"/>
      <use xlink:href="#DejaVuSans-20" transform="translate(423.730469 0.390625)"/>
      <use xlink:href="#DejaVuSans-Oblique-3b2" transform="translate(455.517578 0.390625)"/>
      <use xlink:href="#DejaVuSans-3d" transform="translate(519.335938 0.390625)"/>
      <use xlink:href="#DejaVuSans-31" transform="translate(603.125 0.390625)"/>
     </g>
    </g>
    <g id="LineCollection_7">
     <path d="M 63.474375 54.878125 
L 63.474375 44.878125 
" style="fill: none; stroke: #2ca02c; stroke-width: 1.5"/>
    </g>
    <g id="line2d_45">
     <g>
      <use xlink:href="#m8708f40559" x="63.474375" y="54.878125" style="fill: #2ca02c; stroke: #2ca02c"/>
     </g>
    </g>
    <g id="line2d_46">
     <g>
      <use xlink:href="#m8708f40559" x="63.474375" y="44.878125" style="fill: #2ca02c; stroke: #2ca02c"/>
     </g>
    </g>
    <g id="line2d_47">
     <path d="M 53.474375 49.878125 
L 73.474375 49.878125 
" style="fill: none; stroke: #2ca02c; stroke-width: 1.5; stroke-linecap: square"/>
    </g>
    <g id="line2d_48">
     <g>
      <use xlink:href="#m076ad1b6a4" x="63.474375" y="49.878125" style="fill: #2ca02c; stroke: #2ca02c; stroke-linejoin: miter"/>
     </g>
    </g>
    <g id="text_17">
     <!-- TC-SSPR $\beta$=2 -->
     <g transform="translate(81.474375 53.378125) scale(0.1 -0.1)">
      <use xlink:href="#DejaVuSans-54" transform="translate(0 0.390625)"/>
      <use xlink:href="#DejaVuSans-43" transform="translate(61.083984 0.390625)"/>
      <use xlink:href="#DejaVuSans-2d" transform="translate(130.908203 0.390625)"/>
      <use xlink:href="#DejaVuSans-53" transform="translate(166.992188 0.390625)"/>
      <use xlink:href="#DejaVuSans-53" transform="translate(230.46875 0.390625)"/>
      <use xlink:href="#DejaVuSans-50" transform="translate(293.945312 0.390625)"/>
      <use xlink:href="#DejaVuSans-52" transform="translate(354.248047 0.390625)"/>
      <use xlink:href="#DejaVuSans-20" transform="translate(423.730469 0.390625)"/>
      <use xlink:href="#DejaVuSans-Oblique-3b2" transform="translate(455.517578 0.390625)"/>
      <use xlink:href="#DejaVuSans-3d" transform="translate(519.335938 0.390625)"/>
      <use xlink:href="#DejaVuSans-32" transform="translate(603.125 0.390625)"/>
     </g>
    </g>
    <g id="LineCollection_8">
     <path d="M 63.474375 69.576562 
L 63.474375 59.576562 
" style="fill: none; stroke: #d62728; stroke-width: 1.5"/>
    </g>
    <g id="line2d_49">
     <g>
      <use xlink:href="#mf27956c302" x="63.474375" y="69.576562" style="fill: #d62728; stroke: #d62728"/>
     </g>
    </g>
    <g id="line2d_50">
     <g>
      <use xlink:href="#mf27956c302" x="63.474375" y="59.576562" style="fill: #d62728; stroke: #d62728"/>
     </g>
    </g>
    <g id="line2d_51">
     <path d="M 53.474375 64.576562 
L 73.474375 64.576562 
" style="fill: none; stroke: #d62728; stroke-width: 1.5; stroke-linecap: square"/>
    </g>
    <g id="line2d_52">
     <g>
      <use xlink:href="#md75215a9ed" x="63.474375" y="64.576562" style="fill: #d62728; stroke: #d62728; stroke-linejoin: miter"/>
     </g>
    </g>
    <g id="text_18">
     <!-- maximum shared -->
     <g transform="translate(81.474375 68.076562) scale(0.1 -0.1)">
      <defs>
       <path id="DejaVuSans-78" d="M 3513 3500 
L 2247 1797 
L 3578 0 
L 2900 0 
L 1881 1375 
L 863 0 
L 184 0 
L 1544 1831 
L 300 3500 
L 978 3500 
L 1906 2253 
L 2834 3500 
L 3513 3500 
z
" transform="scale(0.015625)"/>
       <path id="DejaVuSans-73" d="M 2834 3397 
L 2834 2853 
Q 2591 2978 2328 3040 
Q 2066 3103 1784 3103 
Q 1356 3103 1142 2972 
Q 928 2841 928 2578 
Q 928 2378 1081 2264 
Q 1234 2150 1697 2047 
L 1894 2003 
Q 2506 1872 2764 1633 
Q 3022 1394 3022 966 
Q 3022 478 2636 193 
Q 2250 -91 1575 -91 
Q 1294 -91 989 -36 
Q 684 19 347 128 
L 347 722 
Q 666 556 975 473 
Q 1284 391 1588 391 
Q 1994 391 2212 530 
Q 2431 669 2431 922 
Q 2431 1156 2273 1281 
Q 2116 1406 1581 1522 
L 1381 1569 
Q 847 1681 609 1914 
Q 372 2147 372 2553 
Q 372 3047 722 3315 
Q 1072 3584 1716 3584 
Q 2034 3584 2315 3537 
Q 2597 3491 2834 3397 
z
" transform="scale(0.015625)"/>
       <path id="DejaVuSans-68" d="M 3513 2113 
L 3513 0 
L 2938 0 
L 2938 2094 
Q 2938 2591 2744 2837 
Q 2550 3084 2163 3084 
Q 1697 3084 1428 2787 
Q 1159 2491 1159 1978 
L 1159 0 
L 581 0 
L 581 4863 
L 1159 4863 
L 1159 2956 
Q 1366 3272 1645 3428 
Q 1925 3584 2291 3584 
Q 2894 3584 3203 3211 
Q 3513 2838 3513 2113 
z
" transform="scale(0.015625)"/>
      </defs>
      <use xlink:href="#DejaVuSans-6d"/>
      <use xlink:href="#DejaVuSans-61" x="97.412109"/>
      <use xlink:href="#DejaVuSans-78" x="158.691406"/>
      <use xlink:href="#DejaVuSans-69" x="217.871094"/>
      <use xlink:href="#DejaVuSans-6d" x="245.654297"/>
      <use xlink:href="#DejaVuSans-75" x="343.066406"/>
      <use xlink:href="#DejaVuSans-6d" x="406.445312"/>
      <use xlink:href="#DejaVuSans-20" x="503.857422"/>
      <use xlink:href="#DejaVuSans-73" x="535.644531"/>
      <use xlink:href="#DejaVuSans-68" x="587.744141"/>
      <use xlink:href="#DejaVuSans-61" x="651.123047"/>
      <use xlink:href="#DejaVuSans-72" x="712.402344"/>
      <use xlink:href="#DejaVuSans-65" x="751.265625"/>
      <use xlink:href="#DejaVuSans-64" x="812.789062"/>
     </g>
    </g>
   </g>
  </g>
 </g>
 <defs>
  <clipPath id="pf051423552">
   <rect x="44.474375" y="7.2" width="446.4" height="443.52"/>
  </clipPath>
 </defs>
</svg>
