<?xml version="1.0" encoding="utf-8" standalone="no"?>
<!DOCTYPE svg PUBLIC "-//W3C//DTD SVG 1.1//EN"
  "http://www.w3.org/Graphics/SVG/1.1/DTD/svg11.dtd">
<svg xmlns:xlink="http://www.w3.org/1999/xlink" width="507.615pt" height="492.1475pt" viewBox="0 0 507.615 492.1475" xmlns="http://www.w3.org/2000/svg" version="1.1">
 <metadata>
  <rdf:RDF xmlns:dc="http://purl.org/dc/elements/1.1/" xmlns:cc="http://creativecommons.org/ns#" xmlns:rdf="http://www.w3.org/1999/02/22-rdf-syntax-ns#">
   <cc:Work>
    <dc:type rdf:resource="http://purl.org/dc/dcmitype/StillImage"/>
    <dc:date>2024-10-22T15:47:47.844380</dc:date>
    <dc:format>image/svg+xml</dc:format>
    <dc:creator>
     <cc:Agent>
      <dc:title>Matplotlib v3.6.3, https://matplotlib.org/</dc:title>
     </cc:Agent>
    </dc:creator>
   </cc:Work>
  </rdf:RDF>
 </metadata>
 <defs>
  <style type="text/css">*{stroke-linejoin: round; stroke-linecap: butt}</style>
 </defs>
 <g id="figure_1">
  <g id="patch_1">
   <path d="M 0 492.1475 
L 507.615 492.1475 
L 507.615 0 
L 0 0 
z
" style="fill: #ffffff"/>
  </g>
  <g id="axes_1">
   <g id="patch_2">
    <path d="M 54.015 450.72 
L 500.415 450.72 
L 500.415 7.2 
L 54.015 7.2 
z
" style="fill: #ffffff"/>
   </g>
   <g id="matplotlib.axis_1">
    <g id="xtick_1">
     <g id="line2d_1">
      <path d="M 114.887727 450.72 
L 114.887727 7.2 
" clip-path="url(#p61fb852a76)" style="fill: none; stroke: #b0b0b0; stroke-width: 0.8; stroke-linecap: square"/>
     </g>
     <g id="line2d_2">
      <defs>
       <path id="m78160a56b1" d="M 0 0 
L 0 3.5 
" style="stroke: #000000; stroke-width: 0.8"/>
      </defs>
      <g>
       <use xlink:href="#m78160a56b1" x="114.887727" y="450.72" style="stroke: #000000; stroke-width: 0.8"/>
      </g>
     </g>
     <g id="text_1">
      <!-- 160 -->
      <g transform="translate(105.343977 465.318438) scale(0.1 -0.1)">
       <defs>
        <path id="DejaVuSans-31" d="M 794 531 
L 1825 531 
L 1825 4091 
L 703 3866 
L 703 4441 
L 1819 4666 
L 2450 4666 
L 2450 531 
L 3481 531 
L 3481 0 
L 794 0 
L 794 531 
z
" transform="scale(0.015625)"/>
        <path id="DejaVuSans-36" d="M 2113 2584 
Q 1688 2584 1439 2293 
Q 1191 2003 1191 1497 
Q 1191 994 1439 701 
Q 1688 409 2113 409 
Q 2538 409 2786 701 
Q 3034 994 3034 1497 
Q 3034 2003 2786 2293 
Q 2538 2584 2113 2584 
z
M 3366 4563 
L 3366 3988 
Q 3128 4100 2886 4159 
Q 2644 4219 2406 4219 
Q 1781 4219 1451 3797 
Q 1122 3375 1075 2522 
Q 1259 2794 1537 2939 
Q 1816 3084 2150 3084 
Q 2853 3084 3261 2657 
Q 3669 2231 3669 1497 
Q 3669 778 3244 343 
Q 2819 -91 2113 -91 
Q 1303 -91 875 529 
Q 447 1150 447 2328 
Q 447 3434 972 4092 
Q 1497 4750 2381 4750 
Q 2619 4750 2861 4703 
Q 3103 4656 3366 4563 
z
" transform="scale(0.015625)"/>
        <path id="DejaVuSans-30" d="M 2034 4250 
Q 1547 4250 1301 3770 
Q 1056 3291 1056 2328 
Q 1056 1369 1301 889 
Q 1547 409 2034 409 
Q 2525 409 2770 889 
Q 3016 1369 3016 2328 
Q 3016 3291 2770 3770 
Q 2525 4250 2034 4250 
z
M 2034 4750 
Q 2819 4750 3233 4129 
Q 3647 3509 3647 2328 
Q 3647 1150 3233 529 
Q 2819 -91 2034 -91 
Q 1250 -91 836 529 
Q 422 1150 422 2328 
Q 422 3509 836 4129 
Q 1250 4750 2034 4750 
z
" transform="scale(0.015625)"/>
       </defs>
       <use xlink:href="#DejaVuSans-31"/>
       <use xlink:href="#DejaVuSans-36" x="63.623047"/>
       <use xlink:href="#DejaVuSans-30" x="127.246094"/>
      </g>
     </g>
    </g>
    <g id="xtick_2">
     <g id="line2d_3">
      <path d="M 196.051364 450.72 
L 196.051364 7.2 
" clip-path="url(#p61fb852a76)" style="fill: none; stroke: #b0b0b0; stroke-width: 0.8; stroke-linecap: square"/>
     </g>
     <g id="line2d_4">
      <g>
       <use xlink:href="#m78160a56b1" x="196.051364" y="450.72" style="stroke: #000000; stroke-width: 0.8"/>
      </g>
     </g>
     <g id="text_2">
      <!-- 180 -->
      <g transform="translate(186.507614 465.318438) scale(0.1 -0.1)">
       <defs>
        <path id="DejaVuSans-38" d="M 2034 2216 
Q 1584 2216 1326 1975 
Q 1069 1734 1069 1313 
Q 1069 891 1326 650 
Q 1584 409 2034 409 
Q 2484 409 2743 651 
Q 3003 894 3003 1313 
Q 3003 1734 2745 1975 
Q 2488 2216 2034 2216 
z
M 1403 2484 
Q 997 2584 770 2862 
Q 544 3141 544 3541 
Q 544 4100 942 4425 
Q 1341 4750 2034 4750 
Q 2731 4750 3128 4425 
Q 3525 4100 3525 3541 
Q 3525 3141 3298 2862 
Q 3072 2584 2669 2484 
Q 3125 2378 3379 2068 
Q 3634 1759 3634 1313 
Q 3634 634 3220 271 
Q 2806 -91 2034 -91 
Q 1263 -91 848 271 
Q 434 634 434 1313 
Q 434 1759 690 2068 
Q 947 2378 1403 2484 
z
M 1172 3481 
Q 1172 3119 1398 2916 
Q 1625 2713 2034 2713 
Q 2441 2713 2670 2916 
Q 2900 3119 2900 3481 
Q 2900 3844 2670 4047 
Q 2441 4250 2034 4250 
Q 1625 4250 1398 4047 
Q 1172 3844 1172 3481 
z
" transform="scale(0.015625)"/>
       </defs>
       <use xlink:href="#DejaVuSans-31"/>
       <use xlink:href="#DejaVuSans-38" x="63.623047"/>
       <use xlink:href="#DejaVuSans-30" x="127.246094"/>
      </g>
     </g>
    </g>
    <g id="xtick_3">
     <g id="line2d_5">
      <path d="M 277.215 450.72 
L 277.215 7.2 
" clip-path="url(#p61fb852a76)" style="fill: none; stroke: #b0b0b0; stroke-width: 0.8; stroke-linecap: square"/>
     </g>
     <g id="line2d_6">
      <g>
       <use xlink:href="#m78160a56b1" x="277.215" y="450.72" style="stroke: #000000; stroke-width: 0.8"/>
      </g>
     </g>
     <g id="text_3">
      <!-- 200 -->
      <g transform="translate(267.67125 465.318438) scale(0.1 -0.1)">
       <defs>
        <path id="DejaVuSans-32" d="M 1228 531 
L 3431 531 
L 3431 0 
L 469 0 
L 469 531 
Q 828 903 1448 1529 
Q 2069 2156 2228 2338 
Q 2531 2678 2651 2914 
Q 2772 3150 2772 3378 
Q 2772 3750 2511 3984 
Q 2250 4219 1831 4219 
Q 1534 4219 1204 4116 
Q 875 4013 500 3803 
L 500 4441 
Q 881 4594 1212 4672 
Q 1544 4750 1819 4750 
Q 2544 4750 2975 4387 
Q 3406 4025 3406 3419 
Q 3406 3131 3298 2873 
Q 3191 2616 2906 2266 
Q 2828 2175 2409 1742 
Q 1991 1309 1228 531 
z
" transform="scale(0.015625)"/>
       </defs>
       <use xlink:href="#DejaVuSans-32"/>
       <use xlink:href="#DejaVuSans-30" x="63.623047"/>
       <use xlink:href="#DejaVuSans-30" x="127.246094"/>
      </g>
     </g>
    </g>
    <g id="xtick_4">
     <g id="line2d_7">
      <path d="M 358.378636 450.72 
L 358.378636 7.2 
" clip-path="url(#p61fb852a76)" style="fill: none; stroke: #b0b0b0; stroke-width: 0.8; stroke-linecap: square"/>
     </g>
     <g id="line2d_8">
      <g>
       <use xlink:href="#m78160a56b1" x="358.378636" y="450.72" style="stroke: #000000; stroke-width: 0.8"/>
      </g>
     </g>
     <g id="text_4">
      <!-- 220 -->
      <g transform="translate(348.834886 465.318438) scale(0.1 -0.1)">
       <use xlink:href="#DejaVuSans-32"/>
       <use xlink:href="#DejaVuSans-32" x="63.623047"/>
       <use xlink:href="#DejaVuSans-30" x="127.246094"/>
      </g>
     </g>
    </g>
    <g id="xtick_5">
     <g id="line2d_9">
      <path d="M 439.542273 450.72 
L 439.542273 7.2 
" clip-path="url(#p61fb852a76)" style="fill: none; stroke: #b0b0b0; stroke-width: 0.8; stroke-linecap: square"/>
     </g>
     <g id="line2d_10">
      <g>
       <use xlink:href="#m78160a56b1" x="439.542273" y="450.72" style="stroke: #000000; stroke-width: 0.8"/>
      </g>
     </g>
     <g id="text_5">
      <!-- 240 -->
      <g transform="translate(429.998523 465.318438) scale(0.1 -0.1)">
       <defs>
        <path id="DejaVuSans-34" d="M 2419 4116 
L 825 1625 
L 2419 1625 
L 2419 4116 
z
M 2253 4666 
L 3047 4666 
L 3047 1625 
L 3713 1625 
L 3713 1100 
L 3047 1100 
L 3047 0 
L 2419 0 
L 2419 1100 
L 313 1100 
L 313 1709 
L 2253 4666 
z
" transform="scale(0.015625)"/>
       </defs>
       <use xlink:href="#DejaVuSans-32"/>
       <use xlink:href="#DejaVuSans-34" x="63.623047"/>
       <use xlink:href="#DejaVuSans-30" x="127.246094"/>
      </g>
     </g>
    </g>
    <g id="text_6">
     <!-- Average Flow Number -->
     <g transform="translate(199.920781 482.035938) scale(0.14 -0.14)">
      <defs>
       <path id="DejaVuSans-41" d="M 2188 4044 
L 1331 1722 
L 3047 1722 
L 2188 4044 
z
M 1831 4666 
L 2547 4666 
L 4325 0 
L 3669 0 
L 3244 1197 
L 1141 1197 
L 716 0 
L 50 0 
L 1831 4666 
z
" transform="scale(0.015625)"/>
       <path id="DejaVuSans-76" d="M 191 3500 
L 800 3500 
L 1894 563 
L 2988 3500 
L 3597 3500 
L 2284 0 
L 1503 0 
L 191 3500 
z
" transform="scale(0.015625)"/>
       <path id="DejaVuSans-65" d="M 3597 1894 
L 3597 1613 
L 953 1613 
Q 991 1019 1311 708 
Q 1631 397 2203 397 
Q 2534 397 2845 478 
Q 3156 559 3463 722 
L 3463 178 
Q 3153 47 2828 -22 
Q 2503 -91 2169 -91 
Q 1331 -91 842 396 
Q 353 884 353 1716 
Q 353 2575 817 3079 
Q 1281 3584 2069 3584 
Q 2775 3584 3186 3129 
Q 3597 2675 3597 1894 
z
M 3022 2063 
Q 3016 2534 2758 2815 
Q 2500 3097 2075 3097 
Q 1594 3097 1305 2825 
Q 1016 2553 972 2059 
L 3022 2063 
z
" transform="scale(0.015625)"/>
       <path id="DejaVuSans-72" d="M 2631 2963 
Q 2534 3019 2420 3045 
Q 2306 3072 2169 3072 
Q 1681 3072 1420 2755 
Q 1159 2438 1159 1844 
L 1159 0 
L 581 0 
L 581 3500 
L 1159 3500 
L 1159 2956 
Q 1341 3275 1631 3429 
Q 1922 3584 2338 3584 
Q 2397 3584 2469 3576 
Q 2541 3569 2628 3553 
L 2631 2963 
z
" transform="scale(0.015625)"/>
       <path id="DejaVuSans-61" d="M 2194 1759 
Q 1497 1759 1228 1600 
Q 959 1441 959 1056 
Q 959 750 1161 570 
Q 1363 391 1709 391 
Q 2188 391 2477 730 
Q 2766 1069 2766 1631 
L 2766 1759 
L 2194 1759 
z
M 3341 1997 
L 3341 0 
L 2766 0 
L 2766 531 
Q 2569 213 2275 61 
Q 1981 -91 1556 -91 
Q 1019 -91 701 211 
Q 384 513 384 1019 
Q 384 1609 779 1909 
Q 1175 2209 1959 2209 
L 2766 2209 
L 2766 2266 
Q 2766 2663 2505 2880 
Q 2244 3097 1772 3097 
Q 1472 3097 1187 3025 
Q 903 2953 641 2809 
L 641 3341 
Q 956 3463 1253 3523 
Q 1550 3584 1831 3584 
Q 2591 3584 2966 3190 
Q 3341 2797 3341 1997 
z
" transform="scale(0.015625)"/>
       <path id="DejaVuSans-67" d="M 2906 1791 
Q 2906 2416 2648 2759 
Q 2391 3103 1925 3103 
Q 1463 3103 1205 2759 
Q 947 2416 947 1791 
Q 947 1169 1205 825 
Q 1463 481 1925 481 
Q 2391 481 2648 825 
Q 2906 1169 2906 1791 
z
M 3481 434 
Q 3481 -459 3084 -895 
Q 2688 -1331 1869 -1331 
Q 1566 -1331 1297 -1286 
Q 1028 -1241 775 -1147 
L 775 -588 
Q 1028 -725 1275 -790 
Q 1522 -856 1778 -856 
Q 2344 -856 2625 -561 
Q 2906 -266 2906 331 
L 2906 616 
Q 2728 306 2450 153 
Q 2172 0 1784 0 
Q 1141 0 747 490 
Q 353 981 353 1791 
Q 353 2603 747 3093 
Q 1141 3584 1784 3584 
Q 2172 3584 2450 3431 
Q 2728 3278 2906 2969 
L 2906 3500 
L 3481 3500 
L 3481 434 
z
" transform="scale(0.015625)"/>
       <path id="DejaVuSans-20" transform="scale(0.015625)"/>
       <path id="DejaVuSans-46" d="M 628 4666 
L 3309 4666 
L 3309 4134 
L 1259 4134 
L 1259 2759 
L 3109 2759 
L 3109 2228 
L 1259 2228 
L 1259 0 
L 628 0 
L 628 4666 
z
" transform="scale(0.015625)"/>
       <path id="DejaVuSans-6c" d="M 603 4863 
L 1178 4863 
L 1178 0 
L 603 0 
L 603 4863 
z
" transform="scale(0.015625)"/>
       <path id="DejaVuSans-6f" d="M 1959 3097 
Q 1497 3097 1228 2736 
Q 959 2375 959 1747 
Q 959 1119 1226 758 
Q 1494 397 1959 397 
Q 2419 397 2687 759 
Q 2956 1122 2956 1747 
Q 2956 2369 2687 2733 
Q 2419 3097 1959 3097 
z
M 1959 3584 
Q 2709 3584 3137 3096 
Q 3566 2609 3566 1747 
Q 3566 888 3137 398 
Q 2709 -91 1959 -91 
Q 1206 -91 779 398 
Q 353 888 353 1747 
Q 353 2609 779 3096 
Q 1206 3584 1959 3584 
z
" transform="scale(0.015625)"/>
       <path id="DejaVuSans-77" d="M 269 3500 
L 844 3500 
L 1563 769 
L 2278 3500 
L 2956 3500 
L 3675 769 
L 4391 3500 
L 4966 3500 
L 4050 0 
L 3372 0 
L 2619 2869 
L 1863 0 
L 1184 0 
L 269 3500 
z
" transform="scale(0.015625)"/>
       <path id="DejaVuSans-4e" d="M 628 4666 
L 1478 4666 
L 3547 763 
L 3547 4666 
L 4159 4666 
L 4159 0 
L 3309 0 
L 1241 3903 
L 1241 0 
L 628 0 
L 628 4666 
z
" transform="scale(0.015625)"/>
       <path id="DejaVuSans-75" d="M 544 1381 
L 544 3500 
L 1119 3500 
L 1119 1403 
Q 1119 906 1312 657 
Q 1506 409 1894 409 
Q 2359 409 2629 706 
Q 2900 1003 2900 1516 
L 2900 3500 
L 3475 3500 
L 3475 0 
L 2900 0 
L 2900 538 
Q 2691 219 2414 64 
Q 2138 -91 1772 -91 
Q 1169 -91 856 284 
Q 544 659 544 1381 
z
M 1991 3584 
L 1991 3584 
z
" transform="scale(0.015625)"/>
       <path id="DejaVuSans-6d" d="M 3328 2828 
Q 3544 3216 3844 3400 
Q 4144 3584 4550 3584 
Q 5097 3584 5394 3201 
Q 5691 2819 5691 2113 
L 5691 0 
L 5113 0 
L 5113 2094 
Q 5113 2597 4934 2840 
Q 4756 3084 4391 3084 
Q 3944 3084 3684 2787 
Q 3425 2491 3425 1978 
L 3425 0 
L 2847 0 
L 2847 2094 
Q 2847 2600 2669 2842 
Q 2491 3084 2119 3084 
Q 1678 3084 1418 2786 
Q 1159 2488 1159 1978 
L 1159 0 
L 581 0 
L 581 3500 
L 1159 3500 
L 1159 2956 
Q 1356 3278 1631 3431 
Q 1906 3584 2284 3584 
Q 2666 3584 2933 3390 
Q 3200 3197 3328 2828 
z
" transform="scale(0.015625)"/>
       <path id="DejaVuSans-62" d="M 3116 1747 
Q 3116 2381 2855 2742 
Q 2594 3103 2138 3103 
Q 1681 3103 1420 2742 
Q 1159 2381 1159 1747 
Q 1159 1113 1420 752 
Q 1681 391 2138 391 
Q 2594 391 2855 752 
Q 3116 1113 3116 1747 
z
M 1159 2969 
Q 1341 3281 1617 3432 
Q 1894 3584 2278 3584 
Q 2916 3584 3314 3078 
Q 3713 2572 3713 1747 
Q 3713 922 3314 415 
Q 2916 -91 2278 -91 
Q 1894 -91 1617 61 
Q 1341 213 1159 525 
L 1159 0 
L 581 0 
L 581 4863 
L 1159 4863 
L 1159 2969 
z
" transform="scale(0.015625)"/>
      </defs>
      <use xlink:href="#DejaVuSans-41"/>
      <use xlink:href="#DejaVuSans-76" x="62.533203"/>
      <use xlink:href="#DejaVuSans-65" x="121.712891"/>
      <use xlink:href="#DejaVuSans-72" x="183.236328"/>
      <use xlink:href="#DejaVuSans-61" x="224.349609"/>
      <use xlink:href="#DejaVuSans-67" x="285.628906"/>
      <use xlink:href="#DejaVuSans-65" x="349.105469"/>
      <use xlink:href="#DejaVuSans-20" x="410.628906"/>
      <use xlink:href="#DejaVuSans-46" x="442.416016"/>
      <use xlink:href="#DejaVuSans-6c" x="499.935547"/>
      <use xlink:href="#DejaVuSans-6f" x="527.71875"/>
      <use xlink:href="#DejaVuSans-77" x="588.900391"/>
      <use xlink:href="#DejaVuSans-20" x="670.6875"/>
      <use xlink:href="#DejaVuSans-4e" x="702.474609"/>
      <use xlink:href="#DejaVuSans-75" x="777.279297"/>
      <use xlink:href="#DejaVuSans-6d" x="840.658203"/>
      <use xlink:href="#DejaVuSans-62" x="938.070312"/>
      <use xlink:href="#DejaVuSans-65" x="1001.546875"/>
      <use xlink:href="#DejaVuSans-72" x="1063.070312"/>
     </g>
    </g>
   </g>
   <g id="matplotlib.axis_2">
    <g id="ytick_1">
     <g id="line2d_11">
      <path d="M 54.015 406.346451 
L 500.415 406.346451 
" clip-path="url(#p61fb852a76)" style="fill: none; stroke: #b0b0b0; stroke-width: 0.8; stroke-linecap: square"/>
     </g>
     <g id="line2d_12">
      <defs>
       <path id="m315c84ba39" d="M 0 0 
L -3.5 0 
" style="stroke: #000000; stroke-width: 0.8"/>
      </defs>
      <g>
       <use xlink:href="#m315c84ba39" x="54.015" y="406.346451" style="stroke: #000000; stroke-width: 0.8"/>
      </g>
     </g>
     <g id="text_7">
      <!-- 0.30 -->
      <g transform="translate(24.749375 410.14567) scale(0.1 -0.1)">
       <defs>
        <path id="DejaVuSans-2e" d="M 684 794 
L 1344 794 
L 1344 0 
L 684 0 
L 684 794 
z
" transform="scale(0.015625)"/>
        <path id="DejaVuSans-33" d="M 2597 2516 
Q 3050 2419 3304 2112 
Q 3559 1806 3559 1356 
Q 3559 666 3084 287 
Q 2609 -91 1734 -91 
Q 1441 -91 1130 -33 
Q 819 25 488 141 
L 488 750 
Q 750 597 1062 519 
Q 1375 441 1716 441 
Q 2309 441 2620 675 
Q 2931 909 2931 1356 
Q 2931 1769 2642 2001 
Q 2353 2234 1838 2234 
L 1294 2234 
L 1294 2753 
L 1863 2753 
Q 2328 2753 2575 2939 
Q 2822 3125 2822 3475 
Q 2822 3834 2567 4026 
Q 2313 4219 1838 4219 
Q 1578 4219 1281 4162 
Q 984 4106 628 3988 
L 628 4550 
Q 988 4650 1302 4700 
Q 1616 4750 1894 4750 
Q 2613 4750 3031 4423 
Q 3450 4097 3450 3541 
Q 3450 3153 3228 2886 
Q 3006 2619 2597 2516 
z
" transform="scale(0.015625)"/>
       </defs>
       <use xlink:href="#DejaVuSans-30"/>
       <use xlink:href="#DejaVuSans-2e" x="63.623047"/>
       <use xlink:href="#DejaVuSans-33" x="95.410156"/>
       <use xlink:href="#DejaVuSans-30" x="159.033203"/>
      </g>
     </g>
    </g>
    <g id="ytick_2">
     <g id="line2d_13">
      <path d="M 54.015 313.032069 
L 500.415 313.032069 
" clip-path="url(#p61fb852a76)" style="fill: none; stroke: #b0b0b0; stroke-width: 0.8; stroke-linecap: square"/>
     </g>
     <g id="line2d_14">
      <g>
       <use xlink:href="#m315c84ba39" x="54.015" y="313.032069" style="stroke: #000000; stroke-width: 0.8"/>
      </g>
     </g>
     <g id="text_8">
      <!-- 0.35 -->
      <g transform="translate(24.749375 316.831287) scale(0.1 -0.1)">
       <defs>
        <path id="DejaVuSans-35" d="M 691 4666 
L 3169 4666 
L 3169 4134 
L 1269 4134 
L 1269 2991 
Q 1406 3038 1543 3061 
Q 1681 3084 1819 3084 
Q 2600 3084 3056 2656 
Q 3513 2228 3513 1497 
Q 3513 744 3044 326 
Q 2575 -91 1722 -91 
Q 1428 -91 1123 -41 
Q 819 9 494 109 
L 494 744 
Q 775 591 1075 516 
Q 1375 441 1709 441 
Q 2250 441 2565 725 
Q 2881 1009 2881 1497 
Q 2881 1984 2565 2268 
Q 2250 2553 1709 2553 
Q 1456 2553 1204 2497 
Q 953 2441 691 2322 
L 691 4666 
z
" transform="scale(0.015625)"/>
       </defs>
       <use xlink:href="#DejaVuSans-30"/>
       <use xlink:href="#DejaVuSans-2e" x="63.623047"/>
       <use xlink:href="#DejaVuSans-33" x="95.410156"/>
       <use xlink:href="#DejaVuSans-35" x="159.033203"/>
      </g>
     </g>
    </g>
    <g id="ytick_3">
     <g id="line2d_15">
      <path d="M 54.015 219.717686 
L 500.415 219.717686 
" clip-path="url(#p61fb852a76)" style="fill: none; stroke: #b0b0b0; stroke-width: 0.8; stroke-linecap: square"/>
     </g>
     <g id="line2d_16">
      <g>
       <use xlink:href="#m315c84ba39" x="54.015" y="219.717686" style="stroke: #000000; stroke-width: 0.8"/>
      </g>
     </g>
     <g id="text_9">
      <!-- 0.40 -->
      <g transform="translate(24.749375 223.516905) scale(0.1 -0.1)">
       <use xlink:href="#DejaVuSans-30"/>
       <use xlink:href="#DejaVuSans-2e" x="63.623047"/>
       <use xlink:href="#DejaVuSans-34" x="95.410156"/>
       <use xlink:href="#DejaVuSans-30" x="159.033203"/>
      </g>
     </g>
    </g>
    <g id="ytick_4">
     <g id="line2d_17">
      <path d="M 54.015 126.403304 
L 500.415 126.403304 
" clip-path="url(#p61fb852a76)" style="fill: none; stroke: #b0b0b0; stroke-width: 0.8; stroke-linecap: square"/>
     </g>
     <g id="line2d_18">
      <g>
       <use xlink:href="#m315c84ba39" x="54.015" y="126.403304" style="stroke: #000000; stroke-width: 0.8"/>
      </g>
     </g>
     <g id="text_10">
      <!-- 0.45 -->
      <g transform="translate(24.749375 130.202523) scale(0.1 -0.1)">
       <use xlink:href="#DejaVuSans-30"/>
       <use xlink:href="#DejaVuSans-2e" x="63.623047"/>
       <use xlink:href="#DejaVuSans-34" x="95.410156"/>
       <use xlink:href="#DejaVuSans-35" x="159.033203"/>
      </g>
     </g>
    </g>
    <g id="ytick_5">
     <g id="line2d_19">
      <path d="M 54.015 33.088922 
L 500.415 33.088922 
" clip-path="url(#p61fb852a76)" style="fill: none; stroke: #b0b0b0; stroke-width: 0.8; stroke-linecap: square"/>
     </g>
     <g id="line2d_20">
      <g>
       <use xlink:href="#m315c84ba39" x="54.015" y="33.088922" style="stroke: #000000; stroke-width: 0.8"/>
      </g>
     </g>
     <g id="text_11">
      <!-- 0.50 -->
      <g transform="translate(24.749375 36.888141) scale(0.1 -0.1)">
       <use xlink:href="#DejaVuSans-30"/>
       <use xlink:href="#DejaVuSans-2e" x="63.623047"/>
       <use xlink:href="#DejaVuSans-35" x="95.410156"/>
       <use xlink:href="#DejaVuSans-30" x="159.033203"/>
      </g>
     </g>
    </g>
    <g id="text_12">
     <!-- Link Usage(%) -->
     <g transform="translate(17.837813 279.443125) rotate(-90) scale(0.14 -0.14)">
      <defs>
       <path id="DejaVuSans-4c" d="M 628 4666 
L 1259 4666 
L 1259 531 
L 3531 531 
L 3531 0 
L 628 0 
L 628 4666 
z
" transform="scale(0.015625)"/>
       <path id="DejaVuSans-69" d="M 603 3500 
L 1178 3500 
L 1178 0 
L 603 0 
L 603 3500 
z
M 603 4863 
L 1178 4863 
L 1178 4134 
L 603 4134 
L 603 4863 
z
" transform="scale(0.015625)"/>
       <path id="DejaVuSans-6e" d="M 3513 2113 
L 3513 0 
L 2938 0 
L 2938 2094 
Q 2938 2591 2744 2837 
Q 2550 3084 2163 3084 
Q 1697 3084 1428 2787 
Q 1159 2491 1159 1978 
L 1159 0 
L 581 0 
L 581 3500 
L 1159 3500 
L 1159 2956 
Q 1366 3272 1645 3428 
Q 1925 3584 2291 3584 
Q 2894 3584 3203 3211 
Q 3513 2838 3513 2113 
z
" transform="scale(0.015625)"/>
       <path id="DejaVuSans-6b" d="M 581 4863 
L 1159 4863 
L 1159 1991 
L 2875 3500 
L 3609 3500 
L 1753 1863 
L 3688 0 
L 2938 0 
L 1159 1709 
L 1159 0 
L 581 0 
L 581 4863 
z
" transform="scale(0.015625)"/>
       <path id="DejaVuSans-55" d="M 556 4666 
L 1191 4666 
L 1191 1831 
Q 1191 1081 1462 751 
Q 1734 422 2344 422 
Q 2950 422 3222 751 
Q 3494 1081 3494 1831 
L 3494 4666 
L 4128 4666 
L 4128 1753 
Q 4128 841 3676 375 
Q 3225 -91 2344 -91 
Q 1459 -91 1007 375 
Q 556 841 556 1753 
L 556 4666 
z
" transform="scale(0.015625)"/>
       <path id="DejaVuSans-73" d="M 2834 3397 
L 2834 2853 
Q 2591 2978 2328 3040 
Q 2066 3103 1784 3103 
Q 1356 3103 1142 2972 
Q 928 2841 928 2578 
Q 928 2378 1081 2264 
Q 1234 2150 1697 2047 
L 1894 2003 
Q 2506 1872 2764 1633 
Q 3022 1394 3022 966 
Q 3022 478 2636 193 
Q 2250 -91 1575 -91 
Q 1294 -91 989 -36 
Q 684 19 347 128 
L 347 722 
Q 666 556 975 473 
Q 1284 391 1588 391 
Q 1994 391 2212 530 
Q 2431 669 2431 922 
Q 2431 1156 2273 1281 
Q 2116 1406 1581 1522 
L 1381 1569 
Q 847 1681 609 1914 
Q 372 2147 372 2553 
Q 372 3047 722 3315 
Q 1072 3584 1716 3584 
Q 2034 3584 2315 3537 
Q 2597 3491 2834 3397 
z
" transform="scale(0.015625)"/>
       <path id="DejaVuSans-28" d="M 1984 4856 
Q 1566 4138 1362 3434 
Q 1159 2731 1159 2009 
Q 1159 1288 1364 580 
Q 1569 -128 1984 -844 
L 1484 -844 
Q 1016 -109 783 600 
Q 550 1309 550 2009 
Q 550 2706 781 3412 
Q 1013 4119 1484 4856 
L 1984 4856 
z
" transform="scale(0.015625)"/>
       <path id="DejaVuSans-25" d="M 4653 2053 
Q 4381 2053 4226 1822 
Q 4072 1591 4072 1178 
Q 4072 772 4226 539 
Q 4381 306 4653 306 
Q 4919 306 5073 539 
Q 5228 772 5228 1178 
Q 5228 1588 5073 1820 
Q 4919 2053 4653 2053 
z
M 4653 2450 
Q 5147 2450 5437 2106 
Q 5728 1763 5728 1178 
Q 5728 594 5436 251 
Q 5144 -91 4653 -91 
Q 4153 -91 3862 251 
Q 3572 594 3572 1178 
Q 3572 1766 3864 2108 
Q 4156 2450 4653 2450 
z
M 1428 4353 
Q 1159 4353 1004 4120 
Q 850 3888 850 3481 
Q 850 3069 1003 2837 
Q 1156 2606 1428 2606 
Q 1700 2606 1854 2837 
Q 2009 3069 2009 3481 
Q 2009 3884 1853 4118 
Q 1697 4353 1428 4353 
z
M 4250 4750 
L 4750 4750 
L 1831 -91 
L 1331 -91 
L 4250 4750 
z
M 1428 4750 
Q 1922 4750 2215 4408 
Q 2509 4066 2509 3481 
Q 2509 2891 2217 2550 
Q 1925 2209 1428 2209 
Q 931 2209 642 2551 
Q 353 2894 353 3481 
Q 353 4063 643 4406 
Q 934 4750 1428 4750 
z
" transform="scale(0.015625)"/>
       <path id="DejaVuSans-29" d="M 513 4856 
L 1013 4856 
Q 1481 4119 1714 3412 
Q 1947 2706 1947 2009 
Q 1947 1309 1714 600 
Q 1481 -109 1013 -844 
L 513 -844 
Q 928 -128 1133 580 
Q 1338 1288 1338 2009 
Q 1338 2731 1133 3434 
Q 928 4138 513 4856 
z
" transform="scale(0.015625)"/>
      </defs>
      <use xlink:href="#DejaVuSans-4c"/>
      <use xlink:href="#DejaVuSans-69" x="55.712891"/>
      <use xlink:href="#DejaVuSans-6e" x="83.496094"/>
      <use xlink:href="#DejaVuSans-6b" x="146.875"/>
      <use xlink:href="#DejaVuSans-20" x="204.785156"/>
      <use xlink:href="#DejaVuSans-55" x="236.572266"/>
      <use xlink:href="#DejaVuSans-73" x="309.765625"/>
      <use xlink:href="#DejaVuSans-61" x="361.865234"/>
      <use xlink:href="#DejaVuSans-67" x="423.144531"/>
      <use xlink:href="#DejaVuSans-65" x="486.621094"/>
      <use xlink:href="#DejaVuSans-28" x="548.144531"/>
      <use xlink:href="#DejaVuSans-25" x="587.158203"/>
      <use xlink:href="#DejaVuSans-29" x="682.177734"/>
     </g>
    </g>
   </g>
   <g id="LineCollection_1">
    <path d="M 74.305909 347.986026 
L 74.305909 331.636882 
" clip-path="url(#p61fb852a76)" style="fill: none; stroke: #1f77b4; stroke-width: 1.5"/>
    <path d="M 114.887727 312.47367 
L 114.887727 303.405281 
" clip-path="url(#p61fb852a76)" style="fill: none; stroke: #1f77b4; stroke-width: 1.5"/>
    <path d="M 155.469545 282.701713 
L 155.469545 262.170097 
" clip-path="url(#p61fb852a76)" style="fill: none; stroke: #1f77b4; stroke-width: 1.5"/>
    <path d="M 196.051364 248.487483 
L 196.051364 242.431764 
" clip-path="url(#p61fb852a76)" style="fill: none; stroke: #1f77b4; stroke-width: 1.5"/>
    <path d="M 236.633182 219.646584 
L 236.633182 198.308624 
" clip-path="url(#p61fb852a76)" style="fill: none; stroke: #1f77b4; stroke-width: 1.5"/>
    <path d="M 277.215 194.10594 
L 277.215 178.561821 
" clip-path="url(#p61fb852a76)" style="fill: none; stroke: #1f77b4; stroke-width: 1.5"/>
    <path d="M 317.796818 161.950682 
L 317.796818 142.054702 
" clip-path="url(#p61fb852a76)" style="fill: none; stroke: #1f77b4; stroke-width: 1.5"/>
    <path d="M 358.378636 125.972654 
L 358.378636 113.861956 
" clip-path="url(#p61fb852a76)" style="fill: none; stroke: #1f77b4; stroke-width: 1.5"/>
    <path d="M 398.960455 103.744456 
L 398.960455 89.118125 
" clip-path="url(#p61fb852a76)" style="fill: none; stroke: #1f77b4; stroke-width: 1.5"/>
    <path d="M 439.542273 76.803177 
L 439.542273 56.876621 
" clip-path="url(#p61fb852a76)" style="fill: none; stroke: #1f77b4; stroke-width: 1.5"/>
    <path d="M 480.124091 60.970889 
L 480.124091 38.950154 
" clip-path="url(#p61fb852a76)" style="fill: none; stroke: #1f77b4; stroke-width: 1.5"/>
   </g>
   <g id="line2d_21">
    <defs>
     <path id="m775332b457" d="M 5 0 
L -5 -0 
" style="stroke: #1f77b4"/>
    </defs>
    <g clip-path="url(#p61fb852a76)">
     <use xlink:href="#m775332b457" x="74.305909" y="347.986026" style="fill: #1f77b4; stroke: #1f77b4"/>
     <use xlink:href="#m775332b457" x="114.887727" y="312.47367" style="fill: #1f77b4; stroke: #1f77b4"/>
     <use xlink:href="#m775332b457" x="155.469545" y="282.701713" style="fill: #1f77b4; stroke: #1f77b4"/>
     <use xlink:href="#m775332b457" x="196.051364" y="248.487483" style="fill: #1f77b4; stroke: #1f77b4"/>
     <use xlink:href="#m775332b457" x="236.633182" y="219.646584" style="fill: #1f77b4; stroke: #1f77b4"/>
     <use xlink:href="#m775332b457" x="277.215" y="194.10594" style="fill: #1f77b4; stroke: #1f77b4"/>
     <use xlink:href="#m775332b457" x="317.796818" y="161.950682" style="fill: #1f77b4; stroke: #1f77b4"/>
     <use xlink:href="#m775332b457" x="358.378636" y="125.972654" style="fill: #1f77b4; stroke: #1f77b4"/>
     <use xlink:href="#m775332b457" x="398.960455" y="103.744456" style="fill: #1f77b4; stroke: #1f77b4"/>
     <use xlink:href="#m775332b457" x="439.542273" y="76.803177" style="fill: #1f77b4; stroke: #1f77b4"/>
     <use xlink:href="#m775332b457" x="480.124091" y="60.970889" style="fill: #1f77b4; stroke: #1f77b4"/>
    </g>
   </g>
   <g id="line2d_22">
    <g clip-path="url(#p61fb852a76)">
     <use xlink:href="#m775332b457" x="74.305909" y="331.636882" style="fill: #1f77b4; stroke: #1f77b4"/>
     <use xlink:href="#m775332b457" x="114.887727" y="303.405281" style="fill: #1f77b4; stroke: #1f77b4"/>
     <use xlink:href="#m775332b457" x="155.469545" y="262.170097" style="fill: #1f77b4; stroke: #1f77b4"/>
     <use xlink:href="#m775332b457" x="196.051364" y="242.431764" style="fill: #1f77b4; stroke: #1f77b4"/>
     <use xlink:href="#m775332b457" x="236.633182" y="198.308624" style="fill: #1f77b4; stroke: #1f77b4"/>
     <use xlink:href="#m775332b457" x="277.215" y="178.561821" style="fill: #1f77b4; stroke: #1f77b4"/>
     <use xlink:href="#m775332b457" x="317.796818" y="142.054702" style="fill: #1f77b4; stroke: #1f77b4"/>
     <use xlink:href="#m775332b457" x="358.378636" y="113.861956" style="fill: #1f77b4; stroke: #1f77b4"/>
     <use xlink:href="#m775332b457" x="398.960455" y="89.118125" style="fill: #1f77b4; stroke: #1f77b4"/>
     <use xlink:href="#m775332b457" x="439.542273" y="56.876621" style="fill: #1f77b4; stroke: #1f77b4"/>
     <use xlink:href="#m775332b457" x="480.124091" y="38.950154" style="fill: #1f77b4; stroke: #1f77b4"/>
    </g>
   </g>
   <g id="LineCollection_2">
    <path d="M 74.305909 352.56183 
L 74.305909 335.097096 
" clip-path="url(#p61fb852a76)" style="fill: none; stroke: #ff7f0e; stroke-width: 1.5"/>
    <path d="M 114.887727 320.54812 
L 114.887727 303.18615 
" clip-path="url(#p61fb852a76)" style="fill: none; stroke: #ff7f0e; stroke-width: 1.5"/>
    <path d="M 155.469545 289.893594 
L 155.469545 275.525324 
" clip-path="url(#p61fb852a76)" style="fill: none; stroke: #ff7f0e; stroke-width: 1.5"/>
    <path d="M 196.051364 258.220325 
L 196.051364 242.129367 
" clip-path="url(#p61fb852a76)" style="fill: none; stroke: #ff7f0e; stroke-width: 1.5"/>
    <path d="M 236.633182 226.292859 
L 236.633182 203.515943 
" clip-path="url(#p61fb852a76)" style="fill: none; stroke: #ff7f0e; stroke-width: 1.5"/>
    <path d="M 277.215 189.537313 
L 277.215 184.819309 
" clip-path="url(#p61fb852a76)" style="fill: none; stroke: #ff7f0e; stroke-width: 1.5"/>
    <path d="M 317.796818 162.776577 
L 317.796818 141.589658 
" clip-path="url(#p61fb852a76)" style="fill: none; stroke: #ff7f0e; stroke-width: 1.5"/>
    <path d="M 358.378636 133.839834 
L 358.378636 116.709536 
" clip-path="url(#p61fb852a76)" style="fill: none; stroke: #ff7f0e; stroke-width: 1.5"/>
    <path d="M 398.960455 113.987772 
L 398.960455 100.227831 
" clip-path="url(#p61fb852a76)" style="fill: none; stroke: #ff7f0e; stroke-width: 1.5"/>
    <path d="M 439.542273 74.023195 
L 439.542273 60.746136 
" clip-path="url(#p61fb852a76)" style="fill: none; stroke: #ff7f0e; stroke-width: 1.5"/>
    <path d="M 480.124091 64.264597 
L 480.124091 27.36 
" clip-path="url(#p61fb852a76)" style="fill: none; stroke: #ff7f0e; stroke-width: 1.5"/>
   </g>
   <g id="line2d_23">
    <defs>
     <path id="m8200cd4e96" d="M 5 0 
L -5 -0 
" style="stroke: #ff7f0e"/>
    </defs>
    <g clip-path="url(#p61fb852a76)">
     <use xlink:href="#m8200cd4e96" x="74.305909" y="352.56183" style="fill: #ff7f0e; stroke: #ff7f0e"/>
     <use xlink:href="#m8200cd4e96" x="114.887727" y="320.54812" style="fill: #ff7f0e; stroke: #ff7f0e"/>
     <use xlink:href="#m8200cd4e96" x="155.469545" y="289.893594" style="fill: #ff7f0e; stroke: #ff7f0e"/>
     <use xlink:href="#m8200cd4e96" x="196.051364" y="258.220325" style="fill: #ff7f0e; stroke: #ff7f0e"/>
     <use xlink:href="#m8200cd4e96" x="236.633182" y="226.292859" style="fill: #ff7f0e; stroke: #ff7f0e"/>
     <use xlink:href="#m8200cd4e96" x="277.215" y="189.537313" style="fill: #ff7f0e; stroke: #ff7f0e"/>
     <use xlink:href="#m8200cd4e96" x="317.796818" y="162.776577" style="fill: #ff7f0e; stroke: #ff7f0e"/>
     <use xlink:href="#m8200cd4e96" x="358.378636" y="133.839834" style="fill: #ff7f0e; stroke: #ff7f0e"/>
     <use xlink:href="#m8200cd4e96" x="398.960455" y="113.987772" style="fill: #ff7f0e; stroke: #ff7f0e"/>
     <use xlink:href="#m8200cd4e96" x="439.542273" y="74.023195" style="fill: #ff7f0e; stroke: #ff7f0e"/>
     <use xlink:href="#m8200cd4e96" x="480.124091" y="64.264597" style="fill: #ff7f0e; stroke: #ff7f0e"/>
    </g>
   </g>
   <g id="line2d_24">
    <g clip-path="url(#p61fb852a76)">
     <use xlink:href="#m8200cd4e96" x="74.305909" y="335.097096" style="fill: #ff7f0e; stroke: #ff7f0e"/>
     <use xlink:href="#m8200cd4e96" x="114.887727" y="303.18615" style="fill: #ff7f0e; stroke: #ff7f0e"/>
     <use xlink:href="#m8200cd4e96" x="155.469545" y="275.525324" style="fill: #ff7f0e; stroke: #ff7f0e"/>
     <use xlink:href="#m8200cd4e96" x="196.051364" y="242.129367" style="fill: #ff7f0e; stroke: #ff7f0e"/>
     <use xlink:href="#m8200cd4e96" x="236.633182" y="203.515943" style="fill: #ff7f0e; stroke: #ff7f0e"/>
     <use xlink:href="#m8200cd4e96" x="277.215" y="184.819309" style="fill: #ff7f0e; stroke: #ff7f0e"/>
     <use xlink:href="#m8200cd4e96" x="317.796818" y="141.589658" style="fill: #ff7f0e; stroke: #ff7f0e"/>
     <use xlink:href="#m8200cd4e96" x="358.378636" y="116.709536" style="fill: #ff7f0e; stroke: #ff7f0e"/>
     <use xlink:href="#m8200cd4e96" x="398.960455" y="100.227831" style="fill: #ff7f0e; stroke: #ff7f0e"/>
     <use xlink:href="#m8200cd4e96" x="439.542273" y="60.746136" style="fill: #ff7f0e; stroke: #ff7f0e"/>
     <use xlink:href="#m8200cd4e96" x="480.124091" y="27.36" style="fill: #ff7f0e; stroke: #ff7f0e"/>
    </g>
   </g>
   <g id="LineCollection_3">
    <path d="M 74.305909 364.072002 
L 74.305909 349.558091 
" clip-path="url(#p61fb852a76)" style="fill: none; stroke: #2ca02c; stroke-width: 1.5"/>
    <path d="M 114.887727 323.472138 
L 114.887727 313.581979 
" clip-path="url(#p61fb852a76)" style="fill: none; stroke: #2ca02c; stroke-width: 1.5"/>
    <path d="M 155.469545 286.28157 
L 155.469545 270.811891 
" clip-path="url(#p61fb852a76)" style="fill: none; stroke: #2ca02c; stroke-width: 1.5"/>
    <path d="M 196.051364 251.181743 
L 196.051364 236.195187 
" clip-path="url(#p61fb852a76)" style="fill: none; stroke: #2ca02c; stroke-width: 1.5"/>
    <path d="M 236.633182 217.939418 
L 236.633182 205.433219 
" clip-path="url(#p61fb852a76)" style="fill: none; stroke: #2ca02c; stroke-width: 1.5"/>
    <path d="M 277.215 179.670524 
L 277.215 170.818461 
" clip-path="url(#p61fb852a76)" style="fill: none; stroke: #2ca02c; stroke-width: 1.5"/>
    <path d="M 317.796818 159.484189 
L 317.796818 145.750767 
" clip-path="url(#p61fb852a76)" style="fill: none; stroke: #2ca02c; stroke-width: 1.5"/>
    <path d="M 358.378636 130.479523 
L 358.378636 112.323104 
" clip-path="url(#p61fb852a76)" style="fill: none; stroke: #2ca02c; stroke-width: 1.5"/>
    <path d="M 398.960455 96.55736 
L 398.960455 83.22698 
" clip-path="url(#p61fb852a76)" style="fill: none; stroke: #2ca02c; stroke-width: 1.5"/>
    <path d="M 439.542273 67.821323 
L 439.542273 50.35082 
" clip-path="url(#p61fb852a76)" style="fill: none; stroke: #2ca02c; stroke-width: 1.5"/>
    <path d="M 480.124091 53.662918 
L 480.124091 32.566076 
" clip-path="url(#p61fb852a76)" style="fill: none; stroke: #2ca02c; stroke-width: 1.5"/>
   </g>
   <g id="line2d_25">
    <defs>
     <path id="m90ae4d9fd7" d="M 5 0 
L -5 -0 
" style="stroke: #2ca02c"/>
    </defs>
    <g clip-path="url(#p61fb852a76)">
     <use xlink:href="#m90ae4d9fd7" x="74.305909" y="364.072002" style="fill: #2ca02c; stroke: #2ca02c"/>
     <use xlink:href="#m90ae4d9fd7" x="114.887727" y="323.472138" style="fill: #2ca02c; stroke: #2ca02c"/>
     <use xlink:href="#m90ae4d9fd7" x="155.469545" y="286.28157" style="fill: #2ca02c; stroke: #2ca02c"/>
     <use xlink:href="#m90ae4d9fd7" x="196.051364" y="251.181743" style="fill: #2ca02c; stroke: #2ca02c"/>
     <use xlink:href="#m90ae4d9fd7" x="236.633182" y="217.939418" style="fill: #2ca02c; stroke: #2ca02c"/>
     <use xlink:href="#m90ae4d9fd7" x="277.215" y="179.670524" style="fill: #2ca02c; stroke: #2ca02c"/>
     <use xlink:href="#m90ae4d9fd7" x="317.796818" y="159.484189" style="fill: #2ca02c; stroke: #2ca02c"/>
     <use xlink:href="#m90ae4d9fd7" x="358.378636" y="130.479523" style="fill: #2ca02c; stroke: #2ca02c"/>
     <use xlink:href="#m90ae4d9fd7" x="398.960455" y="96.55736" style="fill: #2ca02c; stroke: #2ca02c"/>
     <use xlink:href="#m90ae4d9fd7" x="439.542273" y="67.821323" style="fill: #2ca02c; stroke: #2ca02c"/>
     <use xlink:href="#m90ae4d9fd7" x="480.124091" y="53.662918" style="fill: #2ca02c; stroke: #2ca02c"/>
    </g>
   </g>
   <g id="line2d_26">
    <g clip-path="url(#p61fb852a76)">
     <use xlink:href="#m90ae4d9fd7" x="74.305909" y="349.558091" style="fill: #2ca02c; stroke: #2ca02c"/>
     <use xlink:href="#m90ae4d9fd7" x="114.887727" y="313.581979" style="fill: #2ca02c; stroke: #2ca02c"/>
     <use xlink:href="#m90ae4d9fd7" x="155.469545" y="270.811891" style="fill: #2ca02c; stroke: #2ca02c"/>
     <use xlink:href="#m90ae4d9fd7" x="196.051364" y="236.195187" style="fill: #2ca02c; stroke: #2ca02c"/>
     <use xlink:href="#m90ae4d9fd7" x="236.633182" y="205.433219" style="fill: #2ca02c; stroke: #2ca02c"/>
     <use xlink:href="#m90ae4d9fd7" x="277.215" y="170.818461" style="fill: #2ca02c; stroke: #2ca02c"/>
     <use xlink:href="#m90ae4d9fd7" x="317.796818" y="145.750767" style="fill: #2ca02c; stroke: #2ca02c"/>
     <use xlink:href="#m90ae4d9fd7" x="358.378636" y="112.323104" style="fill: #2ca02c; stroke: #2ca02c"/>
     <use xlink:href="#m90ae4d9fd7" x="398.960455" y="83.22698" style="fill: #2ca02c; stroke: #2ca02c"/>
     <use xlink:href="#m90ae4d9fd7" x="439.542273" y="50.35082" style="fill: #2ca02c; stroke: #2ca02c"/>
     <use xlink:href="#m90ae4d9fd7" x="480.124091" y="32.566076" style="fill: #2ca02c; stroke: #2ca02c"/>
    </g>
   </g>
   <g id="LineCollection_4">
    <path d="M 74.305909 430.56 
L 74.305909 417.935201 
" clip-path="url(#p61fb852a76)" style="fill: none; stroke: #d62728; stroke-width: 1.5"/>
    <path d="M 114.887727 394.383419 
L 114.887727 386.524547 
" clip-path="url(#p61fb852a76)" style="fill: none; stroke: #d62728; stroke-width: 1.5"/>
    <path d="M 155.469545 355.746977 
L 155.469545 343.388585 
" clip-path="url(#p61fb852a76)" style="fill: none; stroke: #d62728; stroke-width: 1.5"/>
    <path d="M 196.051364 325.208684 
L 196.051364 311.958279 
" clip-path="url(#p61fb852a76)" style="fill: none; stroke: #d62728; stroke-width: 1.5"/>
    <path d="M 236.633182 292.072778 
L 236.633182 266.565059 
" clip-path="url(#p61fb852a76)" style="fill: none; stroke: #d62728; stroke-width: 1.5"/>
    <path d="M 277.215 252.600229 
L 277.215 244.509667 
" clip-path="url(#p61fb852a76)" style="fill: none; stroke: #d62728; stroke-width: 1.5"/>
    <path d="M 317.796818 221.981428 
L 317.796818 206.939976 
" clip-path="url(#p61fb852a76)" style="fill: none; stroke: #d62728; stroke-width: 1.5"/>
    <path d="M 358.378636 184.6709 
L 358.378636 177.494085 
" clip-path="url(#p61fb852a76)" style="fill: none; stroke: #d62728; stroke-width: 1.5"/>
    <path d="M 398.960455 146.892788 
L 398.960455 129.566561 
" clip-path="url(#p61fb852a76)" style="fill: none; stroke: #d62728; stroke-width: 1.5"/>
    <path d="M 439.542273 115.688792 
L 439.542273 100.897871 
" clip-path="url(#p61fb852a76)" style="fill: none; stroke: #d62728; stroke-width: 1.5"/>
    <path d="M 480.124091 81.433205 
L 480.124091 69.362426 
" clip-path="url(#p61fb852a76)" style="fill: none; stroke: #d62728; stroke-width: 1.5"/>
   </g>
   <g id="line2d_27">
    <defs>
     <path id="m08d062ebff" d="M 5 0 
L -5 -0 
" style="stroke: #d62728"/>
    </defs>
    <g clip-path="url(#p61fb852a76)">
     <use xlink:href="#m08d062ebff" x="74.305909" y="430.56" style="fill: #d62728; stroke: #d62728"/>
     <use xlink:href="#m08d062ebff" x="114.887727" y="394.383419" style="fill: #d62728; stroke: #d62728"/>
     <use xlink:href="#m08d062ebff" x="155.469545" y="355.746977" style="fill: #d62728; stroke: #d62728"/>
     <use xlink:href="#m08d062ebff" x="196.051364" y="325.208684" style="fill: #d62728; stroke: #d62728"/>
     <use xlink:href="#m08d062ebff" x="236.633182" y="292.072778" style="fill: #d62728; stroke: #d62728"/>
     <use xlink:href="#m08d062ebff" x="277.215" y="252.600229" style="fill: #d62728; stroke: #d62728"/>
     <use xlink:href="#m08d062ebff" x="317.796818" y="221.981428" style="fill: #d62728; stroke: #d62728"/>
     <use xlink:href="#m08d062ebff" x="358.378636" y="184.6709" style="fill: #d62728; stroke: #d62728"/>
     <use xlink:href="#m08d062ebff" x="398.960455" y="146.892788" style="fill: #d62728; stroke: #d62728"/>
     <use xlink:href="#m08d062ebff" x="439.542273" y="115.688792" style="fill: #d62728; stroke: #d62728"/>
     <use xlink:href="#m08d062ebff" x="480.124091" y="81.433205" style="fill: #d62728; stroke: #d62728"/>
    </g>
   </g>
   <g id="line2d_28">
    <g clip-path="url(#p61fb852a76)">
     <use xlink:href="#m08d062ebff" x="74.305909" y="417.935201" style="fill: #d62728; stroke: #d62728"/>
     <use xlink:href="#m08d062ebff" x="114.887727" y="386.524547" style="fill: #d62728; stroke: #d62728"/>
     <use xlink:href="#m08d062ebff" x="155.469545" y="343.388585" style="fill: #d62728; stroke: #d62728"/>
     <use xlink:href="#m08d062ebff" x="196.051364" y="311.958279" style="fill: #d62728; stroke: #d62728"/>
     <use xlink:href="#m08d062ebff" x="236.633182" y="266.565059" style="fill: #d62728; stroke: #d62728"/>
     <use xlink:href="#m08d062ebff" x="277.215" y="244.509667" style="fill: #d62728; stroke: #d62728"/>
     <use xlink:href="#m08d062ebff" x="317.796818" y="206.939976" style="fill: #d62728; stroke: #d62728"/>
     <use xlink:href="#m08d062ebff" x="358.378636" y="177.494085" style="fill: #d62728; stroke: #d62728"/>
     <use xlink:href="#m08d062ebff" x="398.960455" y="129.566561" style="fill: #d62728; stroke: #d62728"/>
     <use xlink:href="#m08d062ebff" x="439.542273" y="100.897871" style="fill: #d62728; stroke: #d62728"/>
     <use xlink:href="#m08d062ebff" x="480.124091" y="69.362426" style="fill: #d62728; stroke: #d62728"/>
    </g>
   </g>
   <g id="line2d_29">
    <path d="M 74.305909 339.811454 
L 114.887727 307.939476 
L 155.469545 272.435905 
L 196.051364 245.459623 
L 236.633182 208.977604 
L 277.215 186.33388 
L 317.796818 152.002692 
L 358.378636 119.917305 
L 398.960455 96.431291 
L 439.542273 66.839899 
L 480.124091 49.960521 
" clip-path="url(#p61fb852a76)" style="fill: none; stroke: #1f77b4; stroke-width: 1.5; stroke-linecap: square"/>
    <defs>
     <path id="mf21d3cb914" d="M 0 3 
C 0.795609 3 1.55874 2.683901 2.12132 2.12132 
C 2.683901 1.55874 3 0.795609 3 0 
C 3 -0.795609 2.683901 -1.55874 2.12132 -2.12132 
C 1.55874 -2.683901 0.795609 -3 0 -3 
C -0.795609 -3 -1.55874 -2.683901 -2.12132 -2.12132 
C -2.683901 -1.55874 -3 -0.795609 -3 0 
C -3 0.795609 -2.683901 1.55874 -2.12132 2.12132 
C -1.55874 2.683901 -0.795609 3 0 3 
z
" style="stroke: #1f77b4"/>
    </defs>
    <g clip-path="url(#p61fb852a76)">
     <use xlink:href="#mf21d3cb914" x="74.305909" y="339.811454" style="fill: #1f77b4; stroke: #1f77b4"/>
     <use xlink:href="#mf21d3cb914" x="114.887727" y="307.939476" style="fill: #1f77b4; stroke: #1f77b4"/>
     <use xlink:href="#mf21d3cb914" x="155.469545" y="272.435905" style="fill: #1f77b4; stroke: #1f77b4"/>
     <use xlink:href="#mf21d3cb914" x="196.051364" y="245.459623" style="fill: #1f77b4; stroke: #1f77b4"/>
     <use xlink:href="#mf21d3cb914" x="236.633182" y="208.977604" style="fill: #1f77b4; stroke: #1f77b4"/>
     <use xlink:href="#mf21d3cb914" x="277.215" y="186.33388" style="fill: #1f77b4; stroke: #1f77b4"/>
     <use xlink:href="#mf21d3cb914" x="317.796818" y="152.002692" style="fill: #1f77b4; stroke: #1f77b4"/>
     <use xlink:href="#mf21d3cb914" x="358.378636" y="119.917305" style="fill: #1f77b4; stroke: #1f77b4"/>
     <use xlink:href="#mf21d3cb914" x="398.960455" y="96.431291" style="fill: #1f77b4; stroke: #1f77b4"/>
     <use xlink:href="#mf21d3cb914" x="439.542273" y="66.839899" style="fill: #1f77b4; stroke: #1f77b4"/>
     <use xlink:href="#mf21d3cb914" x="480.124091" y="49.960521" style="fill: #1f77b4; stroke: #1f77b4"/>
    </g>
   </g>
   <g id="line2d_30">
    <path d="M 74.305909 343.829463 
L 114.887727 311.867135 
L 155.469545 282.709459 
L 196.051364 250.174846 
L 236.633182 214.904401 
L 277.215 187.178311 
L 317.796818 152.183118 
L 358.378636 125.274685 
L 398.960455 107.107801 
L 439.542273 67.384665 
L 480.124091 45.812299 
" clip-path="url(#p61fb852a76)" style="fill: none; stroke: #ff7f0e; stroke-width: 1.5; stroke-linecap: square"/>
    <defs>
     <path id="mec77249b27" d="M -3 3 
L 3 3 
L 3 -3 
L -3 -3 
z
" style="stroke: #ff7f0e; stroke-linejoin: miter"/>
    </defs>
    <g clip-path="url(#p61fb852a76)">
     <use xlink:href="#mec77249b27" x="74.305909" y="343.829463" style="fill: #ff7f0e; stroke: #ff7f0e; stroke-linejoin: miter"/>
     <use xlink:href="#mec77249b27" x="114.887727" y="311.867135" style="fill: #ff7f0e; stroke: #ff7f0e; stroke-linejoin: miter"/>
     <use xlink:href="#mec77249b27" x="155.469545" y="282.709459" style="fill: #ff7f0e; stroke: #ff7f0e; stroke-linejoin: miter"/>
     <use xlink:href="#mec77249b27" x="196.051364" y="250.174846" style="fill: #ff7f0e; stroke: #ff7f0e; stroke-linejoin: miter"/>
     <use xlink:href="#mec77249b27" x="236.633182" y="214.904401" style="fill: #ff7f0e; stroke: #ff7f0e; stroke-linejoin: miter"/>
     <use xlink:href="#mec77249b27" x="277.215" y="187.178311" style="fill: #ff7f0e; stroke: #ff7f0e; stroke-linejoin: miter"/>
     <use xlink:href="#mec77249b27" x="317.796818" y="152.183118" style="fill: #ff7f0e; stroke: #ff7f0e; stroke-linejoin: miter"/>
     <use xlink:href="#mec77249b27" x="358.378636" y="125.274685" style="fill: #ff7f0e; stroke: #ff7f0e; stroke-linejoin: miter"/>
     <use xlink:href="#mec77249b27" x="398.960455" y="107.107801" style="fill: #ff7f0e; stroke: #ff7f0e; stroke-linejoin: miter"/>
     <use xlink:href="#mec77249b27" x="439.542273" y="67.384665" style="fill: #ff7f0e; stroke: #ff7f0e; stroke-linejoin: miter"/>
     <use xlink:href="#mec77249b27" x="480.124091" y="45.812299" style="fill: #ff7f0e; stroke: #ff7f0e; stroke-linejoin: miter"/>
    </g>
   </g>
   <g id="line2d_31">
    <path d="M 74.305909 356.815046 
L 114.887727 318.527058 
L 155.469545 278.54673 
L 196.051364 243.688465 
L 236.633182 211.686319 
L 277.215 175.244493 
L 317.796818 152.617478 
L 358.378636 121.401314 
L 398.960455 89.89217 
L 439.542273 59.086072 
L 480.124091 43.114497 
" clip-path="url(#p61fb852a76)" style="fill: none; stroke: #2ca02c; stroke-width: 1.5; stroke-linecap: square"/>
    <defs>
     <path id="m51cc903aa6" d="M 0 -3 
L -3 3 
L 3 3 
z
" style="stroke: #2ca02c; stroke-linejoin: miter"/>
    </defs>
    <g clip-path="url(#p61fb852a76)">
     <use xlink:href="#m51cc903aa6" x="74.305909" y="356.815046" style="fill: #2ca02c; stroke: #2ca02c; stroke-linejoin: miter"/>
     <use xlink:href="#m51cc903aa6" x="114.887727" y="318.527058" style="fill: #2ca02c; stroke: #2ca02c; stroke-linejoin: miter"/>
     <use xlink:href="#m51cc903aa6" x="155.469545" y="278.54673" style="fill: #2ca02c; stroke: #2ca02c; stroke-linejoin: miter"/>
     <use xlink:href="#m51cc903aa6" x="196.051364" y="243.688465" style="fill: #2ca02c; stroke: #2ca02c; stroke-linejoin: miter"/>
     <use xlink:href="#m51cc903aa6" x="236.633182" y="211.686319" style="fill: #2ca02c; stroke: #2ca02c; stroke-linejoin: miter"/>
     <use xlink:href="#m51cc903aa6" x="277.215" y="175.244493" style="fill: #2ca02c; stroke: #2ca02c; stroke-linejoin: miter"/>
     <use xlink:href="#m51cc903aa6" x="317.796818" y="152.617478" style="fill: #2ca02c; stroke: #2ca02c; stroke-linejoin: miter"/>
     <use xlink:href="#m51cc903aa6" x="358.378636" y="121.401314" style="fill: #2ca02c; stroke: #2ca02c; stroke-linejoin: miter"/>
     <use xlink:href="#m51cc903aa6" x="398.960455" y="89.89217" style="fill: #2ca02c; stroke: #2ca02c; stroke-linejoin: miter"/>
     <use xlink:href="#m51cc903aa6" x="439.542273" y="59.086072" style="fill: #2ca02c; stroke: #2ca02c; stroke-linejoin: miter"/>
     <use xlink:href="#m51cc903aa6" x="480.124091" y="43.114497" style="fill: #2ca02c; stroke: #2ca02c; stroke-linejoin: miter"/>
    </g>
   </g>
   <g id="line2d_32">
    <path d="M 74.305909 424.2476 
L 114.887727 390.453983 
L 155.469545 349.567781 
L 196.051364 318.583481 
L 236.633182 279.318918 
L 277.215 248.554948 
L 317.796818 214.460702 
L 358.378636 181.082493 
L 398.960455 138.229675 
L 439.542273 108.293332 
L 480.124091 75.397815 
" clip-path="url(#p61fb852a76)" style="fill: none; stroke: #d62728; stroke-width: 1.5; stroke-linecap: square"/>
    <defs>
     <path id="m7ec92fb7f8" d="M 0 4.242641 
L 4.242641 0 
L 0 -4.242641 
L -4.242641 0 
z
" style="stroke: #d62728; stroke-linejoin: miter"/>
    </defs>
    <g clip-path="url(#p61fb852a76)">
     <use xlink:href="#m7ec92fb7f8" x="74.305909" y="424.2476" style="fill: #d62728; stroke: #d62728; stroke-linejoin: miter"/>
     <use xlink:href="#m7ec92fb7f8" x="114.887727" y="390.453983" style="fill: #d62728; stroke: #d62728; stroke-linejoin: miter"/>
     <use xlink:href="#m7ec92fb7f8" x="155.469545" y="349.567781" style="fill: #d62728; stroke: #d62728; stroke-linejoin: miter"/>
     <use xlink:href="#m7ec92fb7f8" x="196.051364" y="318.583481" style="fill: #d62728; stroke: #d62728; stroke-linejoin: miter"/>
     <use xlink:href="#m7ec92fb7f8" x="236.633182" y="279.318918" style="fill: #d62728; stroke: #d62728; stroke-linejoin: miter"/>
     <use xlink:href="#m7ec92fb7f8" x="277.215" y="248.554948" style="fill: #d62728; stroke: #d62728; stroke-linejoin: miter"/>
     <use xlink:href="#m7ec92fb7f8" x="317.796818" y="214.460702" style="fill: #d62728; stroke: #d62728; stroke-linejoin: miter"/>
     <use xlink:href="#m7ec92fb7f8" x="358.378636" y="181.082493" style="fill: #d62728; stroke: #d62728; stroke-linejoin: miter"/>
     <use xlink:href="#m7ec92fb7f8" x="398.960455" y="138.229675" style="fill: #d62728; stroke: #d62728; stroke-linejoin: miter"/>
     <use xlink:href="#m7ec92fb7f8" x="439.542273" y="108.293332" style="fill: #d62728; stroke: #d62728; stroke-linejoin: miter"/>
     <use xlink:href="#m7ec92fb7f8" x="480.124091" y="75.397815" style="fill: #d62728; stroke: #d62728; stroke-linejoin: miter"/>
    </g>
   </g>
   <g id="patch_3">
    <path d="M 54.015 450.72 
L 54.015 7.2 
" style="fill: none; stroke: #000000; stroke-width: 0.8; stroke-linejoin: miter; stroke-linecap: square"/>
   </g>
   <g id="patch_4">
    <path d="M 500.415 450.72 
L 500.415 7.2 
" style="fill: none; stroke: #000000; stroke-width: 0.8; stroke-linejoin: miter; stroke-linecap: square"/>
   </g>
   <g id="patch_5">
    <path d="M 54.015 450.72 
L 500.415 450.72 
" style="fill: none; stroke: #000000; stroke-width: 0.8; stroke-linejoin: miter; stroke-linecap: square"/>
   </g>
   <g id="patch_6">
    <path d="M 54.015 7.2 
L 500.415 7.2 
" style="fill: none; stroke: #000000; stroke-width: 0.8; stroke-linejoin: miter; stroke-linecap: square"/>
   </g>
   <g id="legend_1">
    <g id="patch_7">
     <path d="M 61.015 74.15625 
L 180.64 74.15625 
Q 182.64 74.15625 182.64 72.15625 
L 182.64 14.2 
Q 182.64 12.2 180.64 12.2 
L 61.015 12.2 
Q 59.015 12.2 59.015 14.2 
L 59.015 72.15625 
Q 59.015 74.15625 61.015 74.15625 
z
" style="fill: #ffffff; opacity: 0.8; stroke: #cccccc; stroke-linejoin: miter"/>
    </g>
    <g id="LineCollection_5">
     <path d="M 73.015 25.298438 
L 73.015 15.298438 
" style="fill: none; stroke: #1f77b4; stroke-width: 1.5"/>
    </g>
    <g id="line2d_33">
     <g>
      <use xlink:href="#m775332b457" x="73.015" y="25.298438" style="fill: #1f77b4; stroke: #1f77b4"/>
     </g>
    </g>
    <g id="line2d_34">
     <g>
      <use xlink:href="#m775332b457" x="73.015" y="15.298438" style="fill: #1f77b4; stroke: #1f77b4"/>
     </g>
    </g>
    <g id="line2d_35">
     <path d="M 63.015 20.298438 
L 83.015 20.298438 
" style="fill: none; stroke: #1f77b4; stroke-width: 1.5; stroke-linecap: square"/>
    </g>
    <g id="line2d_36">
     <g>
      <use xlink:href="#mf21d3cb914" x="73.015" y="20.298438" style="fill: #1f77b4; stroke: #1f77b4"/>
     </g>
    </g>
    <g id="text_13">
     <!-- 1+1 protection -->
     <g transform="translate(91.015 23.798438) scale(0.1 -0.1)">
      <defs>
       <path id="DejaVuSans-2b" d="M 2944 4013 
L 2944 2272 
L 4684 2272 
L 4684 1741 
L 2944 1741 
L 2944 0 
L 2419 0 
L 2419 1741 
L 678 1741 
L 678 2272 
L 2419 2272 
L 2419 4013 
L 2944 4013 
z
" transform="scale(0.015625)"/>
       <path id="DejaVuSans-70" d="M 1159 525 
L 1159 -1331 
L 581 -1331 
L 581 3500 
L 1159 3500 
L 1159 2969 
Q 1341 3281 1617 3432 
Q 1894 3584 2278 3584 
Q 2916 3584 3314 3078 
Q 3713 2572 3713 1747 
Q 3713 922 3314 415 
Q 2916 -91 2278 -91 
Q 1894 -91 1617 61 
Q 1341 213 1159 525 
z
M 3116 1747 
Q 3116 2381 2855 2742 
Q 2594 3103 2138 3103 
Q 1681 3103 1420 2742 
Q 1159 2381 1159 1747 
Q 1159 1113 1420 752 
Q 1681 391 2138 391 
Q 2594 391 2855 752 
Q 3116 1113 3116 1747 
z
" transform="scale(0.015625)"/>
       <path id="DejaVuSans-74" d="M 1172 4494 
L 1172 3500 
L 2356 3500 
L 2356 3053 
L 1172 3053 
L 1172 1153 
Q 1172 725 1289 603 
Q 1406 481 1766 481 
L 2356 481 
L 2356 0 
L 1766 0 
Q 1100 0 847 248 
Q 594 497 594 1153 
L 594 3053 
L 172 3053 
L 172 3500 
L 594 3500 
L 594 4494 
L 1172 4494 
z
" transform="scale(0.015625)"/>
       <path id="DejaVuSans-63" d="M 3122 3366 
L 3122 2828 
Q 2878 2963 2633 3030 
Q 2388 3097 2138 3097 
Q 1578 3097 1268 2742 
Q 959 2388 959 1747 
Q 959 1106 1268 751 
Q 1578 397 2138 397 
Q 2388 397 2633 464 
Q 2878 531 3122 666 
L 3122 134 
Q 2881 22 2623 -34 
Q 2366 -91 2075 -91 
Q 1284 -91 818 406 
Q 353 903 353 1747 
Q 353 2603 823 3093 
Q 1294 3584 2113 3584 
Q 2378 3584 2631 3529 
Q 2884 3475 3122 3366 
z
" transform="scale(0.015625)"/>
      </defs>
      <use xlink:href="#DejaVuSans-31"/>
      <use xlink:href="#DejaVuSans-2b" x="63.623047"/>
      <use xlink:href="#DejaVuSans-31" x="147.412109"/>
      <use xlink:href="#DejaVuSans-20" x="211.035156"/>
      <use xlink:href="#DejaVuSans-70" x="242.822266"/>
      <use xlink:href="#DejaVuSans-72" x="306.298828"/>
      <use xlink:href="#DejaVuSans-6f" x="345.162109"/>
      <use xlink:href="#DejaVuSans-74" x="406.34375"/>
      <use xlink:href="#DejaVuSans-65" x="445.552734"/>
      <use xlink:href="#DejaVuSans-63" x="507.076172"/>
      <use xlink:href="#DejaVuSans-74" x="562.056641"/>
      <use xlink:href="#DejaVuSans-69" x="601.265625"/>
      <use xlink:href="#DejaVuSans-6f" x="629.048828"/>
      <use xlink:href="#DejaVuSans-6e" x="690.230469"/>
     </g>
    </g>
    <g id="LineCollection_6">
     <path d="M 73.015 40.078125 
L 73.015 30.078125 
" style="fill: none; stroke: #ff7f0e; stroke-width: 1.5"/>
    </g>
    <g id="line2d_37">
     <g>
      <use xlink:href="#m8200cd4e96" x="73.015" y="40.078125" style="fill: #ff7f0e; stroke: #ff7f0e"/>
     </g>
    </g>
    <g id="line2d_38">
     <g>
      <use xlink:href="#m8200cd4e96" x="73.015" y="30.078125" style="fill: #ff7f0e; stroke: #ff7f0e"/>
     </g>
    </g>
    <g id="line2d_39">
     <path d="M 63.015 35.078125 
L 83.015 35.078125 
" style="fill: none; stroke: #ff7f0e; stroke-width: 1.5; stroke-linecap: square"/>
    </g>
    <g id="line2d_40">
     <g>
      <use xlink:href="#mec77249b27" x="73.015" y="35.078125" style="fill: #ff7f0e; stroke: #ff7f0e; stroke-linejoin: miter"/>
     </g>
    </g>
    <g id="text_14">
     <!-- TC-SSPR $\beta$=1 -->
     <g transform="translate(91.015 38.578125) scale(0.1 -0.1)">
      <defs>
       <path id="DejaVuSans-54" d="M -19 4666 
L 3928 4666 
L 3928 4134 
L 2272 4134 
L 2272 0 
L 1638 0 
L 1638 4134 
L -19 4134 
L -19 4666 
z
" transform="scale(0.015625)"/>
       <path id="DejaVuSans-43" d="M 4122 4306 
L 4122 3641 
Q 3803 3938 3442 4084 
Q 3081 4231 2675 4231 
Q 1875 4231 1450 3742 
Q 1025 3253 1025 2328 
Q 1025 1406 1450 917 
Q 1875 428 2675 428 
Q 3081 428 3442 575 
Q 3803 722 4122 1019 
L 4122 359 
Q 3791 134 3420 21 
Q 3050 -91 2638 -91 
Q 1578 -91 968 557 
Q 359 1206 359 2328 
Q 359 3453 968 4101 
Q 1578 4750 2638 4750 
Q 3056 4750 3426 4639 
Q 3797 4528 4122 4306 
z
" transform="scale(0.015625)"/>
       <path id="DejaVuSans-2d" d="M 313 2009 
L 1997 2009 
L 1997 1497 
L 313 1497 
L 313 2009 
z
" transform="scale(0.015625)"/>
       <path id="DejaVuSans-53" d="M 3425 4513 
L 3425 3897 
Q 3066 4069 2747 4153 
Q 2428 4238 2131 4238 
Q 1616 4238 1336 4038 
Q 1056 3838 1056 3469 
Q 1056 3159 1242 3001 
Q 1428 2844 1947 2747 
L 2328 2669 
Q 3034 2534 3370 2195 
Q 3706 1856 3706 1288 
Q 3706 609 3251 259 
Q 2797 -91 1919 -91 
Q 1588 -91 1214 -16 
Q 841 59 441 206 
L 441 856 
Q 825 641 1194 531 
Q 1563 422 1919 422 
Q 2459 422 2753 634 
Q 3047 847 3047 1241 
Q 3047 1584 2836 1778 
Q 2625 1972 2144 2069 
L 1759 2144 
Q 1053 2284 737 2584 
Q 422 2884 422 3419 
Q 422 4038 858 4394 
Q 1294 4750 2059 4750 
Q 2388 4750 2728 4690 
Q 3069 4631 3425 4513 
z
" transform="scale(0.015625)"/>
       <path id="DejaVuSans-50" d="M 1259 4147 
L 1259 2394 
L 2053 2394 
Q 2494 2394 2734 2622 
Q 2975 2850 2975 3272 
Q 2975 3691 2734 3919 
Q 2494 4147 2053 4147 
L 1259 4147 
z
M 628 4666 
L 2053 4666 
Q 2838 4666 3239 4311 
Q 3641 3956 3641 3272 
Q 3641 2581 3239 2228 
Q 2838 1875 2053 1875 
L 1259 1875 
L 1259 0 
L 628 0 
L 628 4666 
z
" transform="scale(0.015625)"/>
       <path id="DejaVuSans-52" d="M 2841 2188 
Q 3044 2119 3236 1894 
Q 3428 1669 3622 1275 
L 4263 0 
L 3584 0 
L 2988 1197 
Q 2756 1666 2539 1819 
Q 2322 1972 1947 1972 
L 1259 1972 
L 1259 0 
L 628 0 
L 628 4666 
L 2053 4666 
Q 2853 4666 3247 4331 
Q 3641 3997 3641 3322 
Q 3641 2881 3436 2590 
Q 3231 2300 2841 2188 
z
M 1259 4147 
L 1259 2491 
L 2053 2491 
Q 2509 2491 2742 2702 
Q 2975 2913 2975 3322 
Q 2975 3731 2742 3939 
Q 2509 4147 2053 4147 
L 1259 4147 
z
" transform="scale(0.015625)"/>
       <path id="DejaVuSans-Oblique-3b2" d="M 872 216 
L 572 -1331 
L -6 -1331 
L 928 3478 
Q 1206 4903 2538 4903 
Q 3888 4903 3659 3700 
Q 3503 2844 2894 2531 
Q 3713 2250 3553 1416 
Q 3272 -69 1759 -66 
Q 1097 -63 872 216 
z
M 1019 966 
Q 1259 422 1875 425 
Q 2775 425 2966 1406 
Q 3138 2288 1675 2219 
L 1778 2750 
Q 2909 2731 3106 3750 
Q 3241 4438 2509 4434 
Q 1691 4434 1503 3459 
L 1019 966 
z
" transform="scale(0.015625)"/>
       <path id="DejaVuSans-3d" d="M 678 2906 
L 4684 2906 
L 4684 2381 
L 678 2381 
L 678 2906 
z
M 678 1631 
L 4684 1631 
L 4684 1100 
L 678 1100 
L 678 1631 
z
" transform="scale(0.015625)"/>
      </defs>
      <use xlink:href="#DejaVuSans-54" transform="translate(0 0.390625)"/>
      <use xlink:href="#DejaVuSans-43" transform="translate(61.083984 0.390625)"/>
      <use xlink:href="#DejaVuSans-2d" transform="translate(130.908203 0.390625)"/>
      <use xlink:href="#DejaVuSans-53" transform="translate(166.992188 0.390625)"/>
      <use xlink:href="#DejaVuSans-53" transform="translate(230.46875 0.390625)"/>
      <use xlink:href="#DejaVuSans-50" transform="translate(293.945312 0.390625)"/>
      <use xlink:href="#DejaVuSans-52" transform="translate(354.248047 0.390625)"/>
      <use xlink:href="#DejaVuSans-20" transform="translate(423.730469 0.390625)"/>
      <use xlink:href="#DejaVuSans-Oblique-3b2" transform="translate(455.517578 0.390625)"/>
      <use xlink:href="#DejaVuSans-3d" transform="translate(519.335938 0.390625)"/>
      <use xlink:href="#DejaVuSans-31" transform="translate(603.125 0.390625)"/>
     </g>
    </g>
    <g id="LineCollection_7">
     <path d="M 73.015 54.878125 
L 73.015 44.878125 
" style="fill: none; stroke: #2ca02c; stroke-width: 1.5"/>
    </g>
    <g id="line2d_41">
     <g>
      <use xlink:href="#m90ae4d9fd7" x="73.015" y="54.878125" style="fill: #2ca02c; stroke: #2ca02c"/>
     </g>
    </g>
    <g id="line2d_42">
     <g>
      <use xlink:href="#m90ae4d9fd7" x="73.015" y="44.878125" style="fill: #2ca02c; stroke: #2ca02c"/>
     </g>
    </g>
    <g id="line2d_43">
     <path d="M 63.015 49.878125 
L 83.015 49.878125 
" style="fill: none; stroke: #2ca02c; stroke-width: 1.5; stroke-linecap: square"/>
    </g>
    <g id="line2d_44">
     <g>
      <use xlink:href="#m51cc903aa6" x="73.015" y="49.878125" style="fill: #2ca02c; stroke: #2ca02c; stroke-linejoin: miter"/>
     </g>
    </g>
    <g id="text_15">
     <!-- TC-SSPR $\beta$=2 -->
     <g transform="translate(91.015 53.378125) scale(0.1 -0.1)">
      <use xlink:href="#DejaVuSans-54" transform="translate(0 0.390625)"/>
      <use xlink:href="#DejaVuSans-43" transform="translate(61.083984 0.390625)"/>
      <use xlink:href="#DejaVuSans-2d" transform="translate(130.908203 0.390625)"/>
      <use xlink:href="#DejaVuSans-53" transform="translate(166.992188 0.390625)"/>
      <use xlink:href="#DejaVuSans-53" transform="translate(230.46875 0.390625)"/>
      <use xlink:href="#DejaVuSans-50" transform="translate(293.945312 0.390625)"/>
      <use xlink:href="#DejaVuSans-52" transform="translate(354.248047 0.390625)"/>
      <use xlink:href="#DejaVuSans-20" transform="translate(423.730469 0.390625)"/>
      <use xlink:href="#DejaVuSans-Oblique-3b2" transform="translate(455.517578 0.390625)"/>
      <use xlink:href="#DejaVuSans-3d" transform="translate(519.335938 0.390625)"/>
      <use xlink:href="#DejaVuSans-32" transform="translate(603.125 0.390625)"/>
     </g>
    </g>
    <g id="LineCollection_8">
     <path d="M 73.015 69.576563 
L 73.015 59.576563 
" style="fill: none; stroke: #d62728; stroke-width: 1.5"/>
    </g>
    <g id="line2d_45">
     <g>
      <use xlink:href="#m08d062ebff" x="73.015" y="69.576563" style="fill: #d62728; stroke: #d62728"/>
     </g>
    </g>
    <g id="line2d_46">
     <g>
      <use xlink:href="#m08d062ebff" x="73.015" y="59.576563" style="fill: #d62728; stroke: #d62728"/>
     </g>
    </g>
    <g id="line2d_47">
     <path d="M 63.015 64.576563 
L 83.015 64.576563 
" style="fill: none; stroke: #d62728; stroke-width: 1.5; stroke-linecap: square"/>
    </g>
    <g id="line2d_48">
     <g>
      <use xlink:href="#m7ec92fb7f8" x="73.015" y="64.576563" style="fill: #d62728; stroke: #d62728; stroke-linejoin: miter"/>
     </g>
    </g>
    <g id="text_16">
     <!-- maximum shared -->
     <g transform="translate(91.015 68.076563) scale(0.1 -0.1)">
      <defs>
       <path id="DejaVuSans-78" d="M 3513 3500 
L 2247 1797 
L 3578 0 
L 2900 0 
L 1881 1375 
L 863 0 
L 184 0 
L 1544 1831 
L 300 3500 
L 978 3500 
L 1906 2253 
L 2834 3500 
L 3513 3500 
z
" transform="scale(0.015625)"/>
       <path id="DejaVuSans-68" d="M 3513 2113 
L 3513 0 
L 2938 0 
L 2938 2094 
Q 2938 2591 2744 2837 
Q 2550 3084 2163 3084 
Q 1697 3084 1428 2787 
Q 1159 2491 1159 1978 
L 1159 0 
L 581 0 
L 581 4863 
L 1159 4863 
L 1159 2956 
Q 1366 3272 1645 3428 
Q 1925 3584 2291 3584 
Q 2894 3584 3203 3211 
Q 3513 2838 3513 2113 
z
" transform="scale(0.015625)"/>
       <path id="DejaVuSans-64" d="M 2906 2969 
L 2906 4863 
L 3481 4863 
L 3481 0 
L 2906 0 
L 2906 525 
Q 2725 213 2448 61 
Q 2172 -91 1784 -91 
Q 1150 -91 751 415 
Q 353 922 353 1747 
Q 353 2572 751 3078 
Q 1150 3584 1784 3584 
Q 2172 3584 2448 3432 
Q 2725 3281 2906 2969 
z
M 947 1747 
Q 947 1113 1208 752 
Q 1469 391 1925 391 
Q 2381 391 2643 752 
Q 2906 1113 2906 1747 
Q 2906 2381 2643 2742 
Q 2381 3103 1925 3103 
Q 1469 3103 1208 2742 
Q 947 2381 947 1747 
z
" transform="scale(0.015625)"/>
      </defs>
      <use xlink:href="#DejaVuSans-6d"/>
      <use xlink:href="#DejaVuSans-61" x="97.412109"/>
      <use xlink:href="#DejaVuSans-78" x="158.691406"/>
      <use xlink:href="#DejaVuSans-69" x="217.871094"/>
      <use xlink:href="#DejaVuSans-6d" x="245.654297"/>
      <use xlink:href="#DejaVuSans-75" x="343.066406"/>
      <use xlink:href="#DejaVuSans-6d" x="406.445312"/>
      <use xlink:href="#DejaVuSans-20" x="503.857422"/>
      <use xlink:href="#DejaVuSans-73" x="535.644531"/>
      <use xlink:href="#DejaVuSans-68" x="587.744141"/>
      <use xlink:href="#DejaVuSans-61" x="651.123047"/>
      <use xlink:href="#DejaVuSans-72" x="712.402344"/>
      <use xlink:href="#DejaVuSans-65" x="751.265625"/>
      <use xlink:href="#DejaVuSans-64" x="812.789062"/>
     </g>
    </g>
   </g>
  </g>
 </g>
 <defs>
  <clipPath id="p61fb852a76">
   <rect x="54.015" y="7.2" width="446.4" height="443.52"/>
  </clipPath>
 </defs>
</svg>
