<?xml version="1.0" encoding="utf-8" standalone="no"?>
<!DOCTYPE svg PUBLIC "-//W3C//DTD SVG 1.1//EN"
  "http://www.w3.org/Graphics/SVG/1.1/DTD/svg11.dtd">
<svg xmlns:xlink="http://www.w3.org/1999/xlink" width="517.161875pt" height="492.1475pt" viewBox="0 0 517.161875 492.1475" xmlns="http://www.w3.org/2000/svg" version="1.1">
 <metadata>
  <rdf:RDF xmlns:dc="http://purl.org/dc/elements/1.1/" xmlns:cc="http://creativecommons.org/ns#" xmlns:rdf="http://www.w3.org/1999/02/22-rdf-syntax-ns#">
   <cc:Work>
    <dc:type rdf:resource="http://purl.org/dc/dcmitype/StillImage"/>
    <dc:date>2024-10-22T15:48:05.699729</dc:date>
    <dc:format>image/svg+xml</dc:format>
    <dc:creator>
     <cc:Agent>
      <dc:title>Matplotlib v3.6.3, https://matplotlib.org/</dc:title>
     </cc:Agent>
    </dc:creator>
   </cc:Work>
  </rdf:RDF>
 </metadata>
 <defs>
  <style type="text/css">*{stroke-linejoin: round; stroke-linecap: butt}</style>
 </defs>
 <g id="figure_1">
  <g id="patch_1">
   <path d="M 0 492.1475 
L 517.161875 492.1475 
L 517.161875 0 
L 0 0 
z
" style="fill: #ffffff"/>
  </g>
  <g id="axes_1">
   <g id="patch_2">
    <path d="M 63.561875 450.72 
L 509.961875 450.72 
L 509.961875 7.2 
L 63.561875 7.2 
z
" style="fill: #ffffff"/>
   </g>
   <g id="matplotlib.axis_1">
    <g id="xtick_1">
     <g id="line2d_1">
      <path d="M 124.434602 450.72 
L 124.434602 7.2 
" clip-path="url(#p0f56e85eb6)" style="fill: none; stroke: #b0b0b0; stroke-width: 0.8; stroke-linecap: square"/>
     </g>
     <g id="line2d_2">
      <defs>
       <path id="mb058c0c00e" d="M 0 0 
L 0 3.5 
" style="stroke: #000000; stroke-width: 0.8"/>
      </defs>
      <g>
       <use xlink:href="#mb058c0c00e" x="124.434602" y="450.72" style="stroke: #000000; stroke-width: 0.8"/>
      </g>
     </g>
     <g id="text_1">
      <!-- 160 -->
      <g transform="translate(114.890852 465.318438) scale(0.1 -0.1)">
       <defs>
        <path id="DejaVuSans-31" d="M 794 531 
L 1825 531 
L 1825 4091 
L 703 3866 
L 703 4441 
L 1819 4666 
L 2450 4666 
L 2450 531 
L 3481 531 
L 3481 0 
L 794 0 
L 794 531 
z
" transform="scale(0.015625)"/>
        <path id="DejaVuSans-36" d="M 2113 2584 
Q 1688 2584 1439 2293 
Q 1191 2003 1191 1497 
Q 1191 994 1439 701 
Q 1688 409 2113 409 
Q 2538 409 2786 701 
Q 3034 994 3034 1497 
Q 3034 2003 2786 2293 
Q 2538 2584 2113 2584 
z
M 3366 4563 
L 3366 3988 
Q 3128 4100 2886 4159 
Q 2644 4219 2406 4219 
Q 1781 4219 1451 3797 
Q 1122 3375 1075 2522 
Q 1259 2794 1537 2939 
Q 1816 3084 2150 3084 
Q 2853 3084 3261 2657 
Q 3669 2231 3669 1497 
Q 3669 778 3244 343 
Q 2819 -91 2113 -91 
Q 1303 -91 875 529 
Q 447 1150 447 2328 
Q 447 3434 972 4092 
Q 1497 4750 2381 4750 
Q 2619 4750 2861 4703 
Q 3103 4656 3366 4563 
z
" transform="scale(0.015625)"/>
        <path id="DejaVuSans-30" d="M 2034 4250 
Q 1547 4250 1301 3770 
Q 1056 3291 1056 2328 
Q 1056 1369 1301 889 
Q 1547 409 2034 409 
Q 2525 409 2770 889 
Q 3016 1369 3016 2328 
Q 3016 3291 2770 3770 
Q 2525 4250 2034 4250 
z
M 2034 4750 
Q 2819 4750 3233 4129 
Q 3647 3509 3647 2328 
Q 3647 1150 3233 529 
Q 2819 -91 2034 -91 
Q 1250 -91 836 529 
Q 422 1150 422 2328 
Q 422 3509 836 4129 
Q 1250 4750 2034 4750 
z
" transform="scale(0.015625)"/>
       </defs>
       <use xlink:href="#DejaVuSans-31"/>
       <use xlink:href="#DejaVuSans-36" x="63.623047"/>
       <use xlink:href="#DejaVuSans-30" x="127.246094"/>
      </g>
     </g>
    </g>
    <g id="xtick_2">
     <g id="line2d_3">
      <path d="M 205.598239 450.72 
L 205.598239 7.2 
" clip-path="url(#p0f56e85eb6)" style="fill: none; stroke: #b0b0b0; stroke-width: 0.8; stroke-linecap: square"/>
     </g>
     <g id="line2d_4">
      <g>
       <use xlink:href="#mb058c0c00e" x="205.598239" y="450.72" style="stroke: #000000; stroke-width: 0.8"/>
      </g>
     </g>
     <g id="text_2">
      <!-- 180 -->
      <g transform="translate(196.054489 465.318438) scale(0.1 -0.1)">
       <defs>
        <path id="DejaVuSans-38" d="M 2034 2216 
Q 1584 2216 1326 1975 
Q 1069 1734 1069 1313 
Q 1069 891 1326 650 
Q 1584 409 2034 409 
Q 2484 409 2743 651 
Q 3003 894 3003 1313 
Q 3003 1734 2745 1975 
Q 2488 2216 2034 2216 
z
M 1403 2484 
Q 997 2584 770 2862 
Q 544 3141 544 3541 
Q 544 4100 942 4425 
Q 1341 4750 2034 4750 
Q 2731 4750 3128 4425 
Q 3525 4100 3525 3541 
Q 3525 3141 3298 2862 
Q 3072 2584 2669 2484 
Q 3125 2378 3379 2068 
Q 3634 1759 3634 1313 
Q 3634 634 3220 271 
Q 2806 -91 2034 -91 
Q 1263 -91 848 271 
Q 434 634 434 1313 
Q 434 1759 690 2068 
Q 947 2378 1403 2484 
z
M 1172 3481 
Q 1172 3119 1398 2916 
Q 1625 2713 2034 2713 
Q 2441 2713 2670 2916 
Q 2900 3119 2900 3481 
Q 2900 3844 2670 4047 
Q 2441 4250 2034 4250 
Q 1625 4250 1398 4047 
Q 1172 3844 1172 3481 
z
" transform="scale(0.015625)"/>
       </defs>
       <use xlink:href="#DejaVuSans-31"/>
       <use xlink:href="#DejaVuSans-38" x="63.623047"/>
       <use xlink:href="#DejaVuSans-30" x="127.246094"/>
      </g>
     </g>
    </g>
    <g id="xtick_3">
     <g id="line2d_5">
      <path d="M 286.761875 450.72 
L 286.761875 7.2 
" clip-path="url(#p0f56e85eb6)" style="fill: none; stroke: #b0b0b0; stroke-width: 0.8; stroke-linecap: square"/>
     </g>
     <g id="line2d_6">
      <g>
       <use xlink:href="#mb058c0c00e" x="286.761875" y="450.72" style="stroke: #000000; stroke-width: 0.8"/>
      </g>
     </g>
     <g id="text_3">
      <!-- 200 -->
      <g transform="translate(277.218125 465.318438) scale(0.1 -0.1)">
       <defs>
        <path id="DejaVuSans-32" d="M 1228 531 
L 3431 531 
L 3431 0 
L 469 0 
L 469 531 
Q 828 903 1448 1529 
Q 2069 2156 2228 2338 
Q 2531 2678 2651 2914 
Q 2772 3150 2772 3378 
Q 2772 3750 2511 3984 
Q 2250 4219 1831 4219 
Q 1534 4219 1204 4116 
Q 875 4013 500 3803 
L 500 4441 
Q 881 4594 1212 4672 
Q 1544 4750 1819 4750 
Q 2544 4750 2975 4387 
Q 3406 4025 3406 3419 
Q 3406 3131 3298 2873 
Q 3191 2616 2906 2266 
Q 2828 2175 2409 1742 
Q 1991 1309 1228 531 
z
" transform="scale(0.015625)"/>
       </defs>
       <use xlink:href="#DejaVuSans-32"/>
       <use xlink:href="#DejaVuSans-30" x="63.623047"/>
       <use xlink:href="#DejaVuSans-30" x="127.246094"/>
      </g>
     </g>
    </g>
    <g id="xtick_4">
     <g id="line2d_7">
      <path d="M 367.925511 450.72 
L 367.925511 7.2 
" clip-path="url(#p0f56e85eb6)" style="fill: none; stroke: #b0b0b0; stroke-width: 0.8; stroke-linecap: square"/>
     </g>
     <g id="line2d_8">
      <g>
       <use xlink:href="#mb058c0c00e" x="367.925511" y="450.72" style="stroke: #000000; stroke-width: 0.8"/>
      </g>
     </g>
     <g id="text_4">
      <!-- 220 -->
      <g transform="translate(358.381761 465.318438) scale(0.1 -0.1)">
       <use xlink:href="#DejaVuSans-32"/>
       <use xlink:href="#DejaVuSans-32" x="63.623047"/>
       <use xlink:href="#DejaVuSans-30" x="127.246094"/>
      </g>
     </g>
    </g>
    <g id="xtick_5">
     <g id="line2d_9">
      <path d="M 449.089148 450.72 
L 449.089148 7.2 
" clip-path="url(#p0f56e85eb6)" style="fill: none; stroke: #b0b0b0; stroke-width: 0.8; stroke-linecap: square"/>
     </g>
     <g id="line2d_10">
      <g>
       <use xlink:href="#mb058c0c00e" x="449.089148" y="450.72" style="stroke: #000000; stroke-width: 0.8"/>
      </g>
     </g>
     <g id="text_5">
      <!-- 240 -->
      <g transform="translate(439.545398 465.318438) scale(0.1 -0.1)">
       <defs>
        <path id="DejaVuSans-34" d="M 2419 4116 
L 825 1625 
L 2419 1625 
L 2419 4116 
z
M 2253 4666 
L 3047 4666 
L 3047 1625 
L 3713 1625 
L 3713 1100 
L 3047 1100 
L 3047 0 
L 2419 0 
L 2419 1100 
L 313 1100 
L 313 1709 
L 2253 4666 
z
" transform="scale(0.015625)"/>
       </defs>
       <use xlink:href="#DejaVuSans-32"/>
       <use xlink:href="#DejaVuSans-34" x="63.623047"/>
       <use xlink:href="#DejaVuSans-30" x="127.246094"/>
      </g>
     </g>
    </g>
    <g id="text_6">
     <!-- Average Flow Number -->
     <g transform="translate(209.467656 482.035938) scale(0.14 -0.14)">
      <defs>
       <path id="DejaVuSans-41" d="M 2188 4044 
L 1331 1722 
L 3047 1722 
L 2188 4044 
z
M 1831 4666 
L 2547 4666 
L 4325 0 
L 3669 0 
L 3244 1197 
L 1141 1197 
L 716 0 
L 50 0 
L 1831 4666 
z
" transform="scale(0.015625)"/>
       <path id="DejaVuSans-76" d="M 191 3500 
L 800 3500 
L 1894 563 
L 2988 3500 
L 3597 3500 
L 2284 0 
L 1503 0 
L 191 3500 
z
" transform="scale(0.015625)"/>
       <path id="DejaVuSans-65" d="M 3597 1894 
L 3597 1613 
L 953 1613 
Q 991 1019 1311 708 
Q 1631 397 2203 397 
Q 2534 397 2845 478 
Q 3156 559 3463 722 
L 3463 178 
Q 3153 47 2828 -22 
Q 2503 -91 2169 -91 
Q 1331 -91 842 396 
Q 353 884 353 1716 
Q 353 2575 817 3079 
Q 1281 3584 2069 3584 
Q 2775 3584 3186 3129 
Q 3597 2675 3597 1894 
z
M 3022 2063 
Q 3016 2534 2758 2815 
Q 2500 3097 2075 3097 
Q 1594 3097 1305 2825 
Q 1016 2553 972 2059 
L 3022 2063 
z
" transform="scale(0.015625)"/>
       <path id="DejaVuSans-72" d="M 2631 2963 
Q 2534 3019 2420 3045 
Q 2306 3072 2169 3072 
Q 1681 3072 1420 2755 
Q 1159 2438 1159 1844 
L 1159 0 
L 581 0 
L 581 3500 
L 1159 3500 
L 1159 2956 
Q 1341 3275 1631 3429 
Q 1922 3584 2338 3584 
Q 2397 3584 2469 3576 
Q 2541 3569 2628 3553 
L 2631 2963 
z
" transform="scale(0.015625)"/>
       <path id="DejaVuSans-61" d="M 2194 1759 
Q 1497 1759 1228 1600 
Q 959 1441 959 1056 
Q 959 750 1161 570 
Q 1363 391 1709 391 
Q 2188 391 2477 730 
Q 2766 1069 2766 1631 
L 2766 1759 
L 2194 1759 
z
M 3341 1997 
L 3341 0 
L 2766 0 
L 2766 531 
Q 2569 213 2275 61 
Q 1981 -91 1556 -91 
Q 1019 -91 701 211 
Q 384 513 384 1019 
Q 384 1609 779 1909 
Q 1175 2209 1959 2209 
L 2766 2209 
L 2766 2266 
Q 2766 2663 2505 2880 
Q 2244 3097 1772 3097 
Q 1472 3097 1187 3025 
Q 903 2953 641 2809 
L 641 3341 
Q 956 3463 1253 3523 
Q 1550 3584 1831 3584 
Q 2591 3584 2966 3190 
Q 3341 2797 3341 1997 
z
" transform="scale(0.015625)"/>
       <path id="DejaVuSans-67" d="M 2906 1791 
Q 2906 2416 2648 2759 
Q 2391 3103 1925 3103 
Q 1463 3103 1205 2759 
Q 947 2416 947 1791 
Q 947 1169 1205 825 
Q 1463 481 1925 481 
Q 2391 481 2648 825 
Q 2906 1169 2906 1791 
z
M 3481 434 
Q 3481 -459 3084 -895 
Q 2688 -1331 1869 -1331 
Q 1566 -1331 1297 -1286 
Q 1028 -1241 775 -1147 
L 775 -588 
Q 1028 -725 1275 -790 
Q 1522 -856 1778 -856 
Q 2344 -856 2625 -561 
Q 2906 -266 2906 331 
L 2906 616 
Q 2728 306 2450 153 
Q 2172 0 1784 0 
Q 1141 0 747 490 
Q 353 981 353 1791 
Q 353 2603 747 3093 
Q 1141 3584 1784 3584 
Q 2172 3584 2450 3431 
Q 2728 3278 2906 2969 
L 2906 3500 
L 3481 3500 
L 3481 434 
z
" transform="scale(0.015625)"/>
       <path id="DejaVuSans-20" transform="scale(0.015625)"/>
       <path id="DejaVuSans-46" d="M 628 4666 
L 3309 4666 
L 3309 4134 
L 1259 4134 
L 1259 2759 
L 3109 2759 
L 3109 2228 
L 1259 2228 
L 1259 0 
L 628 0 
L 628 4666 
z
" transform="scale(0.015625)"/>
       <path id="DejaVuSans-6c" d="M 603 4863 
L 1178 4863 
L 1178 0 
L 603 0 
L 603 4863 
z
" transform="scale(0.015625)"/>
       <path id="DejaVuSans-6f" d="M 1959 3097 
Q 1497 3097 1228 2736 
Q 959 2375 959 1747 
Q 959 1119 1226 758 
Q 1494 397 1959 397 
Q 2419 397 2687 759 
Q 2956 1122 2956 1747 
Q 2956 2369 2687 2733 
Q 2419 3097 1959 3097 
z
M 1959 3584 
Q 2709 3584 3137 3096 
Q 3566 2609 3566 1747 
Q 3566 888 3137 398 
Q 2709 -91 1959 -91 
Q 1206 -91 779 398 
Q 353 888 353 1747 
Q 353 2609 779 3096 
Q 1206 3584 1959 3584 
z
" transform="scale(0.015625)"/>
       <path id="DejaVuSans-77" d="M 269 3500 
L 844 3500 
L 1563 769 
L 2278 3500 
L 2956 3500 
L 3675 769 
L 4391 3500 
L 4966 3500 
L 4050 0 
L 3372 0 
L 2619 2869 
L 1863 0 
L 1184 0 
L 269 3500 
z
" transform="scale(0.015625)"/>
       <path id="DejaVuSans-4e" d="M 628 4666 
L 1478 4666 
L 3547 763 
L 3547 4666 
L 4159 4666 
L 4159 0 
L 3309 0 
L 1241 3903 
L 1241 0 
L 628 0 
L 628 4666 
z
" transform="scale(0.015625)"/>
       <path id="DejaVuSans-75" d="M 544 1381 
L 544 3500 
L 1119 3500 
L 1119 1403 
Q 1119 906 1312 657 
Q 1506 409 1894 409 
Q 2359 409 2629 706 
Q 2900 1003 2900 1516 
L 2900 3500 
L 3475 3500 
L 3475 0 
L 2900 0 
L 2900 538 
Q 2691 219 2414 64 
Q 2138 -91 1772 -91 
Q 1169 -91 856 284 
Q 544 659 544 1381 
z
M 1991 3584 
L 1991 3584 
z
" transform="scale(0.015625)"/>
       <path id="DejaVuSans-6d" d="M 3328 2828 
Q 3544 3216 3844 3400 
Q 4144 3584 4550 3584 
Q 5097 3584 5394 3201 
Q 5691 2819 5691 2113 
L 5691 0 
L 5113 0 
L 5113 2094 
Q 5113 2597 4934 2840 
Q 4756 3084 4391 3084 
Q 3944 3084 3684 2787 
Q 3425 2491 3425 1978 
L 3425 0 
L 2847 0 
L 2847 2094 
Q 2847 2600 2669 2842 
Q 2491 3084 2119 3084 
Q 1678 3084 1418 2786 
Q 1159 2488 1159 1978 
L 1159 0 
L 581 0 
L 581 3500 
L 1159 3500 
L 1159 2956 
Q 1356 3278 1631 3431 
Q 1906 3584 2284 3584 
Q 2666 3584 2933 3390 
Q 3200 3197 3328 2828 
z
" transform="scale(0.015625)"/>
       <path id="DejaVuSans-62" d="M 3116 1747 
Q 3116 2381 2855 2742 
Q 2594 3103 2138 3103 
Q 1681 3103 1420 2742 
Q 1159 2381 1159 1747 
Q 1159 1113 1420 752 
Q 1681 391 2138 391 
Q 2594 391 2855 752 
Q 3116 1113 3116 1747 
z
M 1159 2969 
Q 1341 3281 1617 3432 
Q 1894 3584 2278 3584 
Q 2916 3584 3314 3078 
Q 3713 2572 3713 1747 
Q 3713 922 3314 415 
Q 2916 -91 2278 -91 
Q 1894 -91 1617 61 
Q 1341 213 1159 525 
L 1159 0 
L 581 0 
L 581 4863 
L 1159 4863 
L 1159 2969 
z
" transform="scale(0.015625)"/>
      </defs>
      <use xlink:href="#DejaVuSans-41"/>
      <use xlink:href="#DejaVuSans-76" x="62.533203"/>
      <use xlink:href="#DejaVuSans-65" x="121.712891"/>
      <use xlink:href="#DejaVuSans-72" x="183.236328"/>
      <use xlink:href="#DejaVuSans-61" x="224.349609"/>
      <use xlink:href="#DejaVuSans-67" x="285.628906"/>
      <use xlink:href="#DejaVuSans-65" x="349.105469"/>
      <use xlink:href="#DejaVuSans-20" x="410.628906"/>
      <use xlink:href="#DejaVuSans-46" x="442.416016"/>
      <use xlink:href="#DejaVuSans-6c" x="499.935547"/>
      <use xlink:href="#DejaVuSans-6f" x="527.71875"/>
      <use xlink:href="#DejaVuSans-77" x="588.900391"/>
      <use xlink:href="#DejaVuSans-20" x="670.6875"/>
      <use xlink:href="#DejaVuSans-4e" x="702.474609"/>
      <use xlink:href="#DejaVuSans-75" x="777.279297"/>
      <use xlink:href="#DejaVuSans-6d" x="840.658203"/>
      <use xlink:href="#DejaVuSans-62" x="938.070312"/>
      <use xlink:href="#DejaVuSans-65" x="1001.546875"/>
      <use xlink:href="#DejaVuSans-72" x="1063.070312"/>
     </g>
    </g>
   </g>
   <g id="matplotlib.axis_2">
    <g id="ytick_1">
     <g id="line2d_11">
      <path d="M 63.561875 392.753066 
L 509.961875 392.753066 
" clip-path="url(#p0f56e85eb6)" style="fill: none; stroke: #b0b0b0; stroke-width: 0.8; stroke-linecap: square"/>
     </g>
     <g id="line2d_12">
      <defs>
       <path id="mee5f326fea" d="M 0 0 
L -3.5 0 
" style="stroke: #000000; stroke-width: 0.8"/>
      </defs>
      <g>
       <use xlink:href="#mee5f326fea" x="63.561875" y="392.753066" style="stroke: #000000; stroke-width: 0.8"/>
      </g>
     </g>
     <g id="text_7">
      <!-- 25000 -->
      <g transform="translate(24.749375 396.552285) scale(0.1 -0.1)">
       <defs>
        <path id="DejaVuSans-35" d="M 691 4666 
L 3169 4666 
L 3169 4134 
L 1269 4134 
L 1269 2991 
Q 1406 3038 1543 3061 
Q 1681 3084 1819 3084 
Q 2600 3084 3056 2656 
Q 3513 2228 3513 1497 
Q 3513 744 3044 326 
Q 2575 -91 1722 -91 
Q 1428 -91 1123 -41 
Q 819 9 494 109 
L 494 744 
Q 775 591 1075 516 
Q 1375 441 1709 441 
Q 2250 441 2565 725 
Q 2881 1009 2881 1497 
Q 2881 1984 2565 2268 
Q 2250 2553 1709 2553 
Q 1456 2553 1204 2497 
Q 953 2441 691 2322 
L 691 4666 
z
" transform="scale(0.015625)"/>
       </defs>
       <use xlink:href="#DejaVuSans-32"/>
       <use xlink:href="#DejaVuSans-35" x="63.623047"/>
       <use xlink:href="#DejaVuSans-30" x="127.246094"/>
       <use xlink:href="#DejaVuSans-30" x="190.869141"/>
       <use xlink:href="#DejaVuSans-30" x="254.492188"/>
      </g>
     </g>
    </g>
    <g id="ytick_2">
     <g id="line2d_13">
      <path d="M 63.561875 332.913137 
L 509.961875 332.913137 
" clip-path="url(#p0f56e85eb6)" style="fill: none; stroke: #b0b0b0; stroke-width: 0.8; stroke-linecap: square"/>
     </g>
     <g id="line2d_14">
      <g>
       <use xlink:href="#mee5f326fea" x="63.561875" y="332.913137" style="stroke: #000000; stroke-width: 0.8"/>
      </g>
     </g>
     <g id="text_8">
      <!-- 27500 -->
      <g transform="translate(24.749375 336.712356) scale(0.1 -0.1)">
       <defs>
        <path id="DejaVuSans-37" d="M 525 4666 
L 3525 4666 
L 3525 4397 
L 1831 0 
L 1172 0 
L 2766 4134 
L 525 4134 
L 525 4666 
z
" transform="scale(0.015625)"/>
       </defs>
       <use xlink:href="#DejaVuSans-32"/>
       <use xlink:href="#DejaVuSans-37" x="63.623047"/>
       <use xlink:href="#DejaVuSans-35" x="127.246094"/>
       <use xlink:href="#DejaVuSans-30" x="190.869141"/>
       <use xlink:href="#DejaVuSans-30" x="254.492188"/>
      </g>
     </g>
    </g>
    <g id="ytick_3">
     <g id="line2d_15">
      <path d="M 63.561875 273.073208 
L 509.961875 273.073208 
" clip-path="url(#p0f56e85eb6)" style="fill: none; stroke: #b0b0b0; stroke-width: 0.8; stroke-linecap: square"/>
     </g>
     <g id="line2d_16">
      <g>
       <use xlink:href="#mee5f326fea" x="63.561875" y="273.073208" style="stroke: #000000; stroke-width: 0.8"/>
      </g>
     </g>
     <g id="text_9">
      <!-- 30000 -->
      <g transform="translate(24.749375 276.872427) scale(0.1 -0.1)">
       <defs>
        <path id="DejaVuSans-33" d="M 2597 2516 
Q 3050 2419 3304 2112 
Q 3559 1806 3559 1356 
Q 3559 666 3084 287 
Q 2609 -91 1734 -91 
Q 1441 -91 1130 -33 
Q 819 25 488 141 
L 488 750 
Q 750 597 1062 519 
Q 1375 441 1716 441 
Q 2309 441 2620 675 
Q 2931 909 2931 1356 
Q 2931 1769 2642 2001 
Q 2353 2234 1838 2234 
L 1294 2234 
L 1294 2753 
L 1863 2753 
Q 2328 2753 2575 2939 
Q 2822 3125 2822 3475 
Q 2822 3834 2567 4026 
Q 2313 4219 1838 4219 
Q 1578 4219 1281 4162 
Q 984 4106 628 3988 
L 628 4550 
Q 988 4650 1302 4700 
Q 1616 4750 1894 4750 
Q 2613 4750 3031 4423 
Q 3450 4097 3450 3541 
Q 3450 3153 3228 2886 
Q 3006 2619 2597 2516 
z
" transform="scale(0.015625)"/>
       </defs>
       <use xlink:href="#DejaVuSans-33"/>
       <use xlink:href="#DejaVuSans-30" x="63.623047"/>
       <use xlink:href="#DejaVuSans-30" x="127.246094"/>
       <use xlink:href="#DejaVuSans-30" x="190.869141"/>
       <use xlink:href="#DejaVuSans-30" x="254.492188"/>
      </g>
     </g>
    </g>
    <g id="ytick_4">
     <g id="line2d_17">
      <path d="M 63.561875 213.233279 
L 509.961875 213.233279 
" clip-path="url(#p0f56e85eb6)" style="fill: none; stroke: #b0b0b0; stroke-width: 0.8; stroke-linecap: square"/>
     </g>
     <g id="line2d_18">
      <g>
       <use xlink:href="#mee5f326fea" x="63.561875" y="213.233279" style="stroke: #000000; stroke-width: 0.8"/>
      </g>
     </g>
     <g id="text_10">
      <!-- 32500 -->
      <g transform="translate(24.749375 217.032498) scale(0.1 -0.1)">
       <use xlink:href="#DejaVuSans-33"/>
       <use xlink:href="#DejaVuSans-32" x="63.623047"/>
       <use xlink:href="#DejaVuSans-35" x="127.246094"/>
       <use xlink:href="#DejaVuSans-30" x="190.869141"/>
       <use xlink:href="#DejaVuSans-30" x="254.492188"/>
      </g>
     </g>
    </g>
    <g id="ytick_5">
     <g id="line2d_19">
      <path d="M 63.561875 153.39335 
L 509.961875 153.39335 
" clip-path="url(#p0f56e85eb6)" style="fill: none; stroke: #b0b0b0; stroke-width: 0.8; stroke-linecap: square"/>
     </g>
     <g id="line2d_20">
      <g>
       <use xlink:href="#mee5f326fea" x="63.561875" y="153.39335" style="stroke: #000000; stroke-width: 0.8"/>
      </g>
     </g>
     <g id="text_11">
      <!-- 35000 -->
      <g transform="translate(24.749375 157.192568) scale(0.1 -0.1)">
       <use xlink:href="#DejaVuSans-33"/>
       <use xlink:href="#DejaVuSans-35" x="63.623047"/>
       <use xlink:href="#DejaVuSans-30" x="127.246094"/>
       <use xlink:href="#DejaVuSans-30" x="190.869141"/>
       <use xlink:href="#DejaVuSans-30" x="254.492188"/>
      </g>
     </g>
    </g>
    <g id="ytick_6">
     <g id="line2d_21">
      <path d="M 63.561875 93.55342 
L 509.961875 93.55342 
" clip-path="url(#p0f56e85eb6)" style="fill: none; stroke: #b0b0b0; stroke-width: 0.8; stroke-linecap: square"/>
     </g>
     <g id="line2d_22">
      <g>
       <use xlink:href="#mee5f326fea" x="63.561875" y="93.55342" style="stroke: #000000; stroke-width: 0.8"/>
      </g>
     </g>
     <g id="text_12">
      <!-- 37500 -->
      <g transform="translate(24.749375 97.352639) scale(0.1 -0.1)">
       <use xlink:href="#DejaVuSans-33"/>
       <use xlink:href="#DejaVuSans-37" x="63.623047"/>
       <use xlink:href="#DejaVuSans-35" x="127.246094"/>
       <use xlink:href="#DejaVuSans-30" x="190.869141"/>
       <use xlink:href="#DejaVuSans-30" x="254.492188"/>
      </g>
     </g>
    </g>
    <g id="ytick_7">
     <g id="line2d_23">
      <path d="M 63.561875 33.713491 
L 509.961875 33.713491 
" clip-path="url(#p0f56e85eb6)" style="fill: none; stroke: #b0b0b0; stroke-width: 0.8; stroke-linecap: square"/>
     </g>
     <g id="line2d_24">
      <g>
       <use xlink:href="#mee5f326fea" x="63.561875" y="33.713491" style="stroke: #000000; stroke-width: 0.8"/>
      </g>
     </g>
     <g id="text_13">
      <!-- 40000 -->
      <g transform="translate(24.749375 37.51271) scale(0.1 -0.1)">
       <use xlink:href="#DejaVuSans-34"/>
       <use xlink:href="#DejaVuSans-30" x="63.623047"/>
       <use xlink:href="#DejaVuSans-30" x="127.246094"/>
       <use xlink:href="#DejaVuSans-30" x="190.869141"/>
       <use xlink:href="#DejaVuSans-30" x="254.492188"/>
      </g>
     </g>
    </g>
    <g id="text_14">
     <!-- Total Cost -->
     <g transform="translate(17.837812 263.09375) rotate(-90) scale(0.14 -0.14)">
      <defs>
       <path id="DejaVuSans-54" d="M -19 4666 
L 3928 4666 
L 3928 4134 
L 2272 4134 
L 2272 0 
L 1638 0 
L 1638 4134 
L -19 4134 
L -19 4666 
z
" transform="scale(0.015625)"/>
       <path id="DejaVuSans-74" d="M 1172 4494 
L 1172 3500 
L 2356 3500 
L 2356 3053 
L 1172 3053 
L 1172 1153 
Q 1172 725 1289 603 
Q 1406 481 1766 481 
L 2356 481 
L 2356 0 
L 1766 0 
Q 1100 0 847 248 
Q 594 497 594 1153 
L 594 3053 
L 172 3053 
L 172 3500 
L 594 3500 
L 594 4494 
L 1172 4494 
z
" transform="scale(0.015625)"/>
       <path id="DejaVuSans-43" d="M 4122 4306 
L 4122 3641 
Q 3803 3938 3442 4084 
Q 3081 4231 2675 4231 
Q 1875 4231 1450 3742 
Q 1025 3253 1025 2328 
Q 1025 1406 1450 917 
Q 1875 428 2675 428 
Q 3081 428 3442 575 
Q 3803 722 4122 1019 
L 4122 359 
Q 3791 134 3420 21 
Q 3050 -91 2638 -91 
Q 1578 -91 968 557 
Q 359 1206 359 2328 
Q 359 3453 968 4101 
Q 1578 4750 2638 4750 
Q 3056 4750 3426 4639 
Q 3797 4528 4122 4306 
z
" transform="scale(0.015625)"/>
       <path id="DejaVuSans-73" d="M 2834 3397 
L 2834 2853 
Q 2591 2978 2328 3040 
Q 2066 3103 1784 3103 
Q 1356 3103 1142 2972 
Q 928 2841 928 2578 
Q 928 2378 1081 2264 
Q 1234 2150 1697 2047 
L 1894 2003 
Q 2506 1872 2764 1633 
Q 3022 1394 3022 966 
Q 3022 478 2636 193 
Q 2250 -91 1575 -91 
Q 1294 -91 989 -36 
Q 684 19 347 128 
L 347 722 
Q 666 556 975 473 
Q 1284 391 1588 391 
Q 1994 391 2212 530 
Q 2431 669 2431 922 
Q 2431 1156 2273 1281 
Q 2116 1406 1581 1522 
L 1381 1569 
Q 847 1681 609 1914 
Q 372 2147 372 2553 
Q 372 3047 722 3315 
Q 1072 3584 1716 3584 
Q 2034 3584 2315 3537 
Q 2597 3491 2834 3397 
z
" transform="scale(0.015625)"/>
      </defs>
      <use xlink:href="#DejaVuSans-54"/>
      <use xlink:href="#DejaVuSans-6f" x="44.083984"/>
      <use xlink:href="#DejaVuSans-74" x="105.265625"/>
      <use xlink:href="#DejaVuSans-61" x="144.474609"/>
      <use xlink:href="#DejaVuSans-6c" x="205.753906"/>
      <use xlink:href="#DejaVuSans-20" x="233.537109"/>
      <use xlink:href="#DejaVuSans-43" x="265.324219"/>
      <use xlink:href="#DejaVuSans-6f" x="335.148438"/>
      <use xlink:href="#DejaVuSans-73" x="396.330078"/>
      <use xlink:href="#DejaVuSans-74" x="448.429688"/>
     </g>
    </g>
   </g>
   <g id="LineCollection_1">
    <path d="M 83.852784 430.56 
L 83.852784 415.456269 
" clip-path="url(#p0f56e85eb6)" style="fill: none; stroke: #1f77b4; stroke-width: 1.5"/>
    <path d="M 124.434602 397.964359 
L 124.434602 386.076892 
" clip-path="url(#p0f56e85eb6)" style="fill: none; stroke: #1f77b4; stroke-width: 1.5"/>
    <path d="M 165.01642 361.320679 
L 165.01642 346.144612 
" clip-path="url(#p0f56e85eb6)" style="fill: none; stroke: #1f77b4; stroke-width: 1.5"/>
    <path d="M 205.598239 330.604452 
L 205.598239 320.276202 
" clip-path="url(#p0f56e85eb6)" style="fill: none; stroke: #1f77b4; stroke-width: 1.5"/>
    <path d="M 246.180057 298.548193 
L 246.180057 291.247861 
" clip-path="url(#p0f56e85eb6)" style="fill: none; stroke: #1f77b4; stroke-width: 1.5"/>
    <path d="M 286.761875 280.135607 
L 286.761875 268.615043 
" clip-path="url(#p0f56e85eb6)" style="fill: none; stroke: #1f77b4; stroke-width: 1.5"/>
    <path d="M 327.343693 246.563595 
L 327.343693 231.968489 
" clip-path="url(#p0f56e85eb6)" style="fill: none; stroke: #1f77b4; stroke-width: 1.5"/>
    <path d="M 367.925511 213.605342 
L 367.925511 208.313381 
" clip-path="url(#p0f56e85eb6)" style="fill: none; stroke: #1f77b4; stroke-width: 1.5"/>
    <path d="M 408.50733 191.179629 
L 408.50733 171.243843 
" clip-path="url(#p0f56e85eb6)" style="fill: none; stroke: #1f77b4; stroke-width: 1.5"/>
    <path d="M 449.089148 163.777978 
L 449.089148 148.446974 
" clip-path="url(#p0f56e85eb6)" style="fill: none; stroke: #1f77b4; stroke-width: 1.5"/>
    <path d="M 489.670966 144.49618 
L 489.670966 130.599292 
" clip-path="url(#p0f56e85eb6)" style="fill: none; stroke: #1f77b4; stroke-width: 1.5"/>
   </g>
   <g id="line2d_25">
    <defs>
     <path id="m3286712e17" d="M 5 0 
L -5 -0 
" style="stroke: #1f77b4"/>
    </defs>
    <g clip-path="url(#p0f56e85eb6)">
     <use xlink:href="#m3286712e17" x="83.852784" y="430.56" style="fill: #1f77b4; stroke: #1f77b4"/>
     <use xlink:href="#m3286712e17" x="124.434602" y="397.964359" style="fill: #1f77b4; stroke: #1f77b4"/>
     <use xlink:href="#m3286712e17" x="165.01642" y="361.320679" style="fill: #1f77b4; stroke: #1f77b4"/>
     <use xlink:href="#m3286712e17" x="205.598239" y="330.604452" style="fill: #1f77b4; stroke: #1f77b4"/>
     <use xlink:href="#m3286712e17" x="246.180057" y="298.548193" style="fill: #1f77b4; stroke: #1f77b4"/>
     <use xlink:href="#m3286712e17" x="286.761875" y="280.135607" style="fill: #1f77b4; stroke: #1f77b4"/>
     <use xlink:href="#m3286712e17" x="327.343693" y="246.563595" style="fill: #1f77b4; stroke: #1f77b4"/>
     <use xlink:href="#m3286712e17" x="367.925511" y="213.605342" style="fill: #1f77b4; stroke: #1f77b4"/>
     <use xlink:href="#m3286712e17" x="408.50733" y="191.179629" style="fill: #1f77b4; stroke: #1f77b4"/>
     <use xlink:href="#m3286712e17" x="449.089148" y="163.777978" style="fill: #1f77b4; stroke: #1f77b4"/>
     <use xlink:href="#m3286712e17" x="489.670966" y="144.49618" style="fill: #1f77b4; stroke: #1f77b4"/>
    </g>
   </g>
   <g id="line2d_26">
    <g clip-path="url(#p0f56e85eb6)">
     <use xlink:href="#m3286712e17" x="83.852784" y="415.456269" style="fill: #1f77b4; stroke: #1f77b4"/>
     <use xlink:href="#m3286712e17" x="124.434602" y="386.076892" style="fill: #1f77b4; stroke: #1f77b4"/>
     <use xlink:href="#m3286712e17" x="165.01642" y="346.144612" style="fill: #1f77b4; stroke: #1f77b4"/>
     <use xlink:href="#m3286712e17" x="205.598239" y="320.276202" style="fill: #1f77b4; stroke: #1f77b4"/>
     <use xlink:href="#m3286712e17" x="246.180057" y="291.247861" style="fill: #1f77b4; stroke: #1f77b4"/>
     <use xlink:href="#m3286712e17" x="286.761875" y="268.615043" style="fill: #1f77b4; stroke: #1f77b4"/>
     <use xlink:href="#m3286712e17" x="327.343693" y="231.968489" style="fill: #1f77b4; stroke: #1f77b4"/>
     <use xlink:href="#m3286712e17" x="367.925511" y="208.313381" style="fill: #1f77b4; stroke: #1f77b4"/>
     <use xlink:href="#m3286712e17" x="408.50733" y="171.243843" style="fill: #1f77b4; stroke: #1f77b4"/>
     <use xlink:href="#m3286712e17" x="449.089148" y="148.446974" style="fill: #1f77b4; stroke: #1f77b4"/>
     <use xlink:href="#m3286712e17" x="489.670966" y="130.599292" style="fill: #1f77b4; stroke: #1f77b4"/>
    </g>
   </g>
   <g id="LineCollection_2">
    <path d="M 83.852784 428.020418 
L 83.852784 414.10865 
" clip-path="url(#p0f56e85eb6)" style="fill: none; stroke: #ff7f0e; stroke-width: 1.5"/>
    <path d="M 124.434602 392.967144 
L 124.434602 381.949714 
" clip-path="url(#p0f56e85eb6)" style="fill: none; stroke: #ff7f0e; stroke-width: 1.5"/>
    <path d="M 165.01642 365.942835 
L 165.01642 352.121304 
" clip-path="url(#p0f56e85eb6)" style="fill: none; stroke: #ff7f0e; stroke-width: 1.5"/>
    <path d="M 205.598239 331.035081 
L 205.598239 317.155169 
" clip-path="url(#p0f56e85eb6)" style="fill: none; stroke: #ff7f0e; stroke-width: 1.5"/>
    <path d="M 246.180057 300.44725 
L 246.180057 284.379697 
" clip-path="url(#p0f56e85eb6)" style="fill: none; stroke: #ff7f0e; stroke-width: 1.5"/>
    <path d="M 286.761875 270.524283 
L 286.761875 262.122245 
" clip-path="url(#p0f56e85eb6)" style="fill: none; stroke: #ff7f0e; stroke-width: 1.5"/>
    <path d="M 327.343693 236.023054 
L 327.343693 222.144305 
" clip-path="url(#p0f56e85eb6)" style="fill: none; stroke: #ff7f0e; stroke-width: 1.5"/>
    <path d="M 367.925511 205.236827 
L 367.925511 196.920358 
" clip-path="url(#p0f56e85eb6)" style="fill: none; stroke: #ff7f0e; stroke-width: 1.5"/>
    <path d="M 408.50733 189.853247 
L 408.50733 178.238263 
" clip-path="url(#p0f56e85eb6)" style="fill: none; stroke: #ff7f0e; stroke-width: 1.5"/>
    <path d="M 449.089148 150.729487 
L 449.089148 140.537128 
" clip-path="url(#p0f56e85eb6)" style="fill: none; stroke: #ff7f0e; stroke-width: 1.5"/>
    <path d="M 489.670966 140.235517 
L 489.670966 111.977167 
" clip-path="url(#p0f56e85eb6)" style="fill: none; stroke: #ff7f0e; stroke-width: 1.5"/>
   </g>
   <g id="line2d_27">
    <defs>
     <path id="m1ff63ce136" d="M 5 0 
L -5 -0 
" style="stroke: #ff7f0e"/>
    </defs>
    <g clip-path="url(#p0f56e85eb6)">
     <use xlink:href="#m1ff63ce136" x="83.852784" y="428.020418" style="fill: #ff7f0e; stroke: #ff7f0e"/>
     <use xlink:href="#m1ff63ce136" x="124.434602" y="392.967144" style="fill: #ff7f0e; stroke: #ff7f0e"/>
     <use xlink:href="#m1ff63ce136" x="165.01642" y="365.942835" style="fill: #ff7f0e; stroke: #ff7f0e"/>
     <use xlink:href="#m1ff63ce136" x="205.598239" y="331.035081" style="fill: #ff7f0e; stroke: #ff7f0e"/>
     <use xlink:href="#m1ff63ce136" x="246.180057" y="300.44725" style="fill: #ff7f0e; stroke: #ff7f0e"/>
     <use xlink:href="#m1ff63ce136" x="286.761875" y="270.524283" style="fill: #ff7f0e; stroke: #ff7f0e"/>
     <use xlink:href="#m1ff63ce136" x="327.343693" y="236.023054" style="fill: #ff7f0e; stroke: #ff7f0e"/>
     <use xlink:href="#m1ff63ce136" x="367.925511" y="205.236827" style="fill: #ff7f0e; stroke: #ff7f0e"/>
     <use xlink:href="#m1ff63ce136" x="408.50733" y="189.853247" style="fill: #ff7f0e; stroke: #ff7f0e"/>
     <use xlink:href="#m1ff63ce136" x="449.089148" y="150.729487" style="fill: #ff7f0e; stroke: #ff7f0e"/>
     <use xlink:href="#m1ff63ce136" x="489.670966" y="140.235517" style="fill: #ff7f0e; stroke: #ff7f0e"/>
    </g>
   </g>
   <g id="line2d_28">
    <g clip-path="url(#p0f56e85eb6)">
     <use xlink:href="#m1ff63ce136" x="83.852784" y="414.10865" style="fill: #ff7f0e; stroke: #ff7f0e"/>
     <use xlink:href="#m1ff63ce136" x="124.434602" y="381.949714" style="fill: #ff7f0e; stroke: #ff7f0e"/>
     <use xlink:href="#m1ff63ce136" x="165.01642" y="352.121304" style="fill: #ff7f0e; stroke: #ff7f0e"/>
     <use xlink:href="#m1ff63ce136" x="205.598239" y="317.155169" style="fill: #ff7f0e; stroke: #ff7f0e"/>
     <use xlink:href="#m1ff63ce136" x="246.180057" y="284.379697" style="fill: #ff7f0e; stroke: #ff7f0e"/>
     <use xlink:href="#m1ff63ce136" x="286.761875" y="262.122245" style="fill: #ff7f0e; stroke: #ff7f0e"/>
     <use xlink:href="#m1ff63ce136" x="327.343693" y="222.144305" style="fill: #ff7f0e; stroke: #ff7f0e"/>
     <use xlink:href="#m1ff63ce136" x="367.925511" y="196.920358" style="fill: #ff7f0e; stroke: #ff7f0e"/>
     <use xlink:href="#m1ff63ce136" x="408.50733" y="178.238263" style="fill: #ff7f0e; stroke: #ff7f0e"/>
     <use xlink:href="#m1ff63ce136" x="449.089148" y="140.537128" style="fill: #ff7f0e; stroke: #ff7f0e"/>
     <use xlink:href="#m1ff63ce136" x="489.670966" y="111.977167" style="fill: #ff7f0e; stroke: #ff7f0e"/>
    </g>
   </g>
   <g id="LineCollection_3">
    <path d="M 83.852784 427.276125 
L 83.852784 420.205026 
" clip-path="url(#p0f56e85eb6)" style="fill: none; stroke: #2ca02c; stroke-width: 1.5"/>
    <path d="M 124.434602 387.855534 
L 124.434602 382.724126 
" clip-path="url(#p0f56e85eb6)" style="fill: none; stroke: #2ca02c; stroke-width: 1.5"/>
    <path d="M 165.01642 355.47 
L 165.01642 341.607079 
" clip-path="url(#p0f56e85eb6)" style="fill: none; stroke: #2ca02c; stroke-width: 1.5"/>
    <path d="M 205.598239 315.314488 
L 205.598239 304.631315 
" clip-path="url(#p0f56e85eb6)" style="fill: none; stroke: #2ca02c; stroke-width: 1.5"/>
    <path d="M 246.180057 284.17862 
L 246.180057 277.344264 
" clip-path="url(#p0f56e85eb6)" style="fill: none; stroke: #2ca02c; stroke-width: 1.5"/>
    <path d="M 286.761875 249.172793 
L 286.761875 237.411351 
" clip-path="url(#p0f56e85eb6)" style="fill: none; stroke: #2ca02c; stroke-width: 1.5"/>
    <path d="M 327.343693 221.906979 
L 327.343693 215.64672 
" clip-path="url(#p0f56e85eb6)" style="fill: none; stroke: #2ca02c; stroke-width: 1.5"/>
    <path d="M 367.925511 186.161967 
L 367.925511 181.776353 
" clip-path="url(#p0f56e85eb6)" style="fill: none; stroke: #2ca02c; stroke-width: 1.5"/>
    <path d="M 408.50733 159.517341 
L 408.50733 148.466157 
" clip-path="url(#p0f56e85eb6)" style="fill: none; stroke: #2ca02c; stroke-width: 1.5"/>
    <path d="M 449.089148 132.420716 
L 449.089148 122.128119 
" clip-path="url(#p0f56e85eb6)" style="fill: none; stroke: #2ca02c; stroke-width: 1.5"/>
    <path d="M 489.670966 106.590843 
L 489.670966 92.771215 
" clip-path="url(#p0f56e85eb6)" style="fill: none; stroke: #2ca02c; stroke-width: 1.5"/>
   </g>
   <g id="line2d_29">
    <defs>
     <path id="m943a40f4f3" d="M 5 0 
L -5 -0 
" style="stroke: #2ca02c"/>
    </defs>
    <g clip-path="url(#p0f56e85eb6)">
     <use xlink:href="#m943a40f4f3" x="83.852784" y="427.276125" style="fill: #2ca02c; stroke: #2ca02c"/>
     <use xlink:href="#m943a40f4f3" x="124.434602" y="387.855534" style="fill: #2ca02c; stroke: #2ca02c"/>
     <use xlink:href="#m943a40f4f3" x="165.01642" y="355.47" style="fill: #2ca02c; stroke: #2ca02c"/>
     <use xlink:href="#m943a40f4f3" x="205.598239" y="315.314488" style="fill: #2ca02c; stroke: #2ca02c"/>
     <use xlink:href="#m943a40f4f3" x="246.180057" y="284.17862" style="fill: #2ca02c; stroke: #2ca02c"/>
     <use xlink:href="#m943a40f4f3" x="286.761875" y="249.172793" style="fill: #2ca02c; stroke: #2ca02c"/>
     <use xlink:href="#m943a40f4f3" x="327.343693" y="221.906979" style="fill: #2ca02c; stroke: #2ca02c"/>
     <use xlink:href="#m943a40f4f3" x="367.925511" y="186.161967" style="fill: #2ca02c; stroke: #2ca02c"/>
     <use xlink:href="#m943a40f4f3" x="408.50733" y="159.517341" style="fill: #2ca02c; stroke: #2ca02c"/>
     <use xlink:href="#m943a40f4f3" x="449.089148" y="132.420716" style="fill: #2ca02c; stroke: #2ca02c"/>
     <use xlink:href="#m943a40f4f3" x="489.670966" y="106.590843" style="fill: #2ca02c; stroke: #2ca02c"/>
    </g>
   </g>
   <g id="line2d_30">
    <g clip-path="url(#p0f56e85eb6)">
     <use xlink:href="#m943a40f4f3" x="83.852784" y="420.205026" style="fill: #2ca02c; stroke: #2ca02c"/>
     <use xlink:href="#m943a40f4f3" x="124.434602" y="382.724126" style="fill: #2ca02c; stroke: #2ca02c"/>
     <use xlink:href="#m943a40f4f3" x="165.01642" y="341.607079" style="fill: #2ca02c; stroke: #2ca02c"/>
     <use xlink:href="#m943a40f4f3" x="205.598239" y="304.631315" style="fill: #2ca02c; stroke: #2ca02c"/>
     <use xlink:href="#m943a40f4f3" x="246.180057" y="277.344264" style="fill: #2ca02c; stroke: #2ca02c"/>
     <use xlink:href="#m943a40f4f3" x="286.761875" y="237.411351" style="fill: #2ca02c; stroke: #2ca02c"/>
     <use xlink:href="#m943a40f4f3" x="327.343693" y="215.64672" style="fill: #2ca02c; stroke: #2ca02c"/>
     <use xlink:href="#m943a40f4f3" x="367.925511" y="181.776353" style="fill: #2ca02c; stroke: #2ca02c"/>
     <use xlink:href="#m943a40f4f3" x="408.50733" y="148.466157" style="fill: #2ca02c; stroke: #2ca02c"/>
     <use xlink:href="#m943a40f4f3" x="449.089148" y="122.128119" style="fill: #2ca02c; stroke: #2ca02c"/>
     <use xlink:href="#m943a40f4f3" x="489.670966" y="92.771215" style="fill: #2ca02c; stroke: #2ca02c"/>
    </g>
   </g>
   <g id="LineCollection_4">
    <path d="M 83.852784 417.712446 
L 83.852784 408.561434 
" clip-path="url(#p0f56e85eb6)" style="fill: none; stroke: #d62728; stroke-width: 1.5"/>
    <path d="M 124.434602 385.446997 
L 124.434602 377.252942 
" clip-path="url(#p0f56e85eb6)" style="fill: none; stroke: #d62728; stroke-width: 1.5"/>
    <path d="M 165.01642 336.582512 
L 165.01642 331.053321 
" clip-path="url(#p0f56e85eb6)" style="fill: none; stroke: #d62728; stroke-width: 1.5"/>
    <path d="M 205.598239 305.429909 
L 205.598239 292.734161 
" clip-path="url(#p0f56e85eb6)" style="fill: none; stroke: #d62728; stroke-width: 1.5"/>
    <path d="M 246.180057 265.455509 
L 246.180057 244.729503 
" clip-path="url(#p0f56e85eb6)" style="fill: none; stroke: #d62728; stroke-width: 1.5"/>
    <path d="M 286.761875 223.164899 
L 286.761875 213.699445 
" clip-path="url(#p0f56e85eb6)" style="fill: none; stroke: #d62728; stroke-width: 1.5"/>
    <path d="M 327.343693 188.217448 
L 327.343693 175.785798 
" clip-path="url(#p0f56e85eb6)" style="fill: none; stroke: #d62728; stroke-width: 1.5"/>
    <path d="M 367.925511 155.674687 
L 367.925511 141.90145 
" clip-path="url(#p0f56e85eb6)" style="fill: none; stroke: #d62728; stroke-width: 1.5"/>
    <path d="M 408.50733 108.906797 
L 408.50733 102.720053 
" clip-path="url(#p0f56e85eb6)" style="fill: none; stroke: #d62728; stroke-width: 1.5"/>
    <path d="M 449.089148 77.857702 
L 449.089148 62.047403 
" clip-path="url(#p0f56e85eb6)" style="fill: none; stroke: #d62728; stroke-width: 1.5"/>
    <path d="M 489.670966 38.659547 
L 489.670966 27.36 
" clip-path="url(#p0f56e85eb6)" style="fill: none; stroke: #d62728; stroke-width: 1.5"/>
   </g>
   <g id="line2d_31">
    <defs>
     <path id="m63e6628f7f" d="M 5 0 
L -5 -0 
" style="stroke: #d62728"/>
    </defs>
    <g clip-path="url(#p0f56e85eb6)">
     <use xlink:href="#m63e6628f7f" x="83.852784" y="417.712446" style="fill: #d62728; stroke: #d62728"/>
     <use xlink:href="#m63e6628f7f" x="124.434602" y="385.446997" style="fill: #d62728; stroke: #d62728"/>
     <use xlink:href="#m63e6628f7f" x="165.01642" y="336.582512" style="fill: #d62728; stroke: #d62728"/>
     <use xlink:href="#m63e6628f7f" x="205.598239" y="305.429909" style="fill: #d62728; stroke: #d62728"/>
     <use xlink:href="#m63e6628f7f" x="246.180057" y="265.455509" style="fill: #d62728; stroke: #d62728"/>
     <use xlink:href="#m63e6628f7f" x="286.761875" y="223.164899" style="fill: #d62728; stroke: #d62728"/>
     <use xlink:href="#m63e6628f7f" x="327.343693" y="188.217448" style="fill: #d62728; stroke: #d62728"/>
     <use xlink:href="#m63e6628f7f" x="367.925511" y="155.674687" style="fill: #d62728; stroke: #d62728"/>
     <use xlink:href="#m63e6628f7f" x="408.50733" y="108.906797" style="fill: #d62728; stroke: #d62728"/>
     <use xlink:href="#m63e6628f7f" x="449.089148" y="77.857702" style="fill: #d62728; stroke: #d62728"/>
     <use xlink:href="#m63e6628f7f" x="489.670966" y="38.659547" style="fill: #d62728; stroke: #d62728"/>
    </g>
   </g>
   <g id="line2d_32">
    <g clip-path="url(#p0f56e85eb6)">
     <use xlink:href="#m63e6628f7f" x="83.852784" y="408.561434" style="fill: #d62728; stroke: #d62728"/>
     <use xlink:href="#m63e6628f7f" x="124.434602" y="377.252942" style="fill: #d62728; stroke: #d62728"/>
     <use xlink:href="#m63e6628f7f" x="165.01642" y="331.053321" style="fill: #d62728; stroke: #d62728"/>
     <use xlink:href="#m63e6628f7f" x="205.598239" y="292.734161" style="fill: #d62728; stroke: #d62728"/>
     <use xlink:href="#m63e6628f7f" x="246.180057" y="244.729503" style="fill: #d62728; stroke: #d62728"/>
     <use xlink:href="#m63e6628f7f" x="286.761875" y="213.699445" style="fill: #d62728; stroke: #d62728"/>
     <use xlink:href="#m63e6628f7f" x="327.343693" y="175.785798" style="fill: #d62728; stroke: #d62728"/>
     <use xlink:href="#m63e6628f7f" x="367.925511" y="141.90145" style="fill: #d62728; stroke: #d62728"/>
     <use xlink:href="#m63e6628f7f" x="408.50733" y="102.720053" style="fill: #d62728; stroke: #d62728"/>
     <use xlink:href="#m63e6628f7f" x="449.089148" y="62.047403" style="fill: #d62728; stroke: #d62728"/>
     <use xlink:href="#m63e6628f7f" x="489.670966" y="27.36" style="fill: #d62728; stroke: #d62728"/>
    </g>
   </g>
   <g id="line2d_33">
    <path d="M 83.852784 423.008135 
L 124.434602 392.020626 
L 165.01642 353.732645 
L 205.598239 325.440327 
L 246.180057 294.898027 
L 286.761875 274.375325 
L 327.343693 239.266042 
L 367.925511 210.959361 
L 408.50733 181.211736 
L 449.089148 156.112476 
L 489.670966 137.547736 
" clip-path="url(#p0f56e85eb6)" style="fill: none; stroke: #1f77b4; stroke-width: 1.5; stroke-linecap: square"/>
    <defs>
     <path id="m21b1ef7c93" d="M 0 3 
C 0.795609 3 1.55874 2.683901 2.12132 2.12132 
C 2.683901 1.55874 3 0.795609 3 0 
C 3 -0.795609 2.683901 -1.55874 2.12132 -2.12132 
C 1.55874 -2.683901 0.795609 -3 0 -3 
C -0.795609 -3 -1.55874 -2.683901 -2.12132 -2.12132 
C -2.683901 -1.55874 -3 -0.795609 -3 0 
C -3 0.795609 -2.683901 1.55874 -2.12132 2.12132 
C -1.55874 2.683901 -0.795609 3 0 3 
z
" style="stroke: #1f77b4"/>
    </defs>
    <g clip-path="url(#p0f56e85eb6)">
     <use xlink:href="#m21b1ef7c93" x="83.852784" y="423.008135" style="fill: #1f77b4; stroke: #1f77b4"/>
     <use xlink:href="#m21b1ef7c93" x="124.434602" y="392.020626" style="fill: #1f77b4; stroke: #1f77b4"/>
     <use xlink:href="#m21b1ef7c93" x="165.01642" y="353.732645" style="fill: #1f77b4; stroke: #1f77b4"/>
     <use xlink:href="#m21b1ef7c93" x="205.598239" y="325.440327" style="fill: #1f77b4; stroke: #1f77b4"/>
     <use xlink:href="#m21b1ef7c93" x="246.180057" y="294.898027" style="fill: #1f77b4; stroke: #1f77b4"/>
     <use xlink:href="#m21b1ef7c93" x="286.761875" y="274.375325" style="fill: #1f77b4; stroke: #1f77b4"/>
     <use xlink:href="#m21b1ef7c93" x="327.343693" y="239.266042" style="fill: #1f77b4; stroke: #1f77b4"/>
     <use xlink:href="#m21b1ef7c93" x="367.925511" y="210.959361" style="fill: #1f77b4; stroke: #1f77b4"/>
     <use xlink:href="#m21b1ef7c93" x="408.50733" y="181.211736" style="fill: #1f77b4; stroke: #1f77b4"/>
     <use xlink:href="#m21b1ef7c93" x="449.089148" y="156.112476" style="fill: #1f77b4; stroke: #1f77b4"/>
     <use xlink:href="#m21b1ef7c93" x="489.670966" y="137.547736" style="fill: #1f77b4; stroke: #1f77b4"/>
    </g>
   </g>
   <g id="line2d_34">
    <path d="M 83.852784 421.064534 
L 124.434602 387.458429 
L 165.01642 359.032069 
L 205.598239 324.095125 
L 246.180057 292.413473 
L 286.761875 266.323264 
L 327.343693 229.083679 
L 367.925511 201.078592 
L 408.50733 184.045755 
L 449.089148 145.633308 
L 489.670966 126.106342 
" clip-path="url(#p0f56e85eb6)" style="fill: none; stroke: #ff7f0e; stroke-width: 1.5; stroke-linecap: square"/>
    <defs>
     <path id="md06e80ef54" d="M -3 3 
L 3 3 
L 3 -3 
L -3 -3 
z
" style="stroke: #ff7f0e; stroke-linejoin: miter"/>
    </defs>
    <g clip-path="url(#p0f56e85eb6)">
     <use xlink:href="#md06e80ef54" x="83.852784" y="421.064534" style="fill: #ff7f0e; stroke: #ff7f0e; stroke-linejoin: miter"/>
     <use xlink:href="#md06e80ef54" x="124.434602" y="387.458429" style="fill: #ff7f0e; stroke: #ff7f0e; stroke-linejoin: miter"/>
     <use xlink:href="#md06e80ef54" x="165.01642" y="359.032069" style="fill: #ff7f0e; stroke: #ff7f0e; stroke-linejoin: miter"/>
     <use xlink:href="#md06e80ef54" x="205.598239" y="324.095125" style="fill: #ff7f0e; stroke: #ff7f0e; stroke-linejoin: miter"/>
     <use xlink:href="#md06e80ef54" x="246.180057" y="292.413473" style="fill: #ff7f0e; stroke: #ff7f0e; stroke-linejoin: miter"/>
     <use xlink:href="#md06e80ef54" x="286.761875" y="266.323264" style="fill: #ff7f0e; stroke: #ff7f0e; stroke-linejoin: miter"/>
     <use xlink:href="#md06e80ef54" x="327.343693" y="229.083679" style="fill: #ff7f0e; stroke: #ff7f0e; stroke-linejoin: miter"/>
     <use xlink:href="#md06e80ef54" x="367.925511" y="201.078592" style="fill: #ff7f0e; stroke: #ff7f0e; stroke-linejoin: miter"/>
     <use xlink:href="#md06e80ef54" x="408.50733" y="184.045755" style="fill: #ff7f0e; stroke: #ff7f0e; stroke-linejoin: miter"/>
     <use xlink:href="#md06e80ef54" x="449.089148" y="145.633308" style="fill: #ff7f0e; stroke: #ff7f0e; stroke-linejoin: miter"/>
     <use xlink:href="#md06e80ef54" x="489.670966" y="126.106342" style="fill: #ff7f0e; stroke: #ff7f0e; stroke-linejoin: miter"/>
    </g>
   </g>
   <g id="line2d_35">
    <path d="M 83.852784 423.740575 
L 124.434602 385.28983 
L 165.01642 348.538539 
L 205.598239 309.972902 
L 246.180057 280.761442 
L 286.761875 243.292072 
L 327.343693 218.77685 
L 367.925511 183.96916 
L 408.50733 153.991749 
L 449.089148 127.274417 
L 489.670966 99.681029 
" clip-path="url(#p0f56e85eb6)" style="fill: none; stroke: #2ca02c; stroke-width: 1.5; stroke-linecap: square"/>
    <defs>
     <path id="m9f58bf8e62" d="M 0 -3 
L -3 3 
L 3 3 
z
" style="stroke: #2ca02c; stroke-linejoin: miter"/>
    </defs>
    <g clip-path="url(#p0f56e85eb6)">
     <use xlink:href="#m9f58bf8e62" x="83.852784" y="423.740575" style="fill: #2ca02c; stroke: #2ca02c; stroke-linejoin: miter"/>
     <use xlink:href="#m9f58bf8e62" x="124.434602" y="385.28983" style="fill: #2ca02c; stroke: #2ca02c; stroke-linejoin: miter"/>
     <use xlink:href="#m9f58bf8e62" x="165.01642" y="348.538539" style="fill: #2ca02c; stroke: #2ca02c; stroke-linejoin: miter"/>
     <use xlink:href="#m9f58bf8e62" x="205.598239" y="309.972902" style="fill: #2ca02c; stroke: #2ca02c; stroke-linejoin: miter"/>
     <use xlink:href="#m9f58bf8e62" x="246.180057" y="280.761442" style="fill: #2ca02c; stroke: #2ca02c; stroke-linejoin: miter"/>
     <use xlink:href="#m9f58bf8e62" x="286.761875" y="243.292072" style="fill: #2ca02c; stroke: #2ca02c; stroke-linejoin: miter"/>
     <use xlink:href="#m9f58bf8e62" x="327.343693" y="218.77685" style="fill: #2ca02c; stroke: #2ca02c; stroke-linejoin: miter"/>
     <use xlink:href="#m9f58bf8e62" x="367.925511" y="183.96916" style="fill: #2ca02c; stroke: #2ca02c; stroke-linejoin: miter"/>
     <use xlink:href="#m9f58bf8e62" x="408.50733" y="153.991749" style="fill: #2ca02c; stroke: #2ca02c; stroke-linejoin: miter"/>
     <use xlink:href="#m9f58bf8e62" x="449.089148" y="127.274417" style="fill: #2ca02c; stroke: #2ca02c; stroke-linejoin: miter"/>
     <use xlink:href="#m9f58bf8e62" x="489.670966" y="99.681029" style="fill: #2ca02c; stroke: #2ca02c; stroke-linejoin: miter"/>
    </g>
   </g>
   <g id="line2d_36">
    <path d="M 83.852784 413.13694 
L 124.434602 381.349969 
L 165.01642 333.817917 
L 205.598239 299.082035 
L 246.180057 255.092506 
L 286.761875 218.432172 
L 327.343693 182.001623 
L 367.925511 148.788069 
L 408.50733 105.813425 
L 449.089148 69.952552 
L 489.670966 33.009774 
" clip-path="url(#p0f56e85eb6)" style="fill: none; stroke: #d62728; stroke-width: 1.5; stroke-linecap: square"/>
    <defs>
     <path id="m2442dc7310" d="M 0 4.242641 
L 4.242641 0 
L 0 -4.242641 
L -4.242641 0 
z
" style="stroke: #d62728; stroke-linejoin: miter"/>
    </defs>
    <g clip-path="url(#p0f56e85eb6)">
     <use xlink:href="#m2442dc7310" x="83.852784" y="413.13694" style="fill: #d62728; stroke: #d62728; stroke-linejoin: miter"/>
     <use xlink:href="#m2442dc7310" x="124.434602" y="381.349969" style="fill: #d62728; stroke: #d62728; stroke-linejoin: miter"/>
     <use xlink:href="#m2442dc7310" x="165.01642" y="333.817917" style="fill: #d62728; stroke: #d62728; stroke-linejoin: miter"/>
     <use xlink:href="#m2442dc7310" x="205.598239" y="299.082035" style="fill: #d62728; stroke: #d62728; stroke-linejoin: miter"/>
     <use xlink:href="#m2442dc7310" x="246.180057" y="255.092506" style="fill: #d62728; stroke: #d62728; stroke-linejoin: miter"/>
     <use xlink:href="#m2442dc7310" x="286.761875" y="218.432172" style="fill: #d62728; stroke: #d62728; stroke-linejoin: miter"/>
     <use xlink:href="#m2442dc7310" x="327.343693" y="182.001623" style="fill: #d62728; stroke: #d62728; stroke-linejoin: miter"/>
     <use xlink:href="#m2442dc7310" x="367.925511" y="148.788069" style="fill: #d62728; stroke: #d62728; stroke-linejoin: miter"/>
     <use xlink:href="#m2442dc7310" x="408.50733" y="105.813425" style="fill: #d62728; stroke: #d62728; stroke-linejoin: miter"/>
     <use xlink:href="#m2442dc7310" x="449.089148" y="69.952552" style="fill: #d62728; stroke: #d62728; stroke-linejoin: miter"/>
     <use xlink:href="#m2442dc7310" x="489.670966" y="33.009774" style="fill: #d62728; stroke: #d62728; stroke-linejoin: miter"/>
    </g>
   </g>
   <g id="patch_3">
    <path d="M 63.561875 450.72 
L 63.561875 7.2 
" style="fill: none; stroke: #000000; stroke-width: 0.8; stroke-linejoin: miter; stroke-linecap: square"/>
   </g>
   <g id="patch_4">
    <path d="M 509.961875 450.72 
L 509.961875 7.2 
" style="fill: none; stroke: #000000; stroke-width: 0.8; stroke-linejoin: miter; stroke-linecap: square"/>
   </g>
   <g id="patch_5">
    <path d="M 63.561875 450.72 
L 509.961875 450.72 
" style="fill: none; stroke: #000000; stroke-width: 0.8; stroke-linejoin: miter; stroke-linecap: square"/>
   </g>
   <g id="patch_6">
    <path d="M 63.561875 7.2 
L 509.961875 7.2 
" style="fill: none; stroke: #000000; stroke-width: 0.8; stroke-linejoin: miter; stroke-linecap: square"/>
   </g>
   <g id="legend_1">
    <g id="patch_7">
     <path d="M 70.561875 74.15625 
L 190.186875 74.15625 
Q 192.186875 74.15625 192.186875 72.15625 
L 192.186875 14.2 
Q 192.186875 12.2 190.186875 12.2 
L 70.561875 12.2 
Q 68.561875 12.2 68.561875 14.2 
L 68.561875 72.15625 
Q 68.561875 74.15625 70.561875 74.15625 
z
" style="fill: #ffffff; opacity: 0.8; stroke: #cccccc; stroke-linejoin: miter"/>
    </g>
    <g id="LineCollection_5">
     <path d="M 82.561875 25.298438 
L 82.561875 15.298438 
" style="fill: none; stroke: #1f77b4; stroke-width: 1.5"/>
    </g>
    <g id="line2d_37">
     <g>
      <use xlink:href="#m3286712e17" x="82.561875" y="25.298438" style="fill: #1f77b4; stroke: #1f77b4"/>
     </g>
    </g>
    <g id="line2d_38">
     <g>
      <use xlink:href="#m3286712e17" x="82.561875" y="15.298438" style="fill: #1f77b4; stroke: #1f77b4"/>
     </g>
    </g>
    <g id="line2d_39">
     <path d="M 72.561875 20.298438 
L 92.561875 20.298438 
" style="fill: none; stroke: #1f77b4; stroke-width: 1.5; stroke-linecap: square"/>
    </g>
    <g id="line2d_40">
     <g>
      <use xlink:href="#m21b1ef7c93" x="82.561875" y="20.298438" style="fill: #1f77b4; stroke: #1f77b4"/>
     </g>
    </g>
    <g id="text_15">
     <!-- 1+1 protection -->
     <g transform="translate(100.561875 23.798438) scale(0.1 -0.1)">
      <defs>
       <path id="DejaVuSans-2b" d="M 2944 4013 
L 2944 2272 
L 4684 2272 
L 4684 1741 
L 2944 1741 
L 2944 0 
L 2419 0 
L 2419 1741 
L 678 1741 
L 678 2272 
L 2419 2272 
L 2419 4013 
L 2944 4013 
z
" transform="scale(0.015625)"/>
       <path id="DejaVuSans-70" d="M 1159 525 
L 1159 -1331 
L 581 -1331 
L 581 3500 
L 1159 3500 
L 1159 2969 
Q 1341 3281 1617 3432 
Q 1894 3584 2278 3584 
Q 2916 3584 3314 3078 
Q 3713 2572 3713 1747 
Q 3713 922 3314 415 
Q 2916 -91 2278 -91 
Q 1894 -91 1617 61 
Q 1341 213 1159 525 
z
M 3116 1747 
Q 3116 2381 2855 2742 
Q 2594 3103 2138 3103 
Q 1681 3103 1420 2742 
Q 1159 2381 1159 1747 
Q 1159 1113 1420 752 
Q 1681 391 2138 391 
Q 2594 391 2855 752 
Q 3116 1113 3116 1747 
z
" transform="scale(0.015625)"/>
       <path id="DejaVuSans-63" d="M 3122 3366 
L 3122 2828 
Q 2878 2963 2633 3030 
Q 2388 3097 2138 3097 
Q 1578 3097 1268 2742 
Q 959 2388 959 1747 
Q 959 1106 1268 751 
Q 1578 397 2138 397 
Q 2388 397 2633 464 
Q 2878 531 3122 666 
L 3122 134 
Q 2881 22 2623 -34 
Q 2366 -91 2075 -91 
Q 1284 -91 818 406 
Q 353 903 353 1747 
Q 353 2603 823 3093 
Q 1294 3584 2113 3584 
Q 2378 3584 2631 3529 
Q 2884 3475 3122 3366 
z
" transform="scale(0.015625)"/>
       <path id="DejaVuSans-69" d="M 603 3500 
L 1178 3500 
L 1178 0 
L 603 0 
L 603 3500 
z
M 603 4863 
L 1178 4863 
L 1178 4134 
L 603 4134 
L 603 4863 
z
" transform="scale(0.015625)"/>
       <path id="DejaVuSans-6e" d="M 3513 2113 
L 3513 0 
L 2938 0 
L 2938 2094 
Q 2938 2591 2744 2837 
Q 2550 3084 2163 3084 
Q 1697 3084 1428 2787 
Q 1159 2491 1159 1978 
L 1159 0 
L 581 0 
L 581 3500 
L 1159 3500 
L 1159 2956 
Q 1366 3272 1645 3428 
Q 1925 3584 2291 3584 
Q 2894 3584 3203 3211 
Q 3513 2838 3513 2113 
z
" transform="scale(0.015625)"/>
      </defs>
      <use xlink:href="#DejaVuSans-31"/>
      <use xlink:href="#DejaVuSans-2b" x="63.623047"/>
      <use xlink:href="#DejaVuSans-31" x="147.412109"/>
      <use xlink:href="#DejaVuSans-20" x="211.035156"/>
      <use xlink:href="#DejaVuSans-70" x="242.822266"/>
      <use xlink:href="#DejaVuSans-72" x="306.298828"/>
      <use xlink:href="#DejaVuSans-6f" x="345.162109"/>
      <use xlink:href="#DejaVuSans-74" x="406.34375"/>
      <use xlink:href="#DejaVuSans-65" x="445.552734"/>
      <use xlink:href="#DejaVuSans-63" x="507.076172"/>
      <use xlink:href="#DejaVuSans-74" x="562.056641"/>
      <use xlink:href="#DejaVuSans-69" x="601.265625"/>
      <use xlink:href="#DejaVuSans-6f" x="629.048828"/>
      <use xlink:href="#DejaVuSans-6e" x="690.230469"/>
     </g>
    </g>
    <g id="LineCollection_6">
     <path d="M 82.561875 40.078125 
L 82.561875 30.078125 
" style="fill: none; stroke: #ff7f0e; stroke-width: 1.5"/>
    </g>
    <g id="line2d_41">
     <g>
      <use xlink:href="#m1ff63ce136" x="82.561875" y="40.078125" style="fill: #ff7f0e; stroke: #ff7f0e"/>
     </g>
    </g>
    <g id="line2d_42">
     <g>
      <use xlink:href="#m1ff63ce136" x="82.561875" y="30.078125" style="fill: #ff7f0e; stroke: #ff7f0e"/>
     </g>
    </g>
    <g id="line2d_43">
     <path d="M 72.561875 35.078125 
L 92.561875 35.078125 
" style="fill: none; stroke: #ff7f0e; stroke-width: 1.5; stroke-linecap: square"/>
    </g>
    <g id="line2d_44">
     <g>
      <use xlink:href="#md06e80ef54" x="82.561875" y="35.078125" style="fill: #ff7f0e; stroke: #ff7f0e; stroke-linejoin: miter"/>
     </g>
    </g>
    <g id="text_16">
     <!-- TC-SSPR $\beta$=1 -->
     <g transform="translate(100.561875 38.578125) scale(0.1 -0.1)">
      <defs>
       <path id="DejaVuSans-2d" d="M 313 2009 
L 1997 2009 
L 1997 1497 
L 313 1497 
L 313 2009 
z
" transform="scale(0.015625)"/>
       <path id="DejaVuSans-53" d="M 3425 4513 
L 3425 3897 
Q 3066 4069 2747 4153 
Q 2428 4238 2131 4238 
Q 1616 4238 1336 4038 
Q 1056 3838 1056 3469 
Q 1056 3159 1242 3001 
Q 1428 2844 1947 2747 
L 2328 2669 
Q 3034 2534 3370 2195 
Q 3706 1856 3706 1288 
Q 3706 609 3251 259 
Q 2797 -91 1919 -91 
Q 1588 -91 1214 -16 
Q 841 59 441 206 
L 441 856 
Q 825 641 1194 531 
Q 1563 422 1919 422 
Q 2459 422 2753 634 
Q 3047 847 3047 1241 
Q 3047 1584 2836 1778 
Q 2625 1972 2144 2069 
L 1759 2144 
Q 1053 2284 737 2584 
Q 422 2884 422 3419 
Q 422 4038 858 4394 
Q 1294 4750 2059 4750 
Q 2388 4750 2728 4690 
Q 3069 4631 3425 4513 
z
" transform="scale(0.015625)"/>
       <path id="DejaVuSans-50" d="M 1259 4147 
L 1259 2394 
L 2053 2394 
Q 2494 2394 2734 2622 
Q 2975 2850 2975 3272 
Q 2975 3691 2734 3919 
Q 2494 4147 2053 4147 
L 1259 4147 
z
M 628 4666 
L 2053 4666 
Q 2838 4666 3239 4311 
Q 3641 3956 3641 3272 
Q 3641 2581 3239 2228 
Q 2838 1875 2053 1875 
L 1259 1875 
L 1259 0 
L 628 0 
L 628 4666 
z
" transform="scale(0.015625)"/>
       <path id="DejaVuSans-52" d="M 2841 2188 
Q 3044 2119 3236 1894 
Q 3428 1669 3622 1275 
L 4263 0 
L 3584 0 
L 2988 1197 
Q 2756 1666 2539 1819 
Q 2322 1972 1947 1972 
L 1259 1972 
L 1259 0 
L 628 0 
L 628 4666 
L 2053 4666 
Q 2853 4666 3247 4331 
Q 3641 3997 3641 3322 
Q 3641 2881 3436 2590 
Q 3231 2300 2841 2188 
z
M 1259 4147 
L 1259 2491 
L 2053 2491 
Q 2509 2491 2742 2702 
Q 2975 2913 2975 3322 
Q 2975 3731 2742 3939 
Q 2509 4147 2053 4147 
L 1259 4147 
z
" transform="scale(0.015625)"/>
       <path id="DejaVuSans-Oblique-3b2" d="M 872 216 
L 572 -1331 
L -6 -1331 
L 928 3478 
Q 1206 4903 2538 4903 
Q 3888 4903 3659 3700 
Q 3503 2844 2894 2531 
Q 3713 2250 3553 1416 
Q 3272 -69 1759 -66 
Q 1097 -63 872 216 
z
M 1019 966 
Q 1259 422 1875 425 
Q 2775 425 2966 1406 
Q 3138 2288 1675 2219 
L 1778 2750 
Q 2909 2731 3106 3750 
Q 3241 4438 2509 4434 
Q 1691 4434 1503 3459 
L 1019 966 
z
" transform="scale(0.015625)"/>
       <path id="DejaVuSans-3d" d="M 678 2906 
L 4684 2906 
L 4684 2381 
L 678 2381 
L 678 2906 
z
M 678 1631 
L 4684 1631 
L 4684 1100 
L 678 1100 
L 678 1631 
z
" transform="scale(0.015625)"/>
      </defs>
      <use xlink:href="#DejaVuSans-54" transform="translate(0 0.390625)"/>
      <use xlink:href="#DejaVuSans-43" transform="translate(61.083984 0.390625)"/>
      <use xlink:href="#DejaVuSans-2d" transform="translate(130.908203 0.390625)"/>
      <use xlink:href="#DejaVuSans-53" transform="translate(166.992188 0.390625)"/>
      <use xlink:href="#DejaVuSans-53" transform="translate(230.46875 0.390625)"/>
      <use xlink:href="#DejaVuSans-50" transform="translate(293.945312 0.390625)"/>
      <use xlink:href="#DejaVuSans-52" transform="translate(354.248047 0.390625)"/>
      <use xlink:href="#DejaVuSans-20" transform="translate(423.730469 0.390625)"/>
      <use xlink:href="#DejaVuSans-Oblique-3b2" transform="translate(455.517578 0.390625)"/>
      <use xlink:href="#DejaVuSans-3d" transform="translate(519.335938 0.390625)"/>
      <use xlink:href="#DejaVuSans-31" transform="translate(603.125 0.390625)"/>
     </g>
    </g>
    <g id="LineCollection_7">
     <path d="M 82.561875 54.878125 
L 82.561875 44.878125 
" style="fill: none; stroke: #2ca02c; stroke-width: 1.5"/>
    </g>
    <g id="line2d_45">
     <g>
      <use xlink:href="#m943a40f4f3" x="82.561875" y="54.878125" style="fill: #2ca02c; stroke: #2ca02c"/>
     </g>
    </g>
    <g id="line2d_46">
     <g>
      <use xlink:href="#m943a40f4f3" x="82.561875" y="44.878125" style="fill: #2ca02c; stroke: #2ca02c"/>
     </g>
    </g>
    <g id="line2d_47">
     <path d="M 72.561875 49.878125 
L 92.561875 49.878125 
" style="fill: none; stroke: #2ca02c; stroke-width: 1.5; stroke-linecap: square"/>
    </g>
    <g id="line2d_48">
     <g>
      <use xlink:href="#m9f58bf8e62" x="82.561875" y="49.878125" style="fill: #2ca02c; stroke: #2ca02c; stroke-linejoin: miter"/>
     </g>
    </g>
    <g id="text_17">
     <!-- TC-SSPR $\beta$=2 -->
     <g transform="translate(100.561875 53.378125) scale(0.1 -0.1)">
      <use xlink:href="#DejaVuSans-54" transform="translate(0 0.390625)"/>
      <use xlink:href="#DejaVuSans-43" transform="translate(61.083984 0.390625)"/>
      <use xlink:href="#DejaVuSans-2d" transform="translate(130.908203 0.390625)"/>
      <use xlink:href="#DejaVuSans-53" transform="translate(166.992188 0.390625)"/>
      <use xlink:href="#DejaVuSans-53" transform="translate(230.46875 0.390625)"/>
      <use xlink:href="#DejaVuSans-50" transform="translate(293.945312 0.390625)"/>
      <use xlink:href="#DejaVuSans-52" transform="translate(354.248047 0.390625)"/>
      <use xlink:href="#DejaVuSans-20" transform="translate(423.730469 0.390625)"/>
      <use xlink:href="#DejaVuSans-Oblique-3b2" transform="translate(455.517578 0.390625)"/>
      <use xlink:href="#DejaVuSans-3d" transform="translate(519.335938 0.390625)"/>
      <use xlink:href="#DejaVuSans-32" transform="translate(603.125 0.390625)"/>
     </g>
    </g>
    <g id="LineCollection_8">
     <path d="M 82.561875 69.576563 
L 82.561875 59.576563 
" style="fill: none; stroke: #d62728; stroke-width: 1.5"/>
    </g>
    <g id="line2d_49">
     <g>
      <use xlink:href="#m63e6628f7f" x="82.561875" y="69.576563" style="fill: #d62728; stroke: #d62728"/>
     </g>
    </g>
    <g id="line2d_50">
     <g>
      <use xlink:href="#m63e6628f7f" x="82.561875" y="59.576563" style="fill: #d62728; stroke: #d62728"/>
     </g>
    </g>
    <g id="line2d_51">
     <path d="M 72.561875 64.576563 
L 92.561875 64.576563 
" style="fill: none; stroke: #d62728; stroke-width: 1.5; stroke-linecap: square"/>
    </g>
    <g id="line2d_52">
     <g>
      <use xlink:href="#m2442dc7310" x="82.561875" y="64.576563" style="fill: #d62728; stroke: #d62728; stroke-linejoin: miter"/>
     </g>
    </g>
    <g id="text_18">
     <!-- maximum shared -->
     <g transform="translate(100.561875 68.076563) scale(0.1 -0.1)">
      <defs>
       <path id="DejaVuSans-78" d="M 3513 3500 
L 2247 1797 
L 3578 0 
L 2900 0 
L 1881 1375 
L 863 0 
L 184 0 
L 1544 1831 
L 300 3500 
L 978 3500 
L 1906 2253 
L 2834 3500 
L 3513 3500 
z
" transform="scale(0.015625)"/>
       <path id="DejaVuSans-68" d="M 3513 2113 
L 3513 0 
L 2938 0 
L 2938 2094 
Q 2938 2591 2744 2837 
Q 2550 3084 2163 3084 
Q 1697 3084 1428 2787 
Q 1159 2491 1159 1978 
L 1159 0 
L 581 0 
L 581 4863 
L 1159 4863 
L 1159 2956 
Q 1366 3272 1645 3428 
Q 1925 3584 2291 3584 
Q 2894 3584 3203 3211 
Q 3513 2838 3513 2113 
z
" transform="scale(0.015625)"/>
       <path id="DejaVuSans-64" d="M 2906 2969 
L 2906 4863 
L 3481 4863 
L 3481 0 
L 2906 0 
L 2906 525 
Q 2725 213 2448 61 
Q 2172 -91 1784 -91 
Q 1150 -91 751 415 
Q 353 922 353 1747 
Q 353 2572 751 3078 
Q 1150 3584 1784 3584 
Q 2172 3584 2448 3432 
Q 2725 3281 2906 2969 
z
M 947 1747 
Q 947 1113 1208 752 
Q 1469 391 1925 391 
Q 2381 391 2643 752 
Q 2906 1113 2906 1747 
Q 2906 2381 2643 2742 
Q 2381 3103 1925 3103 
Q 1469 3103 1208 2742 
Q 947 2381 947 1747 
z
" transform="scale(0.015625)"/>
      </defs>
      <use xlink:href="#DejaVuSans-6d"/>
      <use xlink:href="#DejaVuSans-61" x="97.412109"/>
      <use xlink:href="#DejaVuSans-78" x="158.691406"/>
      <use xlink:href="#DejaVuSans-69" x="217.871094"/>
      <use xlink:href="#DejaVuSans-6d" x="245.654297"/>
      <use xlink:href="#DejaVuSans-75" x="343.066406"/>
      <use xlink:href="#DejaVuSans-6d" x="406.445312"/>
      <use xlink:href="#DejaVuSans-20" x="503.857422"/>
      <use xlink:href="#DejaVuSans-73" x="535.644531"/>
      <use xlink:href="#DejaVuSans-68" x="587.744141"/>
      <use xlink:href="#DejaVuSans-61" x="651.123047"/>
      <use xlink:href="#DejaVuSans-72" x="712.402344"/>
      <use xlink:href="#DejaVuSans-65" x="751.265625"/>
      <use xlink:href="#DejaVuSans-64" x="812.789062"/>
     </g>
    </g>
   </g>
  </g>
 </g>
 <defs>
  <clipPath id="p0f56e85eb6">
   <rect x="63.561875" y="7.2" width="446.4" height="443.52"/>
  </clipPath>
 </defs>
</svg>
